<svg xmlns="http://www.w3.org/2000/svg" width="320" height="192" viewBox="0 0 320 192" fill="none">
  <g filter="url(#filter0_d_285_351)">
    <g clip-path="url(#clip0_285_351)">
      <rect x="32" y="28" width="256" height="128" rx="10" fill="url(#paint0_linear_285_351)"/>
      <g filter="url(#filter1_d_285_351)">
        <path d="M244.361 50.692C248.609 50.1179 252.841 51.854 255.463 55.2463L269.607 73.5496C272.229 76.9419 272.841 81.4751 271.214 85.4415L262.435 106.843C260.808 110.809 257.189 113.606 252.94 114.18L230.017 117.278C225.768 117.852 221.536 116.116 218.915 112.724L204.77 94.4202C202.149 91.0279 201.536 86.4947 203.163 82.5283L211.942 61.1273C213.569 57.1609 217.189 54.3638 221.437 53.7897L244.361 50.692Z" fill="url(#paint1_linear_285_351)"/>
        <path d="M244.495 51.683C248.389 51.1567 252.269 52.7481 254.672 55.8577L268.816 74.1611C271.219 77.2707 271.781 81.4261 270.289 85.062L261.51 106.463C260.019 110.099 256.701 112.663 252.806 113.189L229.883 116.287C225.988 116.813 222.109 115.222 219.706 112.112L205.561 93.8088C203.158 90.6991 202.597 86.5437 204.088 82.9078L212.867 61.5068C214.359 57.8709 217.677 55.3069 221.571 54.7807L244.495 51.683Z" stroke="url(#paint2_linear_285_351)" stroke-width="2"/>
      </g>
      <g filter="url(#filter2_dd_285_351)">
        <mask id="path-5-outside-1_285_351" maskUnits="userSpaceOnUse" x="196.522" y="61.9597" width="77.0998" height="61.2143" fill="black">
          <rect fill="white" x="196.522" y="61.9597" width="77.0998" height="61.2143"/>
          <path d="M200.413 87.0758C200.284 87.0263 200.185 86.9367 200.116 86.8069C200.053 86.6642 200.048 86.522 200.103 86.3801L204.908 73.8476C204.962 73.7057 205.058 73.6095 205.196 73.5588C205.339 73.4952 205.475 73.4881 205.603 73.5375L211.773 75.9031C212.946 76.353 213.848 76.876 214.477 77.4722C215.106 78.0684 215.49 78.7258 215.628 79.4444C215.767 80.1631 215.673 80.9479 215.347 81.7988C215.179 82.2372 214.938 82.5959 214.624 82.8748C214.328 83.1458 214.012 83.3503 213.679 83.4885C213.349 83.6137 213.056 83.6859 212.797 83.705C213.216 84.117 213.511 84.659 213.682 85.331C213.858 85.9901 213.818 86.6549 213.561 87.3254C213.214 88.2279 212.716 88.9096 212.067 89.3703C211.43 89.8359 210.662 90.0816 209.765 90.1073C208.881 90.1379 207.884 89.9407 206.776 89.5155L200.413 87.0758ZM205.188 85.5569L207.45 86.4246C207.889 86.5927 208.261 86.5873 208.566 86.4085C208.876 86.2169 209.093 85.9599 209.216 85.6375C209.345 85.3023 209.347 84.9702 209.221 84.6411C209.101 84.2992 208.835 84.0492 208.422 83.891L206.159 83.0233L205.188 85.5569ZM207.249 80.1803L209.319 80.9738C209.731 81.132 210.079 81.1321 210.361 80.9742C210.643 80.8163 210.844 80.5826 210.963 80.2731C211.081 79.9637 211.088 79.6558 210.984 79.3496C210.88 79.0434 210.621 78.8111 210.208 78.6529L208.139 77.8595L207.249 80.1803Z"/>
          <path d="M219.577 94.6459C218.339 94.1713 217.337 93.5651 216.57 92.8273C215.816 92.0944 215.322 91.2398 215.09 90.2635C214.876 89.2792 214.972 88.1995 215.379 87.0242C215.573 86.4777 215.779 85.9209 215.997 85.3535C216.219 84.7733 216.446 84.202 216.676 83.6397C217.155 82.507 217.803 81.6462 218.62 81.0575C219.451 80.4737 220.4 80.1574 221.469 80.1087C222.542 80.0471 223.692 80.2512 224.916 80.7208C226.128 81.1855 227.113 81.7997 227.87 82.5633C228.633 83.314 229.127 84.1839 229.354 85.1731C229.581 86.1623 229.488 87.2357 229.074 88.3931C228.882 88.9703 228.675 89.549 228.452 90.1292C228.235 90.6965 228.009 91.246 227.776 91.7776C227.292 92.9232 226.635 93.7879 225.805 94.3717C224.993 94.9476 224.055 95.2534 222.991 95.2892C221.94 95.33 220.802 95.1155 219.577 94.6459ZM220.838 91.358C221.379 91.5657 221.886 91.575 222.358 91.3862C222.834 91.1844 223.218 90.725 223.507 90.0079C223.746 89.4634 223.964 88.9332 224.162 88.4175C224.364 87.8889 224.557 87.3488 224.738 86.7974C224.908 86.3154 224.969 85.8875 224.92 85.5138C224.884 85.1451 224.751 84.8354 224.522 84.5848C224.306 84.3391 224.017 84.1471 223.656 84.0087C223.295 83.8702 222.945 83.8176 222.607 83.8506C222.269 83.8837 221.957 84.0228 221.671 84.268C221.397 84.5181 221.163 84.8792 220.967 85.3514C220.746 85.8879 220.535 86.4206 220.332 86.9492C220.134 87.4649 219.936 88.0025 219.736 88.5619C219.485 89.2938 219.463 89.8916 219.669 90.3554C219.894 90.8112 220.283 91.1454 220.838 91.358Z"/>
          <path d="M233.629 100.034C232.391 99.5592 231.389 98.953 230.622 98.2152C229.868 97.4823 229.374 96.6277 229.142 95.6514C228.928 94.6672 229.024 93.5874 229.431 92.4121C229.625 91.8657 229.831 91.3088 230.049 90.7415C230.271 90.1612 230.498 89.5899 230.728 89.0276C231.207 87.8949 231.855 87.0341 232.672 86.4454C233.503 85.8616 234.452 85.5453 235.521 85.4966C236.594 85.435 237.744 85.6391 238.968 86.1087C240.18 86.5734 241.165 87.1876 241.922 87.9512C242.685 88.7019 243.179 89.5719 243.406 90.5611C243.633 91.5503 243.54 92.6236 243.126 93.781C242.934 94.3582 242.727 94.9369 242.504 95.5171C242.287 96.0844 242.061 96.6339 241.828 97.1656C241.344 98.3112 240.687 99.1759 239.857 99.7597C239.045 100.336 238.107 100.641 237.043 100.677C235.992 100.718 234.854 100.503 233.629 100.034ZM234.89 96.7459C235.431 96.9536 235.938 96.963 236.41 96.7741C236.886 96.5724 237.27 96.1129 237.559 95.3958C237.798 94.8513 238.016 94.3212 238.214 93.8054C238.416 93.2768 238.609 92.7367 238.79 92.1853C238.96 91.7033 239.021 91.2755 238.972 90.9017C238.936 90.533 238.803 90.2233 238.574 89.9727C238.358 89.7271 238.069 89.535 237.708 89.3966C237.347 89.2582 236.997 89.2055 236.659 89.2386C236.321 89.2716 236.009 89.4107 235.723 89.6559C235.449 89.906 235.215 90.2672 235.019 90.7393C234.798 91.2759 234.587 91.8085 234.384 92.3371C234.186 92.8529 233.988 93.3904 233.788 93.9498C233.537 94.6817 233.515 95.2796 233.721 95.7433C233.946 96.1992 234.335 96.5334 234.89 96.7459Z"/>
          <path d="M247.198 105.236C245.844 104.717 244.787 104.098 244.028 103.378C243.287 102.65 242.807 101.896 242.588 101.117C242.387 100.33 242.404 99.5902 242.641 98.8969C242.685 98.7809 242.761 98.699 242.868 98.6513C242.975 98.6036 243.086 98.602 243.202 98.6465L246.278 99.8256C246.458 99.8948 246.588 99.9814 246.666 100.085C246.749 100.177 246.829 100.296 246.906 100.444C246.967 100.63 247.051 100.817 247.156 101.005C247.266 101.181 247.429 101.354 247.644 101.525C247.865 101.684 248.136 101.825 248.458 101.948C249.051 102.176 249.539 102.274 249.921 102.243C250.307 102.199 250.555 102.035 250.664 101.751C250.748 101.532 250.727 101.317 250.6 101.106C250.487 100.9 250.247 100.66 249.878 100.386C249.51 100.111 248.996 99.7737 248.337 99.3729C247.408 98.8246 246.645 98.2509 246.046 97.6517C245.453 97.0396 245.069 96.3822 244.895 95.6794C244.738 94.9687 244.818 94.2008 245.135 93.3756C245.456 92.5375 245.972 91.8851 246.684 91.4184C247.408 90.9567 248.258 90.706 249.235 90.6663C250.224 90.6316 251.28 90.8292 252.402 91.2593C253.33 91.6153 254.102 92.0517 254.717 92.5686C255.345 93.0904 255.827 93.6451 256.164 94.2327C256.506 94.8074 256.719 95.3698 256.804 95.9199C256.889 96.4701 256.858 96.9539 256.713 97.3715C256.669 97.4875 256.584 97.5733 256.459 97.629C256.352 97.6767 256.247 97.6808 256.144 97.6412L252.914 96.4028C252.759 96.3435 252.634 96.2658 252.538 96.1697C252.454 96.0786 252.39 95.9577 252.344 95.8071C252.349 95.6018 252.249 95.3789 252.046 95.1382C251.842 94.8974 251.541 94.7005 251.141 94.5472C250.703 94.3791 250.338 94.3279 250.046 94.3937C249.76 94.4465 249.562 94.6148 249.453 94.8984C249.379 95.0918 249.386 95.2866 249.473 95.4829C249.561 95.6791 249.763 95.9044 250.079 96.1589C250.401 96.4004 250.859 96.7093 251.454 97.0854C252.61 97.7356 253.498 98.3717 254.117 98.9936C254.749 99.6205 255.135 100.272 255.276 100.947C255.416 101.622 255.331 102.365 255.019 103.177C254.668 104.093 254.102 104.778 253.322 105.233C252.541 105.688 251.617 105.918 250.55 105.923C249.501 105.92 248.384 105.691 247.198 105.236Z"/>
          <path d="M258.428 109.321C258.287 109.266 258.181 109.174 258.113 109.044C258.062 108.907 258.064 108.767 258.118 108.625L261.737 99.1869L258.411 97.9114C258.269 97.857 258.164 97.7649 258.095 97.6351C258.044 97.4974 258.046 97.3576 258.101 97.2157L259.094 94.6241C259.149 94.4823 259.238 94.3836 259.363 94.3279C259.506 94.2643 259.648 94.2597 259.79 94.3141L270.659 98.4817C270.801 98.536 270.897 98.6321 270.948 98.7699C271.017 98.8997 271.024 99.0355 270.969 99.1773L269.976 101.769C269.921 101.911 269.823 102.013 269.68 102.077C269.555 102.133 269.422 102.133 269.28 102.079L265.953 100.803L262.335 110.242C262.28 110.383 262.182 110.486 262.039 110.55C261.914 110.605 261.781 110.606 261.639 110.552L258.428 109.321Z"/>
        </mask>
        <path d="M200.413 87.0758C200.284 87.0263 200.185 86.9367 200.116 86.8069C200.053 86.6642 200.048 86.522 200.103 86.3801L204.908 73.8476C204.962 73.7057 205.058 73.6095 205.196 73.5588C205.339 73.4952 205.475 73.4881 205.603 73.5375L211.773 75.9031C212.946 76.353 213.848 76.876 214.477 77.4722C215.106 78.0684 215.49 78.7258 215.628 79.4444C215.767 80.1631 215.673 80.9479 215.347 81.7988C215.179 82.2372 214.938 82.5959 214.624 82.8748C214.328 83.1458 214.012 83.3503 213.679 83.4885C213.349 83.6137 213.056 83.6859 212.797 83.705C213.216 84.117 213.511 84.659 213.682 85.331C213.858 85.9901 213.818 86.6549 213.561 87.3254C213.214 88.2279 212.716 88.9096 212.067 89.3703C211.43 89.8359 210.662 90.0816 209.765 90.1073C208.881 90.1379 207.884 89.9407 206.776 89.5155L200.413 87.0758ZM205.188 85.5569L207.45 86.4246C207.889 86.5927 208.261 86.5873 208.566 86.4085C208.876 86.2169 209.093 85.9599 209.216 85.6375C209.345 85.3023 209.347 84.9702 209.221 84.6411C209.101 84.2992 208.835 84.0492 208.422 83.891L206.159 83.0233L205.188 85.5569ZM207.249 80.1803L209.319 80.9738C209.731 81.132 210.079 81.1321 210.361 80.9742C210.643 80.8163 210.844 80.5826 210.963 80.2731C211.081 79.9637 211.088 79.6558 210.984 79.3496C210.88 79.0434 210.621 78.8111 210.208 78.6529L208.139 77.8595L207.249 80.1803Z" fill="white"/>
        <path d="M219.577 94.6459C218.339 94.1713 217.337 93.5651 216.57 92.8273C215.816 92.0944 215.322 91.2398 215.09 90.2635C214.876 89.2792 214.972 88.1995 215.379 87.0242C215.573 86.4777 215.779 85.9209 215.997 85.3535C216.219 84.7733 216.446 84.202 216.676 83.6397C217.155 82.507 217.803 81.6462 218.62 81.0575C219.451 80.4737 220.4 80.1574 221.469 80.1087C222.542 80.0471 223.692 80.2512 224.916 80.7208C226.128 81.1855 227.113 81.7997 227.87 82.5633C228.633 83.314 229.127 84.1839 229.354 85.1731C229.581 86.1623 229.488 87.2357 229.074 88.3931C228.882 88.9703 228.675 89.549 228.452 90.1292C228.235 90.6965 228.009 91.246 227.776 91.7776C227.292 92.9232 226.635 93.7879 225.805 94.3717C224.993 94.9476 224.055 95.2534 222.991 95.2892C221.94 95.33 220.802 95.1155 219.577 94.6459ZM220.838 91.358C221.379 91.5657 221.886 91.575 222.358 91.3862C222.834 91.1844 223.218 90.725 223.507 90.0079C223.746 89.4634 223.964 88.9332 224.162 88.4175C224.364 87.8889 224.557 87.3488 224.738 86.7974C224.908 86.3154 224.969 85.8875 224.92 85.5138C224.884 85.1451 224.751 84.8354 224.522 84.5848C224.306 84.3391 224.017 84.1471 223.656 84.0087C223.295 83.8702 222.945 83.8176 222.607 83.8506C222.269 83.8837 221.957 84.0228 221.671 84.268C221.397 84.5181 221.163 84.8792 220.967 85.3514C220.746 85.8879 220.535 86.4206 220.332 86.9492C220.134 87.4649 219.936 88.0025 219.736 88.5619C219.485 89.2938 219.463 89.8916 219.669 90.3554C219.894 90.8112 220.283 91.1454 220.838 91.358Z" fill="white"/>
        <path d="M233.629 100.034C232.391 99.5592 231.389 98.953 230.622 98.2152C229.868 97.4823 229.374 96.6277 229.142 95.6514C228.928 94.6672 229.024 93.5874 229.431 92.4121C229.625 91.8657 229.831 91.3088 230.049 90.7415C230.271 90.1612 230.498 89.5899 230.728 89.0276C231.207 87.8949 231.855 87.0341 232.672 86.4454C233.503 85.8616 234.452 85.5453 235.521 85.4966C236.594 85.435 237.744 85.6391 238.968 86.1087C240.18 86.5734 241.165 87.1876 241.922 87.9512C242.685 88.7019 243.179 89.5719 243.406 90.5611C243.633 91.5503 243.54 92.6236 243.126 93.781C242.934 94.3582 242.727 94.9369 242.504 95.5171C242.287 96.0844 242.061 96.6339 241.828 97.1656C241.344 98.3112 240.687 99.1759 239.857 99.7597C239.045 100.336 238.107 100.641 237.043 100.677C235.992 100.718 234.854 100.503 233.629 100.034ZM234.89 96.7459C235.431 96.9536 235.938 96.963 236.41 96.7741C236.886 96.5724 237.27 96.1129 237.559 95.3958C237.798 94.8513 238.016 94.3212 238.214 93.8054C238.416 93.2768 238.609 92.7367 238.79 92.1853C238.96 91.7033 239.021 91.2755 238.972 90.9017C238.936 90.533 238.803 90.2233 238.574 89.9727C238.358 89.7271 238.069 89.535 237.708 89.3966C237.347 89.2582 236.997 89.2055 236.659 89.2386C236.321 89.2716 236.009 89.4107 235.723 89.6559C235.449 89.906 235.215 90.2672 235.019 90.7393C234.798 91.2759 234.587 91.8085 234.384 92.3371C234.186 92.8529 233.988 93.3904 233.788 93.9498C233.537 94.6817 233.515 95.2796 233.721 95.7433C233.946 96.1992 234.335 96.5334 234.89 96.7459Z" fill="white"/>
        <path d="M247.198 105.236C245.844 104.717 244.787 104.098 244.028 103.378C243.287 102.65 242.807 101.896 242.588 101.117C242.387 100.33 242.404 99.5902 242.641 98.8969C242.685 98.7809 242.761 98.699 242.868 98.6513C242.975 98.6036 243.086 98.602 243.202 98.6465L246.278 99.8256C246.458 99.8948 246.588 99.9814 246.666 100.085C246.749 100.177 246.829 100.296 246.906 100.444C246.967 100.63 247.051 100.817 247.156 101.005C247.266 101.181 247.429 101.354 247.644 101.525C247.865 101.684 248.136 101.825 248.458 101.948C249.051 102.176 249.539 102.274 249.921 102.243C250.307 102.199 250.555 102.035 250.664 101.751C250.748 101.532 250.727 101.317 250.6 101.106C250.487 100.9 250.247 100.66 249.878 100.386C249.51 100.111 248.996 99.7737 248.337 99.3729C247.408 98.8246 246.645 98.2509 246.046 97.6517C245.453 97.0396 245.069 96.3822 244.895 95.6794C244.738 94.9687 244.818 94.2008 245.135 93.3756C245.456 92.5375 245.972 91.8851 246.684 91.4184C247.408 90.9567 248.258 90.706 249.235 90.6663C250.224 90.6316 251.28 90.8292 252.402 91.2593C253.33 91.6153 254.102 92.0517 254.717 92.5686C255.345 93.0904 255.827 93.6451 256.164 94.2327C256.506 94.8074 256.719 95.3698 256.804 95.9199C256.889 96.4701 256.858 96.9539 256.713 97.3715C256.669 97.4875 256.584 97.5733 256.459 97.629C256.352 97.6767 256.247 97.6808 256.144 97.6412L252.914 96.4028C252.759 96.3435 252.634 96.2658 252.538 96.1697C252.454 96.0786 252.39 95.9577 252.344 95.8071C252.349 95.6018 252.249 95.3789 252.046 95.1382C251.842 94.8974 251.541 94.7005 251.141 94.5472C250.703 94.3791 250.338 94.3279 250.046 94.3937C249.76 94.4465 249.562 94.6148 249.453 94.8984C249.379 95.0918 249.386 95.2866 249.473 95.4829C249.561 95.6791 249.763 95.9044 250.079 96.1589C250.401 96.4004 250.859 96.7093 251.454 97.0854C252.61 97.7356 253.498 98.3717 254.117 98.9936C254.749 99.6205 255.135 100.272 255.276 100.947C255.416 101.622 255.331 102.365 255.019 103.177C254.668 104.093 254.102 104.778 253.322 105.233C252.541 105.688 251.617 105.918 250.55 105.923C249.501 105.92 248.384 105.691 247.198 105.236Z" fill="white"/>
        <path d="M258.428 109.321C258.287 109.266 258.181 109.174 258.113 109.044C258.062 108.907 258.064 108.767 258.118 108.625L261.737 99.1869L258.411 97.9114C258.269 97.857 258.164 97.7649 258.095 97.6351C258.044 97.4974 258.046 97.3576 258.101 97.2157L259.094 94.6241C259.149 94.4823 259.238 94.3836 259.363 94.3279C259.506 94.2643 259.648 94.2597 259.79 94.3141L270.659 98.4817C270.801 98.536 270.897 98.6321 270.948 98.7699C271.017 98.8997 271.024 99.0355 270.969 99.1773L269.976 101.769C269.921 101.911 269.823 102.013 269.68 102.077C269.555 102.133 269.422 102.133 269.28 102.079L265.953 100.803L262.335 110.242C262.28 110.383 262.182 110.486 262.039 110.55C261.914 110.605 261.781 110.606 261.639 110.552L258.428 109.321Z" fill="white"/>
        <path d="M200.413 87.0758C200.284 87.0263 200.185 86.9367 200.116 86.8069C200.053 86.6642 200.048 86.522 200.103 86.3801L204.908 73.8476C204.962 73.7057 205.058 73.6095 205.196 73.5588C205.339 73.4952 205.475 73.4881 205.603 73.5375L211.773 75.9031C212.946 76.353 213.848 76.876 214.477 77.4722C215.106 78.0684 215.49 78.7258 215.628 79.4444C215.767 80.1631 215.673 80.9479 215.347 81.7988C215.179 82.2372 214.938 82.5959 214.624 82.8748C214.328 83.1458 214.012 83.3503 213.679 83.4885C213.349 83.6137 213.056 83.6859 212.797 83.705C213.216 84.117 213.511 84.659 213.682 85.331C213.858 85.9901 213.818 86.6549 213.561 87.3254C213.214 88.2279 212.716 88.9096 212.067 89.3703C211.43 89.8359 210.662 90.0816 209.765 90.1073C208.881 90.1379 207.884 89.9407 206.776 89.5155L200.413 87.0758ZM205.188 85.5569L207.45 86.4246C207.889 86.5927 208.261 86.5873 208.566 86.4085C208.876 86.2169 209.093 85.9599 209.216 85.6375C209.345 85.3023 209.347 84.9702 209.221 84.6411C209.101 84.2992 208.835 84.0492 208.422 83.891L206.159 83.0233L205.188 85.5569ZM207.249 80.1803L209.319 80.9738C209.731 81.132 210.079 81.1321 210.361 80.9742C210.643 80.8163 210.844 80.5826 210.963 80.2731C211.081 79.9637 211.088 79.6558 210.984 79.3496C210.88 79.0434 210.621 78.8111 210.208 78.6529L208.139 77.8595L207.249 80.1803Z" stroke="#DA009E" stroke-width="2" mask="url(#path-5-outside-1_285_351)"/>
        <path d="M219.577 94.6459C218.339 94.1713 217.337 93.5651 216.57 92.8273C215.816 92.0944 215.322 91.2398 215.09 90.2635C214.876 89.2792 214.972 88.1995 215.379 87.0242C215.573 86.4777 215.779 85.9209 215.997 85.3535C216.219 84.7733 216.446 84.202 216.676 83.6397C217.155 82.507 217.803 81.6462 218.62 81.0575C219.451 80.4737 220.4 80.1574 221.469 80.1087C222.542 80.0471 223.692 80.2512 224.916 80.7208C226.128 81.1855 227.113 81.7997 227.87 82.5633C228.633 83.314 229.127 84.1839 229.354 85.1731C229.581 86.1623 229.488 87.2357 229.074 88.3931C228.882 88.9703 228.675 89.549 228.452 90.1292C228.235 90.6965 228.009 91.246 227.776 91.7776C227.292 92.9232 226.635 93.7879 225.805 94.3717C224.993 94.9476 224.055 95.2534 222.991 95.2892C221.94 95.33 220.802 95.1155 219.577 94.6459ZM220.838 91.358C221.379 91.5657 221.886 91.575 222.358 91.3862C222.834 91.1844 223.218 90.725 223.507 90.0079C223.746 89.4634 223.964 88.9332 224.162 88.4175C224.364 87.8889 224.557 87.3488 224.738 86.7974C224.908 86.3154 224.969 85.8875 224.92 85.5138C224.884 85.1451 224.751 84.8354 224.522 84.5848C224.306 84.3391 224.017 84.1471 223.656 84.0087C223.295 83.8702 222.945 83.8176 222.607 83.8506C222.269 83.8837 221.957 84.0228 221.671 84.268C221.397 84.5181 221.163 84.8792 220.967 85.3514C220.746 85.8879 220.535 86.4206 220.332 86.9492C220.134 87.4649 219.936 88.0025 219.736 88.5619C219.485 89.2938 219.463 89.8916 219.669 90.3554C219.894 90.8112 220.283 91.1454 220.838 91.358Z" stroke="#DA009E" stroke-width="2" mask="url(#path-5-outside-1_285_351)"/>
        <path d="M233.629 100.034C232.391 99.5592 231.389 98.953 230.622 98.2152C229.868 97.4823 229.374 96.6277 229.142 95.6514C228.928 94.6672 229.024 93.5874 229.431 92.4121C229.625 91.8657 229.831 91.3088 230.049 90.7415C230.271 90.1612 230.498 89.5899 230.728 89.0276C231.207 87.8949 231.855 87.0341 232.672 86.4454C233.503 85.8616 234.452 85.5453 235.521 85.4966C236.594 85.435 237.744 85.6391 238.968 86.1087C240.18 86.5734 241.165 87.1876 241.922 87.9512C242.685 88.7019 243.179 89.5719 243.406 90.5611C243.633 91.5503 243.54 92.6236 243.126 93.781C242.934 94.3582 242.727 94.9369 242.504 95.5171C242.287 96.0844 242.061 96.6339 241.828 97.1656C241.344 98.3112 240.687 99.1759 239.857 99.7597C239.045 100.336 238.107 100.641 237.043 100.677C235.992 100.718 234.854 100.503 233.629 100.034ZM234.89 96.7459C235.431 96.9536 235.938 96.963 236.41 96.7741C236.886 96.5724 237.27 96.1129 237.559 95.3958C237.798 94.8513 238.016 94.3212 238.214 93.8054C238.416 93.2768 238.609 92.7367 238.79 92.1853C238.96 91.7033 239.021 91.2755 238.972 90.9017C238.936 90.533 238.803 90.2233 238.574 89.9727C238.358 89.7271 238.069 89.535 237.708 89.3966C237.347 89.2582 236.997 89.2055 236.659 89.2386C236.321 89.2716 236.009 89.4107 235.723 89.6559C235.449 89.906 235.215 90.2672 235.019 90.7393C234.798 91.2759 234.587 91.8085 234.384 92.3371C234.186 92.8529 233.988 93.3904 233.788 93.9498C233.537 94.6817 233.515 95.2796 233.721 95.7433C233.946 96.1992 234.335 96.5334 234.89 96.7459Z" stroke="#DA009E" stroke-width="2" mask="url(#path-5-outside-1_285_351)"/>
        <path d="M247.198 105.236C245.844 104.717 244.787 104.098 244.028 103.378C243.287 102.65 242.807 101.896 242.588 101.117C242.387 100.33 242.404 99.5902 242.641 98.8969C242.685 98.7809 242.761 98.699 242.868 98.6513C242.975 98.6036 243.086 98.602 243.202 98.6465L246.278 99.8256C246.458 99.8948 246.588 99.9814 246.666 100.085C246.749 100.177 246.829 100.296 246.906 100.444C246.967 100.63 247.051 100.817 247.156 101.005C247.266 101.181 247.429 101.354 247.644 101.525C247.865 101.684 248.136 101.825 248.458 101.948C249.051 102.176 249.539 102.274 249.921 102.243C250.307 102.199 250.555 102.035 250.664 101.751C250.748 101.532 250.727 101.317 250.6 101.106C250.487 100.9 250.247 100.66 249.878 100.386C249.51 100.111 248.996 99.7737 248.337 99.3729C247.408 98.8246 246.645 98.2509 246.046 97.6517C245.453 97.0396 245.069 96.3822 244.895 95.6794C244.738 94.9687 244.818 94.2008 245.135 93.3756C245.456 92.5375 245.972 91.8851 246.684 91.4184C247.408 90.9567 248.258 90.706 249.235 90.6663C250.224 90.6316 251.28 90.8292 252.402 91.2593C253.33 91.6153 254.102 92.0517 254.717 92.5686C255.345 93.0904 255.827 93.6451 256.164 94.2327C256.506 94.8074 256.719 95.3698 256.804 95.9199C256.889 96.4701 256.858 96.9539 256.713 97.3715C256.669 97.4875 256.584 97.5733 256.459 97.629C256.352 97.6767 256.247 97.6808 256.144 97.6412L252.914 96.4028C252.759 96.3435 252.634 96.2658 252.538 96.1697C252.454 96.0786 252.39 95.9577 252.344 95.8071C252.349 95.6018 252.249 95.3789 252.046 95.1382C251.842 94.8974 251.541 94.7005 251.141 94.5472C250.703 94.3791 250.338 94.3279 250.046 94.3937C249.76 94.4465 249.562 94.6148 249.453 94.8984C249.379 95.0918 249.386 95.2866 249.473 95.4829C249.561 95.6791 249.763 95.9044 250.079 96.1589C250.401 96.4004 250.859 96.7093 251.454 97.0854C252.61 97.7356 253.498 98.3717 254.117 98.9936C254.749 99.6205 255.135 100.272 255.276 100.947C255.416 101.622 255.331 102.365 255.019 103.177C254.668 104.093 254.102 104.778 253.322 105.233C252.541 105.688 251.617 105.918 250.55 105.923C249.501 105.92 248.384 105.691 247.198 105.236Z" stroke="#DA009E" stroke-width="2" mask="url(#path-5-outside-1_285_351)"/>
        <path d="M258.428 109.321C258.287 109.266 258.181 109.174 258.113 109.044C258.062 108.907 258.064 108.767 258.118 108.625L261.737 99.1869L258.411 97.9114C258.269 97.857 258.164 97.7649 258.095 97.6351C258.044 97.4974 258.046 97.3576 258.101 97.2157L259.094 94.6241C259.149 94.4823 259.238 94.3836 259.363 94.3279C259.506 94.2643 259.648 94.2597 259.79 94.3141L270.659 98.4817C270.801 98.536 270.897 98.6321 270.948 98.7699C271.017 98.8997 271.024 99.0355 270.969 99.1773L269.976 101.769C269.921 101.911 269.823 102.013 269.68 102.077C269.555 102.133 269.422 102.133 269.28 102.079L265.953 100.803L262.335 110.242C262.28 110.383 262.182 110.486 262.039 110.55C261.914 110.605 261.781 110.606 261.639 110.552L258.428 109.321Z" stroke="#DA009E" stroke-width="2" mask="url(#path-5-outside-1_285_351)"/>
      </g>
      <g filter="url(#filter3_d_285_351)">
        <mask id="path-6-outside-2_285_351" maskUnits="userSpaceOnUse" x="208.254" y="49.6228" width="61.4425" height="50.8521" fill="black">
          <rect fill="white" x="208.254" y="49.6228" width="61.4425" height="50.8521"/>
          <path d="M217.604 76.0931C217.442 76.031 217.322 75.9257 217.244 75.7774C217.186 75.62 217.188 75.4602 217.25 75.2981L220.979 65.5727L217.402 66.6352C217.215 66.6818 217.054 66.6622 216.918 66.5762C216.802 66.4812 216.714 66.3374 216.652 66.1448L215.844 63.4263C215.821 63.2654 215.848 63.1068 215.925 62.9503C216.017 62.7996 216.153 62.7082 216.334 62.6763L223.102 60.6315C223.198 60.6008 223.286 60.5922 223.365 60.6057C223.45 60.6045 223.544 60.6237 223.647 60.6632L227.117 61.9938C227.28 62.0559 227.397 62.1686 227.47 62.3316C227.548 62.48 227.556 62.6352 227.494 62.7973L222.002 77.1202C221.94 77.2823 221.827 77.3997 221.664 77.4724C221.507 77.5303 221.347 77.5282 221.185 77.4661L217.604 76.0931Z"/>
          <path d="M224.751 78.8335C224.589 78.7713 224.469 78.6661 224.391 78.5177C224.333 78.3603 224.335 78.2005 224.397 78.0384L225.668 74.723C225.73 74.5609 225.835 74.4407 225.984 74.3623C226.147 74.2896 226.309 74.2844 226.472 74.3465L229.787 75.6178C229.949 75.6799 230.067 75.7925 230.139 75.9556C230.212 76.1187 230.217 76.2813 230.155 76.4434L228.884 79.7589C228.822 79.921 228.709 80.0384 228.546 80.111C228.388 80.169 228.229 80.1669 228.067 80.1047L224.751 78.8335Z"/>
          <path d="M236.936 83.8096C235.462 83.2446 234.316 82.5518 233.499 81.7311C232.686 80.8958 232.168 80.021 231.944 79.1069C231.726 78.178 231.763 77.288 232.055 76.4368C232.106 76.3041 232.193 76.2106 232.315 76.1561C232.458 76.0925 232.595 76.0861 232.728 76.1369L236.419 77.5523C236.64 77.637 236.793 77.7462 236.877 77.8798C236.961 78.0134 237.008 78.1329 237.018 78.2383C237.07 78.5453 237.142 78.8183 237.237 79.0572C237.337 79.2815 237.48 79.4802 237.667 79.6533C237.86 79.8118 238.104 79.9475 238.398 80.0605C238.723 80.1848 239.05 80.2343 239.381 80.209C239.717 80.169 240.018 80.0475 240.281 79.8444C240.566 79.6322 240.784 79.3272 240.936 78.9293C241.066 78.5904 241.098 78.2646 241.032 77.952C240.987 77.6302 240.855 77.3346 240.637 77.0652C240.434 76.8014 240.148 76.5989 239.78 76.4576C239.485 76.3446 239.228 76.2883 239.008 76.2885C238.809 76.2796 238.633 76.2968 238.481 76.34C238.329 76.3832 238.188 76.4219 238.056 76.456C237.945 76.4811 237.831 76.471 237.713 76.4258L234.066 75.0274C233.933 74.9766 233.833 74.8872 233.763 74.7592C233.714 74.6222 233.715 74.4873 233.766 74.3547L237.615 66.8301C237.735 66.6056 237.891 66.4627 238.083 66.4013C238.291 66.3456 238.49 66.3544 238.682 66.4279L248.054 70.0213C248.216 70.0834 248.326 70.1932 248.384 70.3507C248.462 70.499 248.47 70.6542 248.408 70.8163L247.408 73.4245C247.351 73.5719 247.242 73.6819 247.078 73.7546C246.93 73.8329 246.775 73.841 246.613 73.7788L240.181 71.3126L239.112 73.4382C239.577 73.3289 240.038 73.2945 240.496 73.3348C240.974 73.366 241.589 73.5257 242.34 73.8139C243.033 74.0794 243.648 74.4589 244.185 74.9524C244.743 75.4367 245.185 76.0034 245.511 76.6523C245.857 77.2921 246.059 77.9779 246.117 78.7098C246.174 79.4417 246.059 80.1834 245.77 80.9349C245.386 81.9369 244.778 82.7517 243.946 83.3791C243.114 84.0066 242.101 84.3787 240.907 84.4955C239.718 84.5976 238.394 84.3689 236.936 83.8096Z"/>
          <path d="M245.06 86.6205C244.927 86.5696 244.834 86.4831 244.779 86.3607C244.731 86.2237 244.732 86.0889 244.782 85.9562C244.794 85.9268 244.805 85.8973 244.816 85.8678C244.848 85.8293 244.89 85.7862 244.942 85.7385L252.426 80.3686L250.735 71.8861C250.71 71.7751 250.712 71.6827 250.74 71.609C250.791 71.4764 250.877 71.3828 251 71.3283C251.142 71.2647 251.28 71.2584 251.413 71.3092L255.413 72.8432C255.664 72.9392 255.83 73.079 255.912 73.2625C255.993 73.4459 256.042 73.583 256.058 73.6736L256.87 77.8384L260.324 75.3093C260.411 75.2582 260.547 75.1918 260.73 75.11C260.914 75.0283 261.131 75.0354 261.381 75.1314L265.183 76.5891C265.316 76.64 265.406 76.7339 265.455 76.871C265.524 76.999 265.534 77.1292 265.483 77.2619C265.449 77.3503 265.396 77.4228 265.323 77.4796L258.323 82.5788L260.348 91.6456C260.355 91.7159 260.35 91.7731 260.333 91.8173C260.336 91.8524 260.332 91.8847 260.321 91.9142C260.27 92.0468 260.173 92.1449 260.031 92.2085C259.908 92.263 259.788 92.2677 259.67 92.2225L255.515 90.6292C255.264 90.5331 255.095 90.4007 255.008 90.232C254.926 90.0485 254.885 89.9143 254.884 89.8293L253.834 85.2942L250.087 87.9902C250.029 88.0526 249.909 88.1247 249.725 88.2065C249.548 88.2735 249.333 88.259 249.083 88.1629L245.06 86.6205Z"/>
        </mask>
        <path d="M217.604 76.0931C217.442 76.031 217.322 75.9257 217.244 75.7774C217.186 75.62 217.188 75.4602 217.25 75.2981L220.979 65.5727L217.402 66.6352C217.215 66.6818 217.054 66.6622 216.918 66.5762C216.802 66.4812 216.714 66.3374 216.652 66.1448L215.844 63.4263C215.821 63.2654 215.848 63.1068 215.925 62.9503C216.017 62.7996 216.153 62.7082 216.334 62.6763L223.102 60.6315C223.198 60.6008 223.286 60.5922 223.365 60.6057C223.45 60.6045 223.544 60.6237 223.647 60.6632L227.117 61.9938C227.28 62.0559 227.397 62.1686 227.47 62.3316C227.548 62.48 227.556 62.6352 227.494 62.7973L222.002 77.1202C221.94 77.2823 221.827 77.3997 221.664 77.4724C221.507 77.5303 221.347 77.5282 221.185 77.4661L217.604 76.0931Z" fill="white"/>
        <path d="M224.751 78.8335C224.589 78.7713 224.469 78.6661 224.391 78.5177C224.333 78.3603 224.335 78.2005 224.397 78.0384L225.668 74.723C225.73 74.5609 225.835 74.4407 225.984 74.3623C226.147 74.2896 226.309 74.2844 226.472 74.3465L229.787 75.6178C229.949 75.6799 230.067 75.7925 230.139 75.9556C230.212 76.1187 230.217 76.2813 230.155 76.4434L228.884 79.7589C228.822 79.921 228.709 80.0384 228.546 80.111C228.388 80.169 228.229 80.1669 228.067 80.1047L224.751 78.8335Z" fill="white"/>
        <path d="M236.936 83.8096C235.462 83.2446 234.316 82.5518 233.499 81.7311C232.686 80.8958 232.168 80.021 231.944 79.1069C231.726 78.178 231.763 77.288 232.055 76.4368C232.106 76.3041 232.193 76.2106 232.315 76.1561C232.458 76.0925 232.595 76.0861 232.728 76.1369L236.419 77.5523C236.64 77.637 236.793 77.7462 236.877 77.8798C236.961 78.0134 237.008 78.1329 237.018 78.2383C237.07 78.5453 237.142 78.8183 237.237 79.0572C237.337 79.2815 237.48 79.4802 237.667 79.6533C237.86 79.8118 238.104 79.9475 238.398 80.0605C238.723 80.1848 239.05 80.2343 239.381 80.209C239.717 80.169 240.018 80.0475 240.281 79.8444C240.566 79.6322 240.784 79.3272 240.936 78.9293C241.066 78.5904 241.098 78.2646 241.032 77.952C240.987 77.6302 240.855 77.3346 240.637 77.0652C240.434 76.8014 240.148 76.5989 239.78 76.4576C239.485 76.3446 239.228 76.2883 239.008 76.2885C238.809 76.2796 238.633 76.2968 238.481 76.34C238.329 76.3832 238.188 76.4219 238.056 76.456C237.945 76.4811 237.831 76.471 237.713 76.4258L234.066 75.0274C233.933 74.9766 233.833 74.8872 233.763 74.7592C233.714 74.6222 233.715 74.4873 233.766 74.3547L237.615 66.8301C237.735 66.6056 237.891 66.4627 238.083 66.4013C238.291 66.3456 238.49 66.3544 238.682 66.4279L248.054 70.0213C248.216 70.0834 248.326 70.1932 248.384 70.3507C248.462 70.499 248.47 70.6542 248.408 70.8163L247.408 73.4245C247.351 73.5719 247.242 73.6819 247.078 73.7546C246.93 73.8329 246.775 73.841 246.613 73.7788L240.181 71.3126L239.112 73.4382C239.577 73.3289 240.038 73.2945 240.496 73.3348C240.974 73.366 241.589 73.5257 242.34 73.8139C243.033 74.0794 243.648 74.4589 244.185 74.9524C244.743 75.4367 245.185 76.0034 245.511 76.6523C245.857 77.2921 246.059 77.9779 246.117 78.7098C246.174 79.4417 246.059 80.1834 245.77 80.9349C245.386 81.9369 244.778 82.7517 243.946 83.3791C243.114 84.0066 242.101 84.3787 240.907 84.4955C239.718 84.5976 238.394 84.3689 236.936 83.8096Z" fill="white"/>
        <path d="M245.06 86.6205C244.927 86.5696 244.834 86.4831 244.779 86.3607C244.731 86.2237 244.732 86.0889 244.782 85.9562C244.794 85.9268 244.805 85.8973 244.816 85.8678C244.848 85.8293 244.89 85.7862 244.942 85.7385L252.426 80.3686L250.735 71.8861C250.71 71.7751 250.712 71.6827 250.74 71.609C250.791 71.4764 250.877 71.3828 251 71.3283C251.142 71.2647 251.28 71.2584 251.413 71.3092L255.413 72.8432C255.664 72.9392 255.83 73.079 255.912 73.2625C255.993 73.4459 256.042 73.583 256.058 73.6736L256.87 77.8384L260.324 75.3093C260.411 75.2582 260.547 75.1918 260.73 75.11C260.914 75.0283 261.131 75.0354 261.381 75.1314L265.183 76.5891C265.316 76.64 265.406 76.7339 265.455 76.871C265.524 76.999 265.534 77.1292 265.483 77.2619C265.449 77.3503 265.396 77.4228 265.323 77.4796L258.323 82.5788L260.348 91.6456C260.355 91.7159 260.35 91.7731 260.333 91.8173C260.336 91.8524 260.332 91.8847 260.321 91.9142C260.27 92.0468 260.173 92.1449 260.031 92.2085C259.908 92.263 259.788 92.2677 259.67 92.2225L255.515 90.6292C255.264 90.5331 255.095 90.4007 255.008 90.232C254.926 90.0485 254.885 89.9143 254.884 89.8293L253.834 85.2942L250.087 87.9902C250.029 88.0526 249.909 88.1247 249.725 88.2065C249.548 88.2735 249.333 88.259 249.083 88.1629L245.06 86.6205Z" fill="white"/>
        <path d="M217.604 76.0931C217.442 76.031 217.322 75.9257 217.244 75.7774C217.186 75.62 217.188 75.4602 217.25 75.2981L220.979 65.5727L217.402 66.6352C217.215 66.6818 217.054 66.6622 216.918 66.5762C216.802 66.4812 216.714 66.3374 216.652 66.1448L215.844 63.4263C215.821 63.2654 215.848 63.1068 215.925 62.9503C216.017 62.7996 216.153 62.7082 216.334 62.6763L223.102 60.6315C223.198 60.6008 223.286 60.5922 223.365 60.6057C223.45 60.6045 223.544 60.6237 223.647 60.6632L227.117 61.9938C227.28 62.0559 227.397 62.1686 227.47 62.3316C227.548 62.48 227.556 62.6352 227.494 62.7973L222.002 77.1202C221.94 77.2823 221.827 77.3997 221.664 77.4724C221.507 77.5303 221.347 77.5282 221.185 77.4661L217.604 76.0931Z" stroke="#DA009E" stroke-width="2" mask="url(#path-6-outside-2_285_351)"/>
        <path d="M224.751 78.8335C224.589 78.7713 224.469 78.6661 224.391 78.5177C224.333 78.3603 224.335 78.2005 224.397 78.0384L225.668 74.723C225.73 74.5609 225.835 74.4407 225.984 74.3623C226.147 74.2896 226.309 74.2844 226.472 74.3465L229.787 75.6178C229.949 75.6799 230.067 75.7925 230.139 75.9556C230.212 76.1187 230.217 76.2813 230.155 76.4434L228.884 79.7589C228.822 79.921 228.709 80.0384 228.546 80.111C228.388 80.169 228.229 80.1669 228.067 80.1047L224.751 78.8335Z" stroke="#DA009E" stroke-width="2" mask="url(#path-6-outside-2_285_351)"/>
        <path d="M236.936 83.8096C235.462 83.2446 234.316 82.5518 233.499 81.7311C232.686 80.8958 232.168 80.021 231.944 79.1069C231.726 78.178 231.763 77.288 232.055 76.4368C232.106 76.3041 232.193 76.2106 232.315 76.1561C232.458 76.0925 232.595 76.0861 232.728 76.1369L236.419 77.5523C236.64 77.637 236.793 77.7462 236.877 77.8798C236.961 78.0134 237.008 78.1329 237.018 78.2383C237.07 78.5453 237.142 78.8183 237.237 79.0572C237.337 79.2815 237.48 79.4802 237.667 79.6533C237.86 79.8118 238.104 79.9475 238.398 80.0605C238.723 80.1848 239.05 80.2343 239.381 80.209C239.717 80.169 240.018 80.0475 240.281 79.8444C240.566 79.6322 240.784 79.3272 240.936 78.9293C241.066 78.5904 241.098 78.2646 241.032 77.952C240.987 77.6302 240.855 77.3346 240.637 77.0652C240.434 76.8014 240.148 76.5989 239.78 76.4576C239.485 76.3446 239.228 76.2883 239.008 76.2885C238.809 76.2796 238.633 76.2968 238.481 76.34C238.329 76.3832 238.188 76.4219 238.056 76.456C237.945 76.4811 237.831 76.471 237.713 76.4258L234.066 75.0274C233.933 74.9766 233.833 74.8872 233.763 74.7592C233.714 74.6222 233.715 74.4873 233.766 74.3547L237.615 66.8301C237.735 66.6056 237.891 66.4627 238.083 66.4013C238.291 66.3456 238.49 66.3544 238.682 66.4279L248.054 70.0213C248.216 70.0834 248.326 70.1932 248.384 70.3507C248.462 70.499 248.47 70.6542 248.408 70.8163L247.408 73.4245C247.351 73.5719 247.242 73.6819 247.078 73.7546C246.93 73.8329 246.775 73.841 246.613 73.7788L240.181 71.3126L239.112 73.4382C239.577 73.3289 240.038 73.2945 240.496 73.3348C240.974 73.366 241.589 73.5257 242.34 73.8139C243.033 74.0794 243.648 74.4589 244.185 74.9524C244.743 75.4367 245.185 76.0034 245.511 76.6523C245.857 77.2921 246.059 77.9779 246.117 78.7098C246.174 79.4417 246.059 80.1834 245.77 80.9349C245.386 81.9369 244.778 82.7517 243.946 83.3791C243.114 84.0066 242.101 84.3787 240.907 84.4955C239.718 84.5976 238.394 84.3689 236.936 83.8096Z" stroke="#DA009E" stroke-width="2" mask="url(#path-6-outside-2_285_351)"/>
        <path d="M245.06 86.6205C244.927 86.5696 244.834 86.4831 244.779 86.3607C244.731 86.2237 244.732 86.0889 244.782 85.9562C244.794 85.9268 244.805 85.8973 244.816 85.8678C244.848 85.8293 244.89 85.7862 244.942 85.7385L252.426 80.3686L250.735 71.8861C250.71 71.7751 250.712 71.6827 250.74 71.609C250.791 71.4764 250.877 71.3828 251 71.3283C251.142 71.2647 251.28 71.2584 251.413 71.3092L255.413 72.8432C255.664 72.9392 255.83 73.079 255.912 73.2625C255.993 73.4459 256.042 73.583 256.058 73.6736L256.87 77.8384L260.324 75.3093C260.411 75.2582 260.547 75.1918 260.73 75.11C260.914 75.0283 261.131 75.0354 261.381 75.1314L265.183 76.5891C265.316 76.64 265.406 76.7339 265.455 76.871C265.524 76.999 265.534 77.1292 265.483 77.2619C265.449 77.3503 265.396 77.4228 265.323 77.4796L258.323 82.5788L260.348 91.6456C260.355 91.7159 260.35 91.7731 260.333 91.8173C260.336 91.8524 260.332 91.8847 260.321 91.9142C260.27 92.0468 260.173 92.1449 260.031 92.2085C259.908 92.263 259.788 92.2677 259.67 92.2225L255.515 90.6292C255.264 90.5331 255.095 90.4007 255.008 90.232C254.926 90.0485 254.885 89.9143 254.884 89.8293L253.834 85.2942L250.087 87.9902C250.029 88.0526 249.909 88.1247 249.725 88.2065C249.548 88.2735 249.333 88.259 249.083 88.1629L245.06 86.6205Z" stroke="#DA009E" stroke-width="2" mask="url(#path-6-outside-2_285_351)"/>
      </g>
      <g filter="url(#filter4_d_285_351)">
        <path d="M103.306 32.2884C106.673 29.6347 111.201 28.979 115.182 30.5683L167.052 51.2717C171.034 52.861 173.866 56.4538 174.48 60.6967L182.485 115.969C183.1 120.212 181.404 124.461 178.037 127.114L134.172 161.683C130.805 164.337 126.278 164.993 122.296 163.403L70.4261 142.7C66.4444 141.111 63.613 137.518 62.9984 133.275L54.9931 78.0025C54.3786 73.7596 56.0743 69.5111 59.4415 66.8575L103.306 32.2884Z" fill="url(#paint3_linear_285_351)"/>
        <path d="M103.925 33.0738C107.012 30.6413 111.162 30.0402 114.812 31.4971L166.682 52.2005C170.332 53.6573 172.927 56.9507 173.49 60.84L181.496 116.113C182.059 120.002 180.505 123.896 177.418 126.329L133.553 160.898C130.467 163.33 126.317 163.932 122.667 162.475L70.7968 141.771C67.1469 140.314 64.5514 137.021 63.9881 133.132L55.9828 77.8592C55.4194 73.9698 56.9739 70.0754 60.0605 67.6429L103.925 33.0738Z" stroke="url(#paint4_linear_285_351)" stroke-width="2"/>
      </g>
      <g filter="url(#filter5_dd_285_351)">
        <mask id="path-9-outside-3_285_351" maskUnits="userSpaceOnUse" x="55.6211" y="87.4434" width="135" height="51" fill="black">
          <rect fill="white" x="55.6211" y="87.4434" width="135" height="51"/>
          <path d="M62.0098 137.226C61.7532 137.269 61.5071 137.218 61.2716 137.073C61.0317 136.903 60.8879 136.676 60.8404 136.394L56.6363 111.451C56.5888 111.169 56.6525 110.92 56.8275 110.706C56.9982 110.466 57.2119 110.325 57.4685 110.281L69.7475 108.212C72.0827 107.818 74.0464 107.804 75.6386 108.169C77.2307 108.534 78.4834 109.233 79.3965 110.267C80.3097 111.301 80.909 112.664 81.1945 114.358C81.3415 115.23 81.2938 116.043 81.0513 116.797C80.8302 117.52 80.5147 118.154 80.105 118.698C79.691 119.217 79.2831 119.615 78.8815 119.894C79.9558 120.162 80.9537 120.759 81.8752 121.685C82.7924 122.586 83.3635 123.704 83.5884 125.039C83.8912 126.835 83.7357 128.418 83.1222 129.788C82.5343 131.154 81.5246 132.287 80.093 133.189C78.6871 134.085 76.8807 134.72 74.6738 135.092L62.0098 137.226ZM68.3052 130.187L72.8088 129.428C73.6813 129.281 74.2796 128.917 74.6037 128.334C74.9235 127.726 75.0293 127.101 74.9211 126.46C74.8087 125.793 74.4933 125.252 73.9748 124.838C73.4521 124.398 72.7801 124.248 71.959 124.386L67.4554 125.145L68.3052 130.187ZM66.5017 119.487L70.6203 118.792C71.4415 118.654 72.0056 118.321 72.3127 117.795C72.6198 117.268 72.7214 116.697 72.6176 116.081C72.5138 115.465 72.2305 114.958 71.7677 114.561C71.305 114.164 70.663 114.035 69.8418 114.173L65.7231 114.868L66.5017 119.487Z"/>
          <path d="M100.365 131.157C97.9014 131.573 95.6938 131.549 93.7421 131.086C91.816 130.619 90.1972 129.704 88.8855 128.342C87.5952 126.949 86.717 125.105 86.2507 122.808C86.0434 121.735 85.8446 120.634 85.6543 119.505C85.4597 118.35 85.28 117.206 85.1154 116.072C84.8074 113.775 85.0348 111.758 85.7974 110.019C86.5857 108.277 87.8238 106.854 89.5117 105.752C91.1952 104.623 93.2559 103.854 95.6938 103.443C98.106 103.036 100.292 103.09 102.253 103.604C104.209 104.093 105.845 105.031 107.161 106.419C108.477 107.807 109.353 109.638 109.789 111.914C110.031 113.034 110.249 114.172 110.443 115.327C110.634 116.456 110.794 117.563 110.924 118.65C111.237 120.972 110.999 123.005 110.21 124.748C109.443 126.46 108.214 127.855 106.521 128.932C104.855 130.005 102.803 130.746 100.365 131.157ZM99.262 124.614C100.34 124.432 101.171 123.962 101.756 123.204C102.336 122.42 102.518 121.307 102.302 119.866C102.167 118.754 102.013 117.684 101.84 116.658C101.663 115.606 101.458 114.545 101.225 113.476C101.039 112.531 100.727 111.778 100.29 111.219C99.8782 110.655 99.3663 110.279 98.7542 110.092C98.1677 109.901 97.5152 109.865 96.7967 109.987C96.0782 110.108 95.4604 110.357 94.9434 110.734C94.4265 111.112 94.0531 111.637 93.8233 112.309C93.6191 112.976 93.5843 113.787 93.7186 114.741C93.8746 115.823 94.0413 116.89 94.2186 117.942C94.3916 118.969 94.5839 120.032 94.7956 121.131C95.0891 122.559 95.6257 123.551 96.4053 124.105C97.2063 124.63 98.1586 124.8 99.262 124.614Z"/>
          <path d="M128.332 126.444C125.868 126.859 123.661 126.835 121.709 126.372C119.783 125.905 118.164 124.99 116.853 123.628C115.562 122.236 114.684 120.391 114.218 118.095C114.01 117.021 113.812 115.92 113.621 114.791C113.427 113.636 113.247 112.492 113.082 111.359C112.774 109.062 113.002 107.044 113.764 105.306C114.553 103.563 115.791 102.14 117.479 101.038C119.162 99.9096 121.223 99.14 123.661 98.7292C126.073 98.3226 128.259 98.3764 130.22 98.8904C132.176 99.3789 133.812 100.317 135.128 101.705C136.444 103.093 137.32 104.925 137.756 107.2C137.998 108.32 138.216 109.458 138.41 110.613C138.601 111.742 138.761 112.85 138.891 113.936C139.204 116.259 138.966 118.291 138.177 120.034C137.41 121.747 136.181 123.141 134.489 124.218C132.822 125.291 130.77 126.033 128.332 126.444ZM127.229 119.9C128.307 119.718 129.138 119.248 129.723 118.49C130.303 117.706 130.485 116.593 130.269 115.152C130.134 114.04 129.98 112.971 129.807 111.944C129.63 110.892 129.425 109.831 129.192 108.762C129.006 107.817 128.694 107.065 128.257 106.505C127.845 105.941 127.333 105.565 126.721 105.378C126.135 105.187 125.482 105.152 124.764 105.273C124.045 105.394 123.427 105.643 122.91 106.021C122.393 106.398 122.02 106.923 121.79 107.595C121.586 108.263 121.551 109.074 121.686 110.027C121.842 111.109 122.008 112.177 122.186 113.229C122.359 114.255 122.551 115.318 122.763 116.417C123.056 117.845 123.593 118.837 124.372 119.392C125.173 119.916 126.126 120.086 127.229 119.9Z"/>
          <path d="M155.337 121.892C152.642 122.346 150.334 122.353 148.412 121.911C146.512 121.44 145.011 120.677 143.91 119.622C142.83 118.537 142.149 117.319 141.869 115.968C141.83 115.737 141.874 115.531 142.002 115.351C142.13 115.172 142.31 115.062 142.541 115.023L148.661 113.992C149.02 113.931 149.313 113.948 149.54 114.041C149.763 114.109 150.007 114.227 150.273 114.393C150.551 114.636 150.866 114.86 151.217 115.065C151.564 115.244 151.994 115.37 152.508 115.441C153.017 115.488 153.592 115.457 154.234 115.348C155.414 115.149 156.299 114.842 156.889 114.426C157.474 113.984 157.719 113.481 157.624 112.916C157.551 112.48 157.31 112.151 156.904 111.929C156.522 111.703 155.902 111.544 155.042 111.452C154.182 111.359 153.024 111.303 151.57 111.285C149.537 111.284 147.749 111.084 146.204 110.685C144.654 110.26 143.401 109.56 142.446 108.587C141.511 107.583 140.905 106.26 140.629 104.618C140.347 102.95 140.561 101.396 141.268 99.9576C142.001 98.5145 143.142 97.2931 144.688 96.2935C146.261 95.2895 148.164 94.5993 150.396 94.2231C152.244 93.9116 153.914 93.8808 155.408 94.1305C156.927 94.3758 158.241 94.8141 159.351 95.4452C160.455 96.0507 161.34 96.7593 162.005 97.571C162.669 98.3826 163.084 99.1969 163.248 100.014C163.287 100.245 163.232 100.465 163.082 100.675C162.954 100.855 162.787 100.962 162.582 100.997L156.154 102.08C155.846 102.132 155.568 102.126 155.32 102.062C155.097 101.994 154.877 101.86 154.658 101.659C154.469 101.322 154.094 101.055 153.533 100.859C152.973 100.664 152.295 100.633 151.499 100.767C150.627 100.914 149.985 101.18 149.575 101.566C149.161 101.926 149.001 102.388 149.096 102.953C149.161 103.338 149.359 103.648 149.689 103.882C150.018 104.117 150.562 104.289 151.32 104.399C152.073 104.483 153.112 104.546 154.439 104.586C156.937 104.534 158.987 104.717 160.588 105.133C162.214 105.545 163.465 106.232 164.339 107.193C165.214 108.154 165.787 109.443 166.06 111.059C166.367 112.881 166.104 114.535 165.273 116.021C164.441 117.507 163.162 118.765 161.436 119.795C159.731 120.795 157.698 121.494 155.337 121.892Z"/>
          <path d="M177.476 117.765C177.194 117.812 176.935 117.764 176.699 117.619C176.485 117.444 176.354 117.215 176.307 116.933L173.141 98.1484L166.52 99.2643C166.238 99.3118 165.979 99.2631 165.743 99.1181C165.529 98.9431 165.398 98.7144 165.351 98.4321L164.481 93.2742C164.434 92.9919 164.484 92.7458 164.634 92.5359C164.805 92.296 165.031 92.1523 165.313 92.1047L186.946 88.4586C187.228 88.411 187.476 88.4748 187.691 88.6498C187.926 88.7948 188.068 89.0085 188.115 89.2907L188.985 94.4487C189.032 94.731 188.971 94.9921 188.8 95.232C188.651 95.4419 188.435 95.5706 188.153 95.6182L181.532 96.7341L184.698 115.518C184.746 115.801 184.684 116.062 184.513 116.302C184.364 116.511 184.148 116.64 183.866 116.688L177.476 117.765Z"/>
        </mask>
        <path d="M62.0098 137.226C61.7532 137.269 61.5071 137.218 61.2716 137.073C61.0317 136.903 60.8879 136.676 60.8404 136.394L56.6363 111.451C56.5888 111.169 56.6525 110.92 56.8275 110.706C56.9982 110.466 57.2119 110.325 57.4685 110.281L69.7475 108.212C72.0827 107.818 74.0464 107.804 75.6386 108.169C77.2307 108.534 78.4834 109.233 79.3965 110.267C80.3097 111.301 80.909 112.664 81.1945 114.358C81.3415 115.23 81.2938 116.043 81.0513 116.797C80.8302 117.52 80.5147 118.154 80.105 118.698C79.691 119.217 79.2831 119.615 78.8815 119.894C79.9558 120.162 80.9537 120.759 81.8752 121.685C82.7924 122.586 83.3635 123.704 83.5884 125.039C83.8912 126.835 83.7357 128.418 83.1222 129.788C82.5343 131.154 81.5246 132.287 80.093 133.189C78.6871 134.085 76.8807 134.72 74.6738 135.092L62.0098 137.226ZM68.3052 130.187L72.8088 129.428C73.6813 129.281 74.2796 128.917 74.6037 128.334C74.9235 127.726 75.0293 127.101 74.9211 126.46C74.8087 125.793 74.4933 125.252 73.9748 124.838C73.4521 124.398 72.7801 124.248 71.959 124.386L67.4554 125.145L68.3052 130.187ZM66.5017 119.487L70.6203 118.792C71.4415 118.654 72.0056 118.321 72.3127 117.795C72.6198 117.268 72.7214 116.697 72.6176 116.081C72.5138 115.465 72.2305 114.958 71.7677 114.561C71.305 114.164 70.663 114.035 69.8418 114.173L65.7231 114.868L66.5017 119.487Z" fill="white"/>
        <path d="M100.365 131.157C97.9014 131.573 95.6938 131.549 93.7421 131.086C91.816 130.619 90.1972 129.704 88.8855 128.342C87.5952 126.949 86.717 125.105 86.2507 122.808C86.0434 121.735 85.8446 120.634 85.6543 119.505C85.4597 118.35 85.28 117.206 85.1154 116.072C84.8074 113.775 85.0348 111.758 85.7974 110.019C86.5857 108.277 87.8238 106.854 89.5117 105.752C91.1952 104.623 93.2559 103.854 95.6938 103.443C98.106 103.036 100.292 103.09 102.253 103.604C104.209 104.093 105.845 105.031 107.161 106.419C108.477 107.807 109.353 109.638 109.789 111.914C110.031 113.034 110.249 114.172 110.443 115.327C110.634 116.456 110.794 117.563 110.924 118.65C111.237 120.972 110.999 123.005 110.21 124.748C109.443 126.46 108.214 127.855 106.521 128.932C104.855 130.005 102.803 130.746 100.365 131.157ZM99.262 124.614C100.34 124.432 101.171 123.962 101.756 123.204C102.336 122.42 102.518 121.307 102.302 119.866C102.167 118.754 102.013 117.684 101.84 116.658C101.663 115.606 101.458 114.545 101.225 113.476C101.039 112.531 100.727 111.778 100.29 111.219C99.8782 110.655 99.3663 110.279 98.7542 110.092C98.1677 109.901 97.5152 109.865 96.7967 109.987C96.0782 110.108 95.4604 110.357 94.9434 110.734C94.4265 111.112 94.0531 111.637 93.8233 112.309C93.6191 112.976 93.5843 113.787 93.7186 114.741C93.8746 115.823 94.0413 116.89 94.2186 117.942C94.3916 118.969 94.5839 120.032 94.7956 121.131C95.0891 122.559 95.6257 123.551 96.4053 124.105C97.2063 124.63 98.1586 124.8 99.262 124.614Z" fill="white"/>
        <path d="M128.332 126.444C125.868 126.859 123.661 126.835 121.709 126.372C119.783 125.905 118.164 124.99 116.853 123.628C115.562 122.236 114.684 120.391 114.218 118.095C114.01 117.021 113.812 115.92 113.621 114.791C113.427 113.636 113.247 112.492 113.082 111.359C112.774 109.062 113.002 107.044 113.764 105.306C114.553 103.563 115.791 102.14 117.479 101.038C119.162 99.9096 121.223 99.14 123.661 98.7292C126.073 98.3226 128.259 98.3764 130.22 98.8904C132.176 99.3789 133.812 100.317 135.128 101.705C136.444 103.093 137.32 104.925 137.756 107.2C137.998 108.32 138.216 109.458 138.41 110.613C138.601 111.742 138.761 112.85 138.891 113.936C139.204 116.259 138.966 118.291 138.177 120.034C137.41 121.747 136.181 123.141 134.489 124.218C132.822 125.291 130.77 126.033 128.332 126.444ZM127.229 119.9C128.307 119.718 129.138 119.248 129.723 118.49C130.303 117.706 130.485 116.593 130.269 115.152C130.134 114.04 129.98 112.971 129.807 111.944C129.63 110.892 129.425 109.831 129.192 108.762C129.006 107.817 128.694 107.065 128.257 106.505C127.845 105.941 127.333 105.565 126.721 105.378C126.135 105.187 125.482 105.152 124.764 105.273C124.045 105.394 123.427 105.643 122.91 106.021C122.393 106.398 122.02 106.923 121.79 107.595C121.586 108.263 121.551 109.074 121.686 110.027C121.842 111.109 122.008 112.177 122.186 113.229C122.359 114.255 122.551 115.318 122.763 116.417C123.056 117.845 123.593 118.837 124.372 119.392C125.173 119.916 126.126 120.086 127.229 119.9Z" fill="white"/>
        <path d="M155.337 121.892C152.642 122.346 150.334 122.353 148.412 121.911C146.512 121.44 145.011 120.677 143.91 119.622C142.83 118.537 142.149 117.319 141.869 115.968C141.83 115.737 141.874 115.531 142.002 115.351C142.13 115.172 142.31 115.062 142.541 115.023L148.661 113.992C149.02 113.931 149.313 113.948 149.54 114.041C149.763 114.109 150.007 114.227 150.273 114.393C150.551 114.636 150.866 114.86 151.217 115.065C151.564 115.244 151.994 115.37 152.508 115.441C153.017 115.488 153.592 115.457 154.234 115.348C155.414 115.149 156.299 114.842 156.889 114.426C157.474 113.984 157.719 113.481 157.624 112.916C157.551 112.48 157.31 112.151 156.904 111.929C156.522 111.703 155.902 111.544 155.042 111.452C154.182 111.359 153.024 111.303 151.57 111.285C149.537 111.284 147.749 111.084 146.204 110.685C144.654 110.26 143.401 109.56 142.446 108.587C141.511 107.583 140.905 106.26 140.629 104.618C140.347 102.95 140.561 101.396 141.268 99.9576C142.001 98.5145 143.142 97.2931 144.688 96.2935C146.261 95.2895 148.164 94.5993 150.396 94.2231C152.244 93.9116 153.914 93.8808 155.408 94.1305C156.927 94.3758 158.241 94.8141 159.351 95.4452C160.455 96.0507 161.34 96.7593 162.005 97.571C162.669 98.3826 163.084 99.1969 163.248 100.014C163.287 100.245 163.232 100.465 163.082 100.675C162.954 100.855 162.787 100.962 162.582 100.997L156.154 102.08C155.846 102.132 155.568 102.126 155.32 102.062C155.097 101.994 154.877 101.86 154.658 101.659C154.469 101.322 154.094 101.055 153.533 100.859C152.973 100.664 152.295 100.633 151.499 100.767C150.627 100.914 149.985 101.18 149.575 101.566C149.161 101.926 149.001 102.388 149.096 102.953C149.161 103.338 149.359 103.648 149.689 103.882C150.018 104.117 150.562 104.289 151.32 104.399C152.073 104.483 153.112 104.546 154.439 104.586C156.937 104.534 158.987 104.717 160.588 105.133C162.214 105.545 163.465 106.232 164.339 107.193C165.214 108.154 165.787 109.443 166.06 111.059C166.367 112.881 166.104 114.535 165.273 116.021C164.441 117.507 163.162 118.765 161.436 119.795C159.731 120.795 157.698 121.494 155.337 121.892Z" fill="white"/>
        <path d="M177.476 117.765C177.194 117.812 176.935 117.764 176.699 117.619C176.485 117.444 176.354 117.215 176.307 116.933L173.141 98.1484L166.52 99.2643C166.238 99.3118 165.979 99.2631 165.743 99.1181C165.529 98.9431 165.398 98.7144 165.351 98.4321L164.481 93.2742C164.434 92.9919 164.484 92.7458 164.634 92.5359C164.805 92.296 165.031 92.1523 165.313 92.1047L186.946 88.4586C187.228 88.411 187.476 88.4748 187.691 88.6498C187.926 88.7948 188.068 89.0085 188.115 89.2907L188.985 94.4487C189.032 94.731 188.971 94.9921 188.8 95.232C188.651 95.4419 188.435 95.5706 188.153 95.6182L181.532 96.7341L184.698 115.518C184.746 115.801 184.684 116.062 184.513 116.302C184.364 116.511 184.148 116.64 183.866 116.688L177.476 117.765Z" fill="white"/>
        <path d="M62.0098 137.226C61.7532 137.269 61.5071 137.218 61.2716 137.073C61.0317 136.903 60.8879 136.676 60.8404 136.394L56.6363 111.451C56.5888 111.169 56.6525 110.92 56.8275 110.706C56.9982 110.466 57.2119 110.325 57.4685 110.281L69.7475 108.212C72.0827 107.818 74.0464 107.804 75.6386 108.169C77.2307 108.534 78.4834 109.233 79.3965 110.267C80.3097 111.301 80.909 112.664 81.1945 114.358C81.3415 115.23 81.2938 116.043 81.0513 116.797C80.8302 117.52 80.5147 118.154 80.105 118.698C79.691 119.217 79.2831 119.615 78.8815 119.894C79.9558 120.162 80.9537 120.759 81.8752 121.685C82.7924 122.586 83.3635 123.704 83.5884 125.039C83.8912 126.835 83.7357 128.418 83.1222 129.788C82.5343 131.154 81.5246 132.287 80.093 133.189C78.6871 134.085 76.8807 134.72 74.6738 135.092L62.0098 137.226ZM68.3052 130.187L72.8088 129.428C73.6813 129.281 74.2796 128.917 74.6037 128.334C74.9235 127.726 75.0293 127.101 74.9211 126.46C74.8087 125.793 74.4933 125.252 73.9748 124.838C73.4521 124.398 72.7801 124.248 71.959 124.386L67.4554 125.145L68.3052 130.187ZM66.5017 119.487L70.6203 118.792C71.4415 118.654 72.0056 118.321 72.3127 117.795C72.6198 117.268 72.7214 116.697 72.6176 116.081C72.5138 115.465 72.2305 114.958 71.7677 114.561C71.305 114.164 70.663 114.035 69.8418 114.173L65.7231 114.868L66.5017 119.487Z" stroke="#DA009E" stroke-width="2" mask="url(#path-9-outside-3_285_351)"/>
        <path d="M100.365 131.157C97.9014 131.573 95.6938 131.549 93.7421 131.086C91.816 130.619 90.1972 129.704 88.8855 128.342C87.5952 126.949 86.717 125.105 86.2507 122.808C86.0434 121.735 85.8446 120.634 85.6543 119.505C85.4597 118.35 85.28 117.206 85.1154 116.072C84.8074 113.775 85.0348 111.758 85.7974 110.019C86.5857 108.277 87.8238 106.854 89.5117 105.752C91.1952 104.623 93.2559 103.854 95.6938 103.443C98.106 103.036 100.292 103.09 102.253 103.604C104.209 104.093 105.845 105.031 107.161 106.419C108.477 107.807 109.353 109.638 109.789 111.914C110.031 113.034 110.249 114.172 110.443 115.327C110.634 116.456 110.794 117.563 110.924 118.65C111.237 120.972 110.999 123.005 110.21 124.748C109.443 126.46 108.214 127.855 106.521 128.932C104.855 130.005 102.803 130.746 100.365 131.157ZM99.262 124.614C100.34 124.432 101.171 123.962 101.756 123.204C102.336 122.42 102.518 121.307 102.302 119.866C102.167 118.754 102.013 117.684 101.84 116.658C101.663 115.606 101.458 114.545 101.225 113.476C101.039 112.531 100.727 111.778 100.29 111.219C99.8782 110.655 99.3663 110.279 98.7542 110.092C98.1677 109.901 97.5152 109.865 96.7967 109.987C96.0782 110.108 95.4604 110.357 94.9434 110.734C94.4265 111.112 94.0531 111.637 93.8233 112.309C93.6191 112.976 93.5843 113.787 93.7186 114.741C93.8746 115.823 94.0413 116.89 94.2186 117.942C94.3916 118.969 94.5839 120.032 94.7956 121.131C95.0891 122.559 95.6257 123.551 96.4053 124.105C97.2063 124.63 98.1586 124.8 99.262 124.614Z" stroke="#DA009E" stroke-width="2" mask="url(#path-9-outside-3_285_351)"/>
        <path d="M128.332 126.444C125.868 126.859 123.661 126.835 121.709 126.372C119.783 125.905 118.164 124.99 116.853 123.628C115.562 122.236 114.684 120.391 114.218 118.095C114.01 117.021 113.812 115.92 113.621 114.791C113.427 113.636 113.247 112.492 113.082 111.359C112.774 109.062 113.002 107.044 113.764 105.306C114.553 103.563 115.791 102.14 117.479 101.038C119.162 99.9096 121.223 99.14 123.661 98.7292C126.073 98.3226 128.259 98.3764 130.22 98.8904C132.176 99.3789 133.812 100.317 135.128 101.705C136.444 103.093 137.32 104.925 137.756 107.2C137.998 108.32 138.216 109.458 138.41 110.613C138.601 111.742 138.761 112.85 138.891 113.936C139.204 116.259 138.966 118.291 138.177 120.034C137.41 121.747 136.181 123.141 134.489 124.218C132.822 125.291 130.77 126.033 128.332 126.444ZM127.229 119.9C128.307 119.718 129.138 119.248 129.723 118.49C130.303 117.706 130.485 116.593 130.269 115.152C130.134 114.04 129.98 112.971 129.807 111.944C129.63 110.892 129.425 109.831 129.192 108.762C129.006 107.817 128.694 107.065 128.257 106.505C127.845 105.941 127.333 105.565 126.721 105.378C126.135 105.187 125.482 105.152 124.764 105.273C124.045 105.394 123.427 105.643 122.91 106.021C122.393 106.398 122.02 106.923 121.79 107.595C121.586 108.263 121.551 109.074 121.686 110.027C121.842 111.109 122.008 112.177 122.186 113.229C122.359 114.255 122.551 115.318 122.763 116.417C123.056 117.845 123.593 118.837 124.372 119.392C125.173 119.916 126.126 120.086 127.229 119.9Z" stroke="#DA009E" stroke-width="2" mask="url(#path-9-outside-3_285_351)"/>
        <path d="M155.337 121.892C152.642 122.346 150.334 122.353 148.412 121.911C146.512 121.44 145.011 120.677 143.91 119.622C142.83 118.537 142.149 117.319 141.869 115.968C141.83 115.737 141.874 115.531 142.002 115.351C142.13 115.172 142.31 115.062 142.541 115.023L148.661 113.992C149.02 113.931 149.313 113.948 149.54 114.041C149.763 114.109 150.007 114.227 150.273 114.393C150.551 114.636 150.866 114.86 151.217 115.065C151.564 115.244 151.994 115.37 152.508 115.441C153.017 115.488 153.592 115.457 154.234 115.348C155.414 115.149 156.299 114.842 156.889 114.426C157.474 113.984 157.719 113.481 157.624 112.916C157.551 112.48 157.31 112.151 156.904 111.929C156.522 111.703 155.902 111.544 155.042 111.452C154.182 111.359 153.024 111.303 151.57 111.285C149.537 111.284 147.749 111.084 146.204 110.685C144.654 110.26 143.401 109.56 142.446 108.587C141.511 107.583 140.905 106.26 140.629 104.618C140.347 102.95 140.561 101.396 141.268 99.9576C142.001 98.5145 143.142 97.2931 144.688 96.2935C146.261 95.2895 148.164 94.5993 150.396 94.2231C152.244 93.9116 153.914 93.8808 155.408 94.1305C156.927 94.3758 158.241 94.8141 159.351 95.4452C160.455 96.0507 161.34 96.7593 162.005 97.571C162.669 98.3826 163.084 99.1969 163.248 100.014C163.287 100.245 163.232 100.465 163.082 100.675C162.954 100.855 162.787 100.962 162.582 100.997L156.154 102.08C155.846 102.132 155.568 102.126 155.32 102.062C155.097 101.994 154.877 101.86 154.658 101.659C154.469 101.322 154.094 101.055 153.533 100.859C152.973 100.664 152.295 100.633 151.499 100.767C150.627 100.914 149.985 101.18 149.575 101.566C149.161 101.926 149.001 102.388 149.096 102.953C149.161 103.338 149.359 103.648 149.689 103.882C150.018 104.117 150.562 104.289 151.32 104.399C152.073 104.483 153.112 104.546 154.439 104.586C156.937 104.534 158.987 104.717 160.588 105.133C162.214 105.545 163.465 106.232 164.339 107.193C165.214 108.154 165.787 109.443 166.06 111.059C166.367 112.881 166.104 114.535 165.273 116.021C164.441 117.507 163.162 118.765 161.436 119.795C159.731 120.795 157.698 121.494 155.337 121.892Z" stroke="#DA009E" stroke-width="2" mask="url(#path-9-outside-3_285_351)"/>
        <path d="M177.476 117.765C177.194 117.812 176.935 117.764 176.699 117.619C176.485 117.444 176.354 117.215 176.307 116.933L173.141 98.1484L166.52 99.2643C166.238 99.3118 165.979 99.2631 165.743 99.1181C165.529 98.9431 165.398 98.7144 165.351 98.4321L164.481 93.2742C164.434 92.9919 164.484 92.7458 164.634 92.5359C164.805 92.296 165.031 92.1523 165.313 92.1047L186.946 88.4586C187.228 88.411 187.476 88.4748 187.691 88.6498C187.926 88.7948 188.068 89.0085 188.115 89.2907L188.985 94.4487C189.032 94.731 188.971 94.9921 188.8 95.232C188.651 95.4419 188.435 95.5706 188.153 95.6182L181.532 96.7341L184.698 115.518C184.746 115.801 184.684 116.062 184.513 116.302C184.364 116.511 184.148 116.64 183.866 116.688L177.476 117.765Z" stroke="#DA009E" stroke-width="2" mask="url(#path-9-outside-3_285_351)"/>
      </g>
      <g filter="url(#filter6_d_285_351)">
        <mask id="path-10-outside-4_285_351" maskUnits="userSpaceOnUse" x="62.082" y="57.157" width="103" height="47" fill="black">
          <rect fill="white" x="62.082" y="57.157" width="103" height="47"/>
          <path d="M79.395 102.934C79.0724 102.989 78.7765 102.933 78.5073 102.767C78.2625 102.567 78.1129 102.306 78.0585 101.983L74.7961 82.6273L70.009 87.7773C69.7503 88.032 69.4694 88.1547 69.1663 88.1455C68.8875 88.102 68.6061 87.9534 68.322 87.6997L64.4063 84.0618C64.2152 83.8225 64.1071 83.5392 64.082 83.2116C64.0863 82.8791 64.2203 82.6002 64.4839 82.3748L73.5089 72.5746C73.6358 72.4326 73.7701 72.3345 73.9118 72.2805C74.0485 72.1971 74.2196 72.1381 74.4248 72.1035L81.3315 70.9395C81.6541 70.8851 81.9524 70.9554 82.2266 71.1505C82.4958 71.3163 82.6576 71.5604 82.712 71.883L87.5166 100.389C87.571 100.712 87.5006 101.01 87.3055 101.284C87.1055 101.529 86.8442 101.679 86.5216 101.733L79.395 102.934Z"/>
          <path d="M93.6193 100.537C93.2967 100.591 93.0008 100.536 92.7316 100.37C92.4867 100.17 92.3371 99.9086 92.2828 99.586L91.1706 92.9873C91.1162 92.6647 91.1719 92.3688 91.3376 92.0996C91.5327 91.8254 91.7916 91.6612 92.1142 91.6068L98.7128 90.4946C99.0354 90.4402 99.3338 90.5106 99.608 90.7057C99.8821 90.9007 100.046 91.1596 100.101 91.4822L101.213 98.0808C101.267 98.4035 101.197 98.7018 101.002 98.976C100.802 99.2208 100.541 99.3704 100.218 99.4248L93.6193 100.537Z"/>
          <path d="M118.161 96.9435C115.228 97.4378 112.705 97.4106 110.592 96.862C108.474 96.284 106.795 95.3606 105.556 94.0916C104.311 92.7933 103.519 91.3132 103.179 89.6514C103.134 89.3875 103.185 89.1527 103.331 88.9471C103.502 88.7072 103.719 88.565 103.983 88.5205L111.33 87.2823C111.77 87.2082 112.122 87.2393 112.386 87.3757C112.65 87.5121 112.841 87.6609 112.959 87.822C113.336 88.2712 113.716 88.6445 114.098 88.9421C114.475 89.2103 114.898 89.3953 115.368 89.4972C115.832 89.5696 116.358 89.5565 116.944 89.4576C117.59 89.3489 118.169 89.1156 118.681 88.7577C119.189 88.3705 119.56 87.8858 119.793 87.3035C120.051 86.687 120.114 85.9828 119.98 85.1909C119.867 84.5164 119.606 83.957 119.2 83.5128C118.817 83.0344 118.321 82.6808 117.709 82.4521C117.127 82.2185 116.469 82.1635 115.736 82.287C115.149 82.3859 114.678 82.5408 114.321 82.7517C113.989 82.9283 113.72 83.1244 113.515 83.3399C113.311 83.5554 113.118 83.7538 112.937 83.935C112.781 84.082 112.586 84.1752 112.351 84.2148L105.092 85.4382C104.828 85.4826 104.579 85.4342 104.344 85.2928C104.134 85.1172 104.006 84.8974 103.961 84.6335L103.001 68.7349C102.981 68.2557 103.097 67.8741 103.351 67.5901C103.634 67.3011 103.966 67.1245 104.347 67.0602L123 63.9165C123.322 63.8621 123.606 63.9349 123.851 64.1349C124.12 64.3007 124.282 64.5449 124.336 64.8675L125.211 70.0584C125.261 70.3517 125.188 70.6354 124.993 70.9096C124.827 71.1788 124.583 71.3406 124.26 71.395L111.459 73.5526L111.76 78.0259C112.409 77.4037 113.125 76.9061 113.906 76.5331C114.712 76.1258 115.863 75.7961 117.359 75.544C118.737 75.3117 120.099 75.3386 121.444 75.6246C122.814 75.8763 124.074 76.3727 125.224 77.1138C126.399 77.8206 127.383 78.7405 128.177 79.8734C128.972 81.0063 129.495 82.3206 129.747 83.8163C130.083 85.8105 129.876 87.7153 129.126 89.5307C128.377 91.346 127.089 92.9203 125.263 94.2536C123.432 95.5575 121.064 96.4542 118.161 96.9435Z"/>
          <path d="M134.039 93.7244C133.775 93.7689 133.541 93.718 133.335 93.5717C133.124 93.396 132.997 93.1762 132.952 92.9123C132.942 92.8536 132.933 92.795 132.923 92.7363C132.937 92.6434 132.964 92.5333 133.003 92.4061L140.007 76.5223L129.138 64.3749C128.991 64.2187 128.905 64.0673 128.88 63.9206C128.836 63.6567 128.887 63.4219 129.033 63.2163C129.204 62.9764 129.421 62.8342 129.685 62.7897L137.647 61.4477C138.146 61.3636 138.549 61.4314 138.858 61.6508C139.166 61.8703 139.377 62.0459 139.49 62.1777L144.796 68.16L147.98 60.7467C148.072 60.5803 148.228 60.3429 148.448 60.0345C148.667 59.726 149.026 59.5298 149.525 59.4458L157.091 58.1705C157.355 58.126 157.593 58.1916 157.803 58.3672C158.038 58.5086 158.178 58.7112 158.222 58.9752C158.252 59.1511 158.235 59.3198 158.172 59.4813L151.694 74.4621L163.665 87.2382C163.743 87.3457 163.79 87.4434 163.804 87.5314C163.844 87.5851 163.868 87.6412 163.878 87.6999C163.923 87.9638 163.86 88.2158 163.689 88.4557C163.543 88.6613 163.352 88.7839 163.117 88.8234L154.847 90.2173C154.349 90.3014 153.948 90.2483 153.644 90.0582C153.336 89.8387 153.14 89.6606 153.056 89.5239L147.009 83.1689L143.51 91.1328C143.476 91.2893 143.35 91.5218 143.13 91.8302C142.906 92.1094 142.544 92.2909 142.046 92.375L134.039 93.7244Z"/>
        </mask>
        <path d="M79.395 102.934C79.0724 102.989 78.7765 102.933 78.5073 102.767C78.2625 102.567 78.1129 102.306 78.0585 101.983L74.7961 82.6273L70.009 87.7773C69.7503 88.032 69.4694 88.1547 69.1663 88.1455C68.8875 88.102 68.6061 87.9534 68.322 87.6997L64.4063 84.0618C64.2152 83.8225 64.1071 83.5392 64.082 83.2116C64.0863 82.8791 64.2203 82.6002 64.4839 82.3748L73.5089 72.5746C73.6358 72.4326 73.7701 72.3345 73.9118 72.2805C74.0485 72.1971 74.2196 72.1381 74.4248 72.1035L81.3315 70.9395C81.6541 70.8851 81.9524 70.9554 82.2266 71.1505C82.4958 71.3163 82.6576 71.5604 82.712 71.883L87.5166 100.389C87.571 100.712 87.5006 101.01 87.3055 101.284C87.1055 101.529 86.8442 101.679 86.5216 101.733L79.395 102.934Z" fill="white"/>
        <path d="M93.6193 100.537C93.2967 100.591 93.0008 100.536 92.7316 100.37C92.4867 100.17 92.3371 99.9086 92.2828 99.586L91.1706 92.9873C91.1162 92.6647 91.1719 92.3688 91.3376 92.0996C91.5327 91.8254 91.7916 91.6612 92.1142 91.6068L98.7128 90.4946C99.0354 90.4402 99.3338 90.5106 99.608 90.7057C99.8821 90.9007 100.046 91.1596 100.101 91.4822L101.213 98.0808C101.267 98.4035 101.197 98.7018 101.002 98.976C100.802 99.2208 100.541 99.3704 100.218 99.4248L93.6193 100.537Z" fill="white"/>
        <path d="M118.161 96.9435C115.228 97.4378 112.705 97.4106 110.592 96.862C108.474 96.284 106.795 95.3606 105.556 94.0916C104.311 92.7933 103.519 91.3132 103.179 89.6514C103.134 89.3875 103.185 89.1527 103.331 88.9471C103.502 88.7072 103.719 88.565 103.983 88.5205L111.33 87.2823C111.77 87.2082 112.122 87.2393 112.386 87.3757C112.65 87.5121 112.841 87.6609 112.959 87.822C113.336 88.2712 113.716 88.6445 114.098 88.9421C114.475 89.2103 114.898 89.3953 115.368 89.4972C115.832 89.5696 116.358 89.5565 116.944 89.4576C117.59 89.3489 118.169 89.1156 118.681 88.7577C119.189 88.3705 119.56 87.8858 119.793 87.3035C120.051 86.687 120.114 85.9828 119.98 85.1909C119.867 84.5164 119.606 83.957 119.2 83.5128C118.817 83.0344 118.321 82.6808 117.709 82.4521C117.127 82.2185 116.469 82.1635 115.736 82.287C115.149 82.3859 114.678 82.5408 114.321 82.7517C113.989 82.9283 113.72 83.1244 113.515 83.3399C113.311 83.5554 113.118 83.7538 112.937 83.935C112.781 84.082 112.586 84.1752 112.351 84.2148L105.092 85.4382C104.828 85.4826 104.579 85.4342 104.344 85.2928C104.134 85.1172 104.006 84.8974 103.961 84.6335L103.001 68.7349C102.981 68.2557 103.097 67.8741 103.351 67.5901C103.634 67.3011 103.966 67.1245 104.347 67.0602L123 63.9165C123.322 63.8621 123.606 63.9349 123.851 64.1349C124.12 64.3007 124.282 64.5449 124.336 64.8675L125.211 70.0584C125.261 70.3517 125.188 70.6354 124.993 70.9096C124.827 71.1788 124.583 71.3406 124.26 71.395L111.459 73.5526L111.76 78.0259C112.409 77.4037 113.125 76.9061 113.906 76.5331C114.712 76.1258 115.863 75.7961 117.359 75.544C118.737 75.3117 120.099 75.3386 121.444 75.6246C122.814 75.8763 124.074 76.3727 125.224 77.1138C126.399 77.8206 127.383 78.7405 128.177 79.8734C128.972 81.0063 129.495 82.3206 129.747 83.8163C130.083 85.8105 129.876 87.7153 129.126 89.5307C128.377 91.346 127.089 92.9203 125.263 94.2536C123.432 95.5575 121.064 96.4542 118.161 96.9435Z" fill="white"/>
        <path d="M134.039 93.7244C133.775 93.7689 133.541 93.718 133.335 93.5717C133.124 93.396 132.997 93.1762 132.952 92.9123C132.942 92.8536 132.933 92.795 132.923 92.7363C132.937 92.6434 132.964 92.5333 133.003 92.4061L140.007 76.5223L129.138 64.3749C128.991 64.2187 128.905 64.0673 128.88 63.9206C128.836 63.6567 128.887 63.4219 129.033 63.2163C129.204 62.9764 129.421 62.8342 129.685 62.7897L137.647 61.4477C138.146 61.3636 138.549 61.4314 138.858 61.6508C139.166 61.8703 139.377 62.0459 139.49 62.1777L144.796 68.16L147.98 60.7467C148.072 60.5803 148.228 60.3429 148.448 60.0345C148.667 59.726 149.026 59.5298 149.525 59.4458L157.091 58.1705C157.355 58.126 157.593 58.1916 157.803 58.3672C158.038 58.5086 158.178 58.7112 158.222 58.9752C158.252 59.1511 158.235 59.3198 158.172 59.4813L151.694 74.4621L163.665 87.2382C163.743 87.3457 163.79 87.4434 163.804 87.5314C163.844 87.5851 163.868 87.6412 163.878 87.6999C163.923 87.9638 163.86 88.2158 163.689 88.4557C163.543 88.6613 163.352 88.7839 163.117 88.8234L154.847 90.2173C154.349 90.3014 153.948 90.2483 153.644 90.0582C153.336 89.8387 153.14 89.6606 153.056 89.5239L147.009 83.1689L143.51 91.1328C143.476 91.2893 143.35 91.5218 143.13 91.8302C142.906 92.1094 142.544 92.2909 142.046 92.375L134.039 93.7244Z" fill="white"/>
        <path d="M79.395 102.934C79.0724 102.989 78.7765 102.933 78.5073 102.767C78.2625 102.567 78.1129 102.306 78.0585 101.983L74.7961 82.6273L70.009 87.7773C69.7503 88.032 69.4694 88.1547 69.1663 88.1455C68.8875 88.102 68.6061 87.9534 68.322 87.6997L64.4063 84.0618C64.2152 83.8225 64.1071 83.5392 64.082 83.2116C64.0863 82.8791 64.2203 82.6002 64.4839 82.3748L73.5089 72.5746C73.6358 72.4326 73.7701 72.3345 73.9118 72.2805C74.0485 72.1971 74.2196 72.1381 74.4248 72.1035L81.3315 70.9395C81.6541 70.8851 81.9524 70.9554 82.2266 71.1505C82.4958 71.3163 82.6576 71.5604 82.712 71.883L87.5166 100.389C87.571 100.712 87.5006 101.01 87.3055 101.284C87.1055 101.529 86.8442 101.679 86.5216 101.733L79.395 102.934Z" stroke="#DA009E" stroke-width="2" mask="url(#path-10-outside-4_285_351)"/>
        <path d="M93.6193 100.537C93.2967 100.591 93.0008 100.536 92.7316 100.37C92.4867 100.17 92.3371 99.9086 92.2828 99.586L91.1706 92.9873C91.1162 92.6647 91.1719 92.3688 91.3376 92.0996C91.5327 91.8254 91.7916 91.6612 92.1142 91.6068L98.7128 90.4946C99.0354 90.4402 99.3338 90.5106 99.608 90.7057C99.8821 90.9007 100.046 91.1596 100.101 91.4822L101.213 98.0808C101.267 98.4035 101.197 98.7018 101.002 98.976C100.802 99.2208 100.541 99.3704 100.218 99.4248L93.6193 100.537Z" stroke="#DA009E" stroke-width="2" mask="url(#path-10-outside-4_285_351)"/>
        <path d="M118.161 96.9435C115.228 97.4378 112.705 97.4106 110.592 96.862C108.474 96.284 106.795 95.3606 105.556 94.0916C104.311 92.7933 103.519 91.3132 103.179 89.6514C103.134 89.3875 103.185 89.1527 103.331 88.9471C103.502 88.7072 103.719 88.565 103.983 88.5205L111.33 87.2823C111.77 87.2082 112.122 87.2393 112.386 87.3757C112.65 87.5121 112.841 87.6609 112.959 87.822C113.336 88.2712 113.716 88.6445 114.098 88.9421C114.475 89.2103 114.898 89.3953 115.368 89.4972C115.832 89.5696 116.358 89.5565 116.944 89.4576C117.59 89.3489 118.169 89.1156 118.681 88.7577C119.189 88.3705 119.56 87.8858 119.793 87.3035C120.051 86.687 120.114 85.9828 119.98 85.1909C119.867 84.5164 119.606 83.957 119.2 83.5128C118.817 83.0344 118.321 82.6808 117.709 82.4521C117.127 82.2185 116.469 82.1635 115.736 82.287C115.149 82.3859 114.678 82.5408 114.321 82.7517C113.989 82.9283 113.72 83.1244 113.515 83.3399C113.311 83.5554 113.118 83.7538 112.937 83.935C112.781 84.082 112.586 84.1752 112.351 84.2148L105.092 85.4382C104.828 85.4826 104.579 85.4342 104.344 85.2928C104.134 85.1172 104.006 84.8974 103.961 84.6335L103.001 68.7349C102.981 68.2557 103.097 67.8741 103.351 67.5901C103.634 67.3011 103.966 67.1245 104.347 67.0602L123 63.9165C123.322 63.8621 123.606 63.9349 123.851 64.1349C124.12 64.3007 124.282 64.5449 124.336 64.8675L125.211 70.0584C125.261 70.3517 125.188 70.6354 124.993 70.9096C124.827 71.1788 124.583 71.3406 124.26 71.395L111.459 73.5526L111.76 78.0259C112.409 77.4037 113.125 76.9061 113.906 76.5331C114.712 76.1258 115.863 75.7961 117.359 75.544C118.737 75.3117 120.099 75.3386 121.444 75.6246C122.814 75.8763 124.074 76.3727 125.224 77.1138C126.399 77.8206 127.383 78.7405 128.177 79.8734C128.972 81.0063 129.495 82.3206 129.747 83.8163C130.083 85.8105 129.876 87.7153 129.126 89.5307C128.377 91.346 127.089 92.9203 125.263 94.2536C123.432 95.5575 121.064 96.4542 118.161 96.9435Z" stroke="#DA009E" stroke-width="2" mask="url(#path-10-outside-4_285_351)"/>
        <path d="M134.039 93.7244C133.775 93.7689 133.541 93.718 133.335 93.5717C133.124 93.396 132.997 93.1762 132.952 92.9123C132.942 92.8536 132.933 92.795 132.923 92.7363C132.937 92.6434 132.964 92.5333 133.003 92.4061L140.007 76.5223L129.138 64.3749C128.991 64.2187 128.905 64.0673 128.88 63.9206C128.836 63.6567 128.887 63.4219 129.033 63.2163C129.204 62.9764 129.421 62.8342 129.685 62.7897L137.647 61.4477C138.146 61.3636 138.549 61.4314 138.858 61.6508C139.166 61.8703 139.377 62.0459 139.49 62.1777L144.796 68.16L147.98 60.7467C148.072 60.5803 148.228 60.3429 148.448 60.0345C148.667 59.726 149.026 59.5298 149.525 59.4458L157.091 58.1705C157.355 58.126 157.593 58.1916 157.803 58.3672C158.038 58.5086 158.178 58.7112 158.222 58.9752C158.252 59.1511 158.235 59.3198 158.172 59.4813L151.694 74.4621L163.665 87.2382C163.743 87.3457 163.79 87.4434 163.804 87.5314C163.844 87.5851 163.868 87.6412 163.878 87.6999C163.923 87.9638 163.86 88.2158 163.689 88.4557C163.543 88.6613 163.352 88.7839 163.117 88.8234L154.847 90.2173C154.349 90.3014 153.948 90.2483 153.644 90.0582C153.336 89.8387 153.14 89.6606 153.056 89.5239L147.009 83.1689L143.51 91.1328C143.476 91.2893 143.35 91.5218 143.13 91.8302C142.906 92.1094 142.544 92.2909 142.046 92.375L134.039 93.7244Z" stroke="#DA009E" stroke-width="2" mask="url(#path-10-outside-4_285_351)"/>
      </g>
    </g>
    <rect x="32.5" y="28.5" width="255" height="127" rx="9.5" stroke="#FF7FBE"/>
  </g>
  <defs>
    <filter id="filter0_d_285_351" x="0" y="0" width="320" height="192" filterUnits="userSpaceOnUse" color-interpolation-filters="sRGB">
      <feFlood flood-opacity="0" result="BackgroundImageFix"/>
      <feColorMatrix in="SourceAlpha" type="matrix" values="0 0 0 0 0 0 0 0 0 0 0 0 0 0 0 0 0 0 127 0" result="hardAlpha"/>
      <feOffset dy="4"/>
      <feGaussianBlur stdDeviation="16"/>
      <feComposite in2="hardAlpha" operator="out"/>
      <feColorMatrix type="matrix" values="0 0 0 0 0 0 0 0 0 0 0 0 0 0 0 0 0 0 1 0"/>
      <feBlend mode="normal" in2="BackgroundImageFix" result="effect1_dropShadow_285_351"/>
      <feBlend mode="normal" in="SourceGraphic" in2="effect1_dropShadow_285_351" result="shape"/>
    </filter>
    <filter id="filter1_d_285_351" x="202.266" y="50.5837" width="69.8457" height="74.8025" filterUnits="userSpaceOnUse" color-interpolation-filters="sRGB">
      <feFlood flood-opacity="0" result="BackgroundImageFix"/>
      <feColorMatrix in="SourceAlpha" type="matrix" values="0 0 0 0 0 0 0 0 0 0 0 0 0 0 0 0 0 0 127 0" result="hardAlpha"/>
      <feOffset dy="8"/>
      <feComposite in2="hardAlpha" operator="out"/>
      <feColorMatrix type="matrix" values="0 0 0 0 0.575472 0 0 0 0 0.149909 0 0 0 0 0.465722 0 0 0 1 0"/>
      <feBlend mode="normal" in2="BackgroundImageFix" result="effect1_dropShadow_285_351"/>
      <feBlend mode="normal" in="SourceGraphic" in2="effect1_dropShadow_285_351" result="shape"/>
    </filter>
    <filter id="filter2_dd_285_351" x="167.064" y="44.5051" width="136.941" height="103.087" filterUnits="userSpaceOnUse" color-interpolation-filters="sRGB">
      <feFlood flood-opacity="0" result="BackgroundImageFix"/>
      <feColorMatrix in="SourceAlpha" type="matrix" values="0 0 0 0 0 0 0 0 0 0 0 0 0 0 0 0 0 0 127 0" result="hardAlpha"/>
      <feOffset dy="4"/>
      <feGaussianBlur stdDeviation="16"/>
      <feComposite in2="hardAlpha" operator="out"/>
      <feColorMatrix type="matrix" values="0 0 0 0 0.672784 0 0 0 0 0.109804 0 0 0 0 0.870588 0 0 0 1 0"/>
      <feBlend mode="normal" in2="BackgroundImageFix" result="effect1_dropShadow_285_351"/>
      <feColorMatrix in="SourceAlpha" type="matrix" values="0 0 0 0 0 0 0 0 0 0 0 0 0 0 0 0 0 0 127 0" result="hardAlpha"/>
      <feOffset dy="2"/>
      <feComposite in2="hardAlpha" operator="out"/>
      <feColorMatrix type="matrix" values="0 0 0 0 0.38278 0 0 0 0 0.120709 0 0 0 0 0.315193 0 0 0 1 0"/>
      <feBlend mode="normal" in2="effect1_dropShadow_285_351" result="effect2_dropShadow_285_351"/>
      <feBlend mode="normal" in="SourceGraphic" in2="effect2_dropShadow_285_351" result="shape"/>
    </filter>
    <filter id="filter3_d_285_351" x="214.836" y="59.5996" width="51.6797" height="35.6536" filterUnits="userSpaceOnUse" color-interpolation-filters="sRGB">
      <feFlood flood-opacity="0" result="BackgroundImageFix"/>
      <feColorMatrix in="SourceAlpha" type="matrix" values="0 0 0 0 0 0 0 0 0 0 0 0 0 0 0 0 0 0 127 0" result="hardAlpha"/>
      <feOffset dy="2"/>
      <feComposite in2="hardAlpha" operator="out"/>
      <feColorMatrix type="matrix" values="0 0 0 0 0.575472 0 0 0 0 0.149909 0 0 0 0 0.465722 0 0 0 1 0"/>
      <feBlend mode="normal" in2="BackgroundImageFix" result="effect1_dropShadow_285_351"/>
      <feBlend mode="normal" in="SourceGraphic" in2="effect1_dropShadow_285_351" result="shape"/>
    </filter>
    <filter id="filter4_d_285_351" x="54.8691" y="29.7131" width="127.74" height="142.545" filterUnits="userSpaceOnUse" color-interpolation-filters="sRGB">
      <feFlood flood-opacity="0" result="BackgroundImageFix"/>
      <feColorMatrix in="SourceAlpha" type="matrix" values="0 0 0 0 0 0 0 0 0 0 0 0 0 0 0 0 0 0 127 0" result="hardAlpha"/>
      <feOffset dy="8"/>
      <feComposite in2="hardAlpha" operator="out"/>
      <feColorMatrix type="matrix" values="0 0 0 0 0.575472 0 0 0 0 0.149909 0 0 0 0 0.465722 0 0 0 1 0"/>
      <feBlend mode="normal" in2="BackgroundImageFix" result="effect1_dropShadow_285_351"/>
      <feBlend mode="normal" in="SourceGraphic" in2="effect1_dropShadow_285_351" result="shape"/>
    </filter>
    <filter id="filter5_dd_285_351" x="23.6211" y="59.4434" width="198.379" height="114.798" filterUnits="userSpaceOnUse" color-interpolation-filters="sRGB">
      <feFlood flood-opacity="0" result="BackgroundImageFix"/>
      <feColorMatrix in="SourceAlpha" type="matrix" values="0 0 0 0 0 0 0 0 0 0 0 0 0 0 0 0 0 0 127 0" result="hardAlpha"/>
      <feOffset dy="4"/>
      <feGaussianBlur stdDeviation="16"/>
      <feComposite in2="hardAlpha" operator="out"/>
      <feColorMatrix type="matrix" values="0 0 0 0 0.672784 0 0 0 0 0.109804 0 0 0 0 0.870588 0 0 0 1 0"/>
      <feBlend mode="normal" in2="BackgroundImageFix" result="effect1_dropShadow_285_351"/>
      <feColorMatrix in="SourceAlpha" type="matrix" values="0 0 0 0 0 0 0 0 0 0 0 0 0 0 0 0 0 0 127 0" result="hardAlpha"/>
      <feOffset dy="2"/>
      <feComposite in2="hardAlpha" operator="out"/>
      <feColorMatrix type="matrix" values="0 0 0 0 0.38278 0 0 0 0 0.120709 0 0 0 0 0.315193 0 0 0 1 0"/>
      <feBlend mode="normal" in2="effect1_dropShadow_285_351" result="effect2_dropShadow_285_351"/>
      <feBlend mode="normal" in="SourceGraphic" in2="effect2_dropShadow_285_351" result="shape"/>
    </filter>
    <filter id="filter6_d_285_351" x="63.082" y="57.157" width="101.811" height="48.7976" filterUnits="userSpaceOnUse" color-interpolation-filters="sRGB">
      <feFlood flood-opacity="0" result="BackgroundImageFix"/>
      <feColorMatrix in="SourceAlpha" type="matrix" values="0 0 0 0 0 0 0 0 0 0 0 0 0 0 0 0 0 0 127 0" result="hardAlpha"/>
      <feOffset dy="2"/>
      <feComposite in2="hardAlpha" operator="out"/>
      <feColorMatrix type="matrix" values="0 0 0 0 0.575472 0 0 0 0 0.149909 0 0 0 0 0.465722 0 0 0 1 0"/>
      <feBlend mode="normal" in2="BackgroundImageFix" result="effect1_dropShadow_285_351"/>
      <feBlend mode="normal" in="SourceGraphic" in2="effect1_dropShadow_285_351" result="shape"/>
    </filter>
    <linearGradient id="paint0_linear_285_351" x1="153.039" y1="172.906" x2="169.976" y2="42.3341" gradientUnits="userSpaceOnUse">
      <stop stop-color="#A81AFF"/>
      <stop offset="1" stop-color="#FC1C6D"/>
    </linearGradient>
    <linearGradient id="paint1_linear_285_351" x1="222.751" y1="21.425" x2="293.251" y2="52.9135" gradientUnits="userSpaceOnUse">
      <stop stop-color="#A81AFF"/>
      <stop offset="1" stop-color="#FC1C6D"/>
    </linearGradient>
    <linearGradient id="paint2_linear_285_351" x1="255.793" y1="52.4587" x2="218.585" y2="115.511" gradientUnits="userSpaceOnUse">
      <stop stop-color="#FF9292"/>
      <stop offset="1" stop-color="#FF81E5"/>
    </linearGradient>
    <linearGradient id="paint3_linear_285_351" x1="35.3886" y1="9.27787" x2="179.971" y2="-7.13847" gradientUnits="userSpaceOnUse">
      <stop stop-color="#A81AFF"/>
      <stop offset="1" stop-color="#FC1C6D"/>
    </linearGradient>
    <linearGradient id="paint4_linear_285_351" x1="118.739" y1="28" x2="118.739" y2="165.972" gradientUnits="userSpaceOnUse">
      <stop stop-color="#FF9292"/>
      <stop offset="1" stop-color="#FF81E5"/>
    </linearGradient>
    <clipPath id="clip0_285_351">
      <rect x="32" y="28" width="256" height="128" rx="10" fill="white"/>
    </clipPath>
  </defs>
</svg>