<svg width="343" height="577" viewBox="0 0 343 577" fill="none" xmlns="http://www.w3.org/2000/svg">
<g filter="url(#filter0_dd_293_343)">
<path d="M296.167 54.2526C292.601 75.9967 272.084 90.7332 250.34 87.1675C228.595 83.6018 213.859 63.0841 217.425 41.34C220.99 19.5959 241.508 4.85933 263.252 8.42503C284.996 11.9907 299.733 32.5084 296.167 54.2526Z" fill="url(#paint0_linear_293_343)"/>
<path d="M295.674 54.1717C292.153 75.6433 271.892 90.1951 250.42 86.6741C228.949 83.1531 214.397 62.8926 217.918 41.4209C221.439 19.9493 241.7 5.39742 263.171 8.91844C284.643 12.4395 299.195 32.7 295.674 54.1717Z" stroke="#FF8E7A"/>
</g>
<g filter="url(#filter1_dd_293_343)">
<path d="M253.672 66.8472C250.343 66.3013 247.633 65.3497 245.541 63.9922C243.483 62.6405 242.013 61.077 241.129 59.3018C240.245 57.5266 239.916 55.7337 240.141 53.9231C240.187 53.6409 240.332 53.411 240.575 53.2334C240.823 53.0206 241.104 52.9398 241.416 52.991L246.981 53.9036C247.432 53.9776 247.762 54.1403 247.97 54.3917C248.183 54.6079 248.371 54.8742 248.533 55.1906C248.677 55.8301 248.963 56.4748 249.391 57.1245C249.853 57.78 250.521 58.3785 251.393 58.9201C252.272 59.4264 253.405 59.7933 254.792 60.0208C257.046 60.3904 258.788 60.2958 260.019 59.7369C261.285 59.1837 262.022 58.272 262.23 57.002C262.381 56.0848 262.19 55.2927 261.659 54.6259C261.162 53.9648 260.292 53.2968 259.049 52.6221C257.842 51.9531 256.206 51.1777 254.143 50.296C251.635 49.305 249.534 48.2179 247.841 47.0345C246.188 45.8216 245.009 44.4328 244.304 42.8681C243.64 41.2738 243.481 39.4183 243.828 37.3015C244.175 35.1848 245.054 33.4089 246.465 31.9737C247.881 30.5032 249.705 29.48 251.936 28.9039C254.172 28.2926 256.73 28.2229 259.608 28.6949C261.931 29.0758 263.925 29.7289 265.59 30.6539C267.289 31.5846 268.644 32.6582 269.655 33.8746C270.701 35.0967 271.441 36.3411 271.874 37.6076C272.307 38.8742 272.452 40.0571 272.307 41.1565C272.261 41.4387 272.113 41.6862 271.865 41.8991C271.622 42.0766 271.344 42.1398 271.032 42.0886L265.207 41.1333C264.86 41.0764 264.559 40.9547 264.305 40.7681C264.051 40.5815 263.866 40.2976 263.75 39.9163C263.693 38.965 263.199 38.0688 262.268 37.2279C261.378 36.3575 260.118 35.7886 258.489 35.5213C256.789 35.2427 255.385 35.3384 254.275 35.8085C253.2 36.2843 252.556 37.1749 252.342 38.4802C252.203 39.3269 252.327 40.0899 252.714 40.7693C253.142 41.419 253.907 42.0699 255.011 42.7219C256.155 43.3442 257.672 44.0821 259.562 44.9354C262.51 46.0708 264.865 47.2359 266.627 48.4306C268.39 49.6254 269.606 51.0022 270.276 52.5612C270.952 54.085 271.117 55.9052 270.77 58.0219C270.382 60.3856 269.391 62.3061 267.795 63.7834C266.234 65.2664 264.235 66.2789 261.795 66.8208C259.397 67.3331 256.689 67.342 253.672 66.8472Z" fill="#651C0F"/>
<path d="M240.87 53.637L240.885 53.6257L240.9 53.6132C241.041 53.4925 241.174 53.458 241.335 53.4844L246.9 54.397C247.279 54.4592 247.479 54.5834 247.584 54.7104L247.599 54.7275L247.614 54.7433C247.775 54.9064 247.925 55.1118 248.06 55.3656C248.224 56.0515 248.533 56.7296 248.973 57.3994L248.978 57.4061L248.982 57.4127C249.493 58.136 250.215 58.7775 251.13 59.3449L251.137 59.3492L251.144 59.3533C252.09 59.8989 253.285 60.2805 254.711 60.5142C257 60.8896 258.859 60.8115 260.223 60.1937C261.628 59.5783 262.486 58.5334 262.724 57.0829C262.894 56.0427 262.679 55.1066 262.054 54.3198C261.493 53.5768 260.553 52.8697 259.29 52.1838C258.061 51.5033 256.409 50.7206 254.339 49.8362L254.339 49.836L254.327 49.831C251.847 48.8512 249.784 47.7822 248.132 46.628C246.54 45.4587 245.426 44.1372 244.763 42.6692C244.145 41.1813 243.987 39.4262 244.322 37.3825C244.653 35.3604 245.488 33.6808 246.821 32.3241L246.821 32.3242L246.825 32.3205C248.169 30.925 249.907 29.944 252.061 29.388L252.061 29.3881L252.067 29.3862C254.219 28.798 256.702 28.725 259.527 29.1883C261.807 29.5621 263.743 30.1996 265.347 31.0909L265.349 31.0924C267.005 31.9995 268.308 33.0357 269.271 34.1942L269.271 34.1943L269.275 34.1997C270.288 35.3832 270.992 36.5735 271.401 37.7695C271.813 38.9745 271.943 40.0761 271.812 41.0824C271.787 41.2249 271.714 41.3649 271.555 41.506C271.43 41.5921 271.293 41.6248 271.113 41.5952L265.287 40.6399C265.009 40.5943 264.785 40.4999 264.601 40.365C264.463 40.2636 264.336 40.0969 264.245 39.8221C264.159 38.731 263.583 37.7447 262.611 36.8636C261.627 35.9051 260.264 35.3058 258.57 35.0279C256.815 34.7402 255.307 34.8286 254.08 35.3481L254.08 35.3481L254.073 35.3513C252.822 35.9049 252.085 36.952 251.848 38.3993C251.693 39.3473 251.83 40.2281 252.28 41.0168L252.287 41.0308L252.296 41.0441C252.784 41.786 253.625 42.4838 254.757 43.1524L254.764 43.1569L254.772 43.1611C255.932 43.7918 257.461 44.5353 259.356 45.3911L259.369 45.3969L259.382 45.402C262.31 46.5296 264.627 47.6787 266.347 48.8445C268.05 49.9993 269.193 51.3073 269.817 52.7587L269.817 52.7587L269.819 52.764C270.446 54.1764 270.612 55.8931 270.276 57.941C269.905 60.2068 268.961 62.0226 267.455 63.4165L267.455 63.4165L267.451 63.4209C265.966 64.8316 264.053 65.8068 261.689 66.3323C259.365 66.8284 256.722 66.8407 253.753 66.3538C250.47 65.8155 247.831 64.8821 245.814 63.5734C243.813 62.2588 242.412 60.7576 241.576 59.0789C240.734 57.3874 240.426 55.6966 240.636 53.9957C240.661 53.854 240.73 53.7396 240.87 53.637Z" stroke="#FF8E7A"/>
</g>
<g filter="url(#filter2_dd_293_343)">
<circle cx="137.396" cy="379.49" r="133.396" fill="url(#paint1_linear_293_343)"/>
<circle cx="137.396" cy="379.49" r="132.896" stroke="#FF8E7A"/>
</g>
<g filter="url(#filter3_dd_293_343)">
<path d="M137.397 444.036C126.118 444.036 116.66 442.363 109.023 439.016C101.504 435.669 95.8052 431.306 91.928 425.927C88.0508 420.549 85.9947 414.811 85.7598 408.715C85.7598 407.759 86.1122 406.922 86.8172 406.205C87.5221 405.368 88.4033 404.95 89.4607 404.95H108.318C109.845 404.95 111.02 405.308 111.843 406.026C112.665 406.623 113.429 407.4 114.134 408.356C114.956 410.388 116.249 412.361 118.011 414.273C119.891 416.186 122.417 417.799 125.589 419.114C128.761 420.309 132.697 420.907 137.397 420.907C145.034 420.907 150.732 419.652 154.492 417.142C158.369 414.632 160.308 411.225 160.308 406.922C160.308 403.814 159.25 401.304 157.136 399.392C155.138 397.479 151.907 395.746 147.443 394.192C143.095 392.638 137.28 390.965 129.995 389.172C121.183 387.259 113.664 384.809 107.437 381.821C101.327 378.713 96.6864 374.768 93.5142 369.987C90.4594 365.086 88.932 359.05 88.932 351.878C88.932 344.706 90.8706 338.371 94.7478 332.873C98.625 327.255 104.088 322.892 111.138 319.784C118.187 316.557 126.588 314.943 136.34 314.943C144.212 314.943 151.144 316.019 157.136 318.17C163.245 320.322 168.297 323.131 172.292 326.597C176.404 330.064 179.518 333.769 181.632 337.714C183.747 341.658 184.863 345.483 184.981 349.189C184.981 350.145 184.628 351.041 183.923 351.878C183.219 352.595 182.337 352.954 181.28 352.954H161.541C160.367 352.954 159.309 352.715 158.369 352.237C157.429 351.759 156.666 350.922 156.078 349.727C155.373 346.619 153.258 343.929 149.734 341.658C146.326 339.268 141.862 338.072 136.34 338.072C130.583 338.072 126 339.148 122.593 341.3C119.303 343.451 117.659 346.738 117.659 351.161C117.659 354.03 118.481 356.48 120.126 358.512C121.888 360.425 124.767 362.158 128.761 363.712C132.874 365.146 138.278 366.76 144.975 368.553C155.314 370.704 163.715 373.274 170.177 376.262C176.639 379.251 181.397 383.135 184.452 387.917C187.507 392.578 189.034 398.495 189.034 405.667C189.034 413.676 186.802 420.549 182.337 426.286C177.99 432.023 171.939 436.446 164.185 439.554C156.548 442.542 147.619 444.036 137.397 444.036Z" fill="#651C0F"/>
<path d="M87.1738 406.555L87.1872 406.542L87.1996 406.527C87.8133 405.799 88.5565 405.45 89.4607 405.45H108.318C109.773 405.45 110.813 405.791 111.514 406.402L111.531 406.417L111.549 406.43C112.309 406.983 113.026 407.705 113.695 408.603C114.544 410.679 115.865 412.682 117.643 414.612L117.649 414.618L117.654 414.624C119.593 416.595 122.18 418.242 125.398 419.576L125.405 419.579L125.413 419.582C128.659 420.805 132.659 421.407 137.397 421.407C145.07 421.407 150.886 420.149 154.767 417.559C158.772 414.965 160.808 411.408 160.808 406.922C160.808 403.69 159.702 401.041 157.476 399.026C155.403 397.043 152.095 395.282 147.609 393.721C143.239 392.159 137.406 390.481 130.115 388.686L130.115 388.686L130.101 388.683C121.319 386.777 113.84 384.338 107.658 381.372C101.616 378.298 97.0498 374.409 93.9347 369.716C90.9426 364.913 89.432 358.976 89.432 351.878C89.432 344.802 91.3427 338.569 95.1565 333.161L95.1565 333.161L95.1593 333.157C98.9775 327.624 104.364 323.317 111.34 320.242L111.34 320.242L111.346 320.239C118.316 317.048 126.642 315.443 136.34 315.443C144.167 315.443 151.04 316.513 156.967 318.641L156.969 318.642C163.033 320.777 168.026 323.558 171.964 326.975L171.97 326.98C176.043 330.413 179.112 334.071 181.192 337.95C183.276 341.838 184.365 345.585 184.481 349.196C184.479 350.01 184.184 350.788 183.554 351.541C182.95 352.148 182.204 352.454 181.28 352.454H161.541C160.436 352.454 159.458 352.23 158.596 351.791C157.788 351.38 157.101 350.653 156.552 349.557C155.797 346.313 153.585 343.547 150.013 341.243C146.499 338.781 141.927 337.572 136.34 337.572C130.527 337.572 125.841 338.658 122.326 340.877L122.326 340.877L122.32 340.881C118.869 343.138 117.159 346.594 117.159 351.161C117.159 354.132 118.013 356.697 119.737 358.827L119.747 358.839L119.758 358.851C121.595 360.844 124.555 362.612 128.58 364.178L128.588 364.181L128.597 364.184C132.725 365.624 138.143 367.241 144.846 369.036L144.86 369.039L144.873 369.042C155.191 371.189 163.552 373.75 169.967 376.716C176.365 379.675 181.039 383.503 184.031 388.186L184.034 388.191C187.022 392.751 188.534 398.565 188.534 405.667C188.534 413.576 186.332 420.338 181.943 425.979L181.939 425.984C177.655 431.638 171.684 436.009 164.001 439.089C156.435 442.049 147.571 443.536 137.397 443.536C126.165 443.536 116.78 441.869 109.225 438.559C101.768 435.239 96.1478 430.926 92.3337 425.635C88.5109 420.332 86.4925 414.691 86.2598 408.706C86.262 407.892 86.5578 407.182 87.1738 406.555Z" stroke="#FF8E7A"/>
</g>
<g filter="url(#filter4_dd_293_343)">
<path d="M311.303 206.58C334.544 256.053 313.278 315 263.805 338.241C214.332 361.482 155.385 340.216 132.144 290.743C108.903 241.269 130.169 182.323 179.642 159.082C229.115 135.841 288.062 157.106 311.303 206.58Z" fill="url(#paint2_linear_293_343)"/>
<path d="M310.851 206.792C333.974 256.016 312.816 314.665 263.592 337.788C214.369 360.912 155.72 339.754 132.597 290.53C109.473 241.307 130.631 182.658 179.855 159.534C229.078 136.411 287.727 157.569 310.851 206.792Z" stroke="#FF8E7A"/>
</g>
<g filter="url(#filter5_dd_293_343)">
<path d="M242.086 292.006C234.511 295.564 227.632 297.424 221.448 297.586C215.342 297.71 210.14 296.578 205.839 294.189C201.539 291.8 198.348 288.596 196.267 284.577C195.965 283.934 195.938 283.261 196.185 282.557C196.395 281.773 196.854 281.214 197.565 280.881L210.228 274.932C211.253 274.45 212.156 274.32 212.934 274.542C213.675 274.684 214.433 274.965 215.208 275.385C216.401 276.49 217.891 277.407 219.678 278.135C221.544 278.826 223.749 279.113 226.294 278.995C228.802 278.797 231.633 277.957 234.789 276.474C239.918 274.065 243.348 271.425 245.081 268.553C246.893 265.644 247.12 262.745 245.763 259.855C244.782 257.768 243.28 256.416 241.257 255.799C239.312 255.145 236.596 255 233.107 255.365C229.698 255.693 225.265 256.404 219.807 257.498C213.286 258.994 207.464 259.72 202.34 259.678C197.257 259.518 192.896 258.333 189.257 256.123C185.66 253.796 182.73 250.224 180.467 245.408C178.205 240.592 177.508 235.726 178.377 230.811C179.209 225.815 181.501 221.162 185.255 216.851C188.971 212.46 194.103 208.726 200.651 205.65C205.938 203.167 210.932 201.702 215.635 201.257C220.416 200.774 224.695 201.067 228.471 202.135C232.326 203.165 235.586 204.671 238.25 206.653C240.915 208.635 242.871 210.851 244.119 213.302C244.42 213.944 244.466 214.658 244.257 215.442C244.01 216.146 243.531 216.665 242.821 216.998L229.566 223.225C228.777 223.596 227.992 223.769 227.21 223.744C226.428 223.72 225.651 223.399 224.879 222.781C223.425 220.917 221.157 219.778 218.073 219.365C215.031 218.834 211.656 219.44 207.948 221.182C204.082 222.998 201.344 225.166 199.735 227.686C198.204 230.168 198.137 232.894 199.532 235.864C200.437 237.791 201.762 239.177 203.508 240.023C205.295 240.751 207.774 241.007 210.947 240.79C214.161 240.456 218.299 239.835 223.362 238.926C230.984 237.109 237.436 236.185 242.718 236.153C248 236.121 252.421 237.229 255.981 239.476C259.503 241.643 262.395 245.134 264.657 249.95C267.184 255.328 267.853 260.648 266.665 265.909C265.555 271.134 262.887 276.012 258.66 280.546C254.475 284.961 248.95 288.782 242.086 292.006Z" fill="#651C0F"/>
<path d="M196.663 282.705L196.657 282.723C196.452 283.307 196.477 283.841 196.716 284.356C198.748 288.276 201.863 291.408 206.082 293.752C210.288 296.089 215.399 297.209 221.436 297.086C227.531 296.927 234.341 295.092 241.873 291.554C248.693 288.35 254.163 284.563 258.296 280.203C262.47 275.726 265.088 270.927 266.176 265.806L266.177 265.799C267.338 260.658 266.689 255.451 264.205 250.163C261.972 245.41 259.137 242.005 255.719 239.902L255.714 239.899C252.253 237.714 247.932 236.622 242.721 236.653C237.491 236.685 231.079 237.601 223.478 239.412L223.464 239.416L223.451 239.418C218.382 240.328 214.23 240.952 210.999 241.287L210.99 241.288L210.981 241.289C207.776 241.508 205.208 241.256 203.319 240.486L203.304 240.48L203.29 240.473C201.431 239.572 200.028 238.096 199.079 236.077C197.623 232.977 197.678 230.069 199.309 227.423L199.313 227.416L199.313 227.416C200.991 224.79 203.819 222.569 207.735 220.729C211.503 218.959 214.98 218.32 218.15 218.87C221.29 219.293 223.679 220.46 225.236 222.426C225.929 222.97 226.591 223.224 227.225 223.244C227.92 223.266 228.628 223.114 229.354 222.772L242.609 216.546C243.198 216.269 243.577 215.855 243.779 215.294C243.956 214.617 243.909 214.036 243.669 213.522C242.463 211.155 240.564 208.997 237.952 207.054C235.347 205.117 232.148 203.635 228.342 202.618L228.335 202.616L228.335 202.616C224.631 201.569 220.417 201.277 215.685 201.754L215.682 201.755C211.048 202.193 206.11 203.638 200.864 206.102C194.364 209.156 189.296 212.85 185.636 217.174L185.632 217.179L185.632 217.179C181.931 221.43 179.685 226 178.871 230.893L178.87 230.898L178.87 230.898C178.02 235.705 178.698 240.466 180.92 245.196C183.151 249.945 186.024 253.434 189.523 255.7C193.072 257.854 197.341 259.02 202.35 259.178C207.424 259.219 213.204 258.499 219.695 257.011L219.709 257.008L219.709 257.008C225.173 255.913 229.624 255.198 233.057 254.868M196.663 282.705L233.107 255.365M196.663 282.705L196.668 282.686C196.841 282.039 197.206 281.602 197.777 281.333L210.44 275.384C211.4 274.933 212.174 274.845 212.797 275.023L212.818 275.029L212.84 275.033C213.506 275.161 214.198 275.412 214.916 275.795M196.663 282.705L245.508 268.814M233.057 254.868C233.058 254.868 233.059 254.868 233.06 254.868L233.107 255.365M233.057 254.868C233.057 254.868 233.056 254.868 233.055 254.868L233.107 255.365M233.057 254.868C236.569 254.501 239.366 254.637 241.409 255.323M233.107 255.365C236.596 255 239.312 255.145 241.257 255.799M241.409 255.323C241.407 255.322 241.405 255.322 241.403 255.321L241.257 255.799M241.409 255.323C243.578 255.986 245.182 257.443 246.215 259.643C247.65 262.698 247.399 265.775 245.508 268.814M241.409 255.323C241.412 255.324 241.414 255.325 241.416 255.325L241.257 255.799M241.257 255.799L245.508 268.814M245.508 268.814C245.508 268.813 245.509 268.812 245.509 268.811L245.081 268.553L245.506 268.817C245.506 268.816 245.507 268.815 245.508 268.814ZM245.508 268.814C243.699 271.81 240.163 274.502 235.002 276.927C231.811 278.426 228.919 279.289 226.334 279.494L226.325 279.494L226.317 279.495C223.723 279.615 221.448 279.324 219.504 278.604L219.497 278.601L219.489 278.598C217.68 277.86 216.152 276.928 214.916 275.795M214.916 275.795C214.934 275.805 214.952 275.815 214.97 275.824L215.208 275.385L214.868 275.752C214.884 275.766 214.9 275.781 214.916 275.795Z" stroke="#FF8E7A"/>
</g>
<g filter="url(#filter6_dd_293_343)">
<path d="M432.86 340.936C467.514 414.705 435.806 502.599 362.037 537.253C288.268 571.907 200.374 540.198 165.72 466.43C131.065 392.661 162.774 304.767 236.543 270.112C310.312 235.458 398.206 267.167 432.86 340.936Z" fill="url(#paint3_linear_293_343)"/>
<path d="M432.407 341.148C466.944 414.667 435.343 502.264 361.824 536.8C288.305 571.337 200.709 539.736 166.172 466.217C131.635 392.698 163.237 305.102 236.755 270.565C310.274 236.028 397.871 267.63 432.407 341.148Z" stroke="#FF8E7A"/>
</g>
<g filter="url(#filter7_dd_293_343)">
<path d="M329.65 468.314C318.356 473.619 308.099 476.393 298.878 476.634C289.774 476.819 282.016 475.131 275.604 471.569C269.191 468.007 264.434 463.229 261.331 457.236C260.881 456.278 260.841 455.275 261.209 454.225C261.521 453.055 262.207 452.222 263.266 451.725L282.148 442.855C283.677 442.136 285.022 441.943 286.183 442.274C287.288 442.485 288.418 442.904 289.573 443.53C291.353 445.178 293.575 446.545 296.239 447.631C299.021 448.661 302.309 449.089 306.104 448.913C309.843 448.618 314.065 447.365 318.771 445.155C326.417 441.562 331.533 437.625 334.117 433.343C336.818 429.006 337.157 424.683 335.133 420.375C333.671 417.263 331.432 415.247 328.414 414.326C325.515 413.351 321.464 413.135 316.263 413.679C311.179 414.168 304.569 415.228 296.431 416.86C286.708 419.089 278.027 420.173 270.386 420.11C262.806 419.872 256.304 418.105 250.879 414.81C245.515 411.339 241.146 406.014 237.773 398.833C234.399 391.651 233.36 384.396 234.656 377.067C235.896 369.618 239.314 362.679 244.911 356.252C250.451 349.704 258.104 344.137 267.868 339.55C275.751 335.847 283.198 333.664 290.21 332.999C297.339 332.28 303.719 332.716 309.35 334.308C315.098 335.845 319.958 338.09 323.931 341.045C327.904 344 330.821 347.305 332.682 350.96C333.131 351.918 333.2 352.981 332.888 354.151C332.519 355.2 331.806 355.974 330.747 356.471L310.983 365.756C309.806 366.308 308.635 366.566 307.469 366.53C306.303 366.493 305.145 366.015 303.994 365.094C301.826 362.314 298.444 360.616 293.846 360C289.31 359.208 284.277 360.112 278.748 362.709C272.983 365.417 268.901 368.65 266.502 372.407C264.22 376.109 264.119 380.174 266.199 384.602C267.549 387.475 269.525 389.541 272.128 390.802C274.792 391.888 278.489 392.27 283.22 391.947C288.012 391.449 294.183 390.522 301.732 389.167C313.097 386.458 322.717 385.08 330.593 385.033C338.469 384.985 345.061 386.637 350.369 389.987C355.621 393.218 359.933 398.424 363.307 405.605C367.074 413.624 368.071 421.556 366.3 429.401C364.646 437.191 360.667 444.466 354.364 451.225C348.123 457.81 339.885 463.506 329.65 468.314Z" fill="#651C0F"/>
<path d="M261.681 454.39L261.687 454.372L261.692 454.354C261.968 453.321 262.558 452.609 263.478 452.177L282.36 443.307C283.824 442.62 285.04 442.468 286.046 442.755L286.067 442.761L286.089 442.765C287.118 442.962 288.182 443.351 289.281 443.94C291.103 445.616 293.363 446.999 296.05 448.094L296.058 448.097L296.065 448.1C298.925 449.159 302.283 449.591 306.127 449.413L306.135 449.413L306.143 449.412C309.96 449.11 314.242 447.834 318.983 445.607C326.663 441.999 331.883 438.01 334.543 433.604C337.325 429.137 337.687 424.636 335.585 420.162C334.071 416.937 331.729 414.817 328.567 413.85C325.568 412.843 321.437 412.636 316.213 413.182C311.106 413.673 304.477 414.737 296.333 416.369L296.333 416.369L296.32 416.372C286.626 418.595 277.986 419.672 270.396 419.61C262.891 419.373 256.48 417.625 251.144 414.386C245.879 410.977 241.567 405.734 238.225 398.62C234.892 391.526 233.872 384.375 235.149 377.154L235.149 377.154L235.149 377.149C236.372 369.802 239.744 362.947 245.288 356.58L245.288 356.58L245.293 356.575C250.776 350.094 258.365 344.566 268.081 340.002C275.923 336.319 283.314 334.155 290.257 333.497L290.26 333.497C297.34 332.782 303.655 333.218 309.213 334.789L309.22 334.791C314.919 336.315 319.72 338.536 323.633 341.447C327.554 344.363 330.413 347.609 332.232 351.18C332.62 352.009 332.69 352.941 332.41 354.003C332.086 354.91 331.472 355.578 330.534 356.019L310.77 365.303C309.657 365.826 308.563 366.064 307.485 366.03C306.466 365.998 305.424 365.586 304.351 364.739C302.081 361.857 298.577 360.131 293.922 359.505C289.259 358.695 284.124 359.631 278.535 362.257C272.72 364.988 268.548 368.274 266.08 372.138L266.08 372.138L266.076 372.144C263.693 376.01 263.605 380.256 265.747 384.815C267.14 387.78 269.193 389.936 271.91 391.252L271.924 391.259L271.939 391.265C274.705 392.393 278.491 392.771 283.254 392.445L283.263 392.445L283.272 392.444C288.081 391.944 294.265 391.015 301.82 389.659L301.834 389.657L301.848 389.654C313.192 386.95 322.772 385.58 330.596 385.533C338.401 385.486 344.893 387.122 350.102 390.41L350.107 390.413C355.255 393.58 359.51 398.7 362.854 405.818C366.579 413.747 367.557 421.566 365.812 429.291L365.81 429.298C364.178 436.985 360.25 444.179 354 450.882C347.811 457.411 339.629 463.074 329.437 467.861C318.187 473.147 307.999 475.895 298.867 476.134C289.831 476.318 282.165 474.642 275.847 471.132C269.515 467.615 264.833 462.909 261.78 457.015C261.392 456.185 261.354 455.32 261.681 454.39Z" stroke="#FF8E7A"/>
</g>
<defs>
<filter id="filter0_dd_293_343" x="212.893" y="7.89307" width="87.8066" height="87.8064" filterUnits="userSpaceOnUse" color-interpolation-filters="sRGB">
<feFlood flood-opacity="0" result="BackgroundImageFix"/>
<feColorMatrix in="SourceAlpha" type="matrix" values="0 0 0 0 0 0 0 0 0 0 0 0 0 0 0 0 0 0 127 0" result="hardAlpha"/>
<feOffset dy="4"/>
<feGaussianBlur stdDeviation="2"/>
<feComposite in2="hardAlpha" operator="out"/>
<feColorMatrix type="matrix" values="0 0 0 0 0.579264 0 0 0 0 0.204059 0 0 0 0 0 0 0 0 0.32 0"/>
<feBlend mode="normal" in2="BackgroundImageFix" result="effect1_dropShadow_293_343"/>
<feColorMatrix in="SourceAlpha" type="matrix" values="0 0 0 0 0 0 0 0 0 0 0 0 0 0 0 0 0 0 127 0" result="hardAlpha"/>
<feOffset dy="4"/>
<feComposite in2="hardAlpha" operator="out"/>
<feColorMatrix type="matrix" values="0 0 0 0 1 0 0 0 0 0.331797 0 0 0 0 0 0 0 0 1 0"/>
<feBlend mode="normal" in2="effect1_dropShadow_293_343" result="effect2_dropShadow_293_343"/>
<feBlend mode="normal" in="SourceGraphic" in2="effect2_dropShadow_293_343" result="shape"/>
</filter>
<filter id="filter1_dd_293_343" x="208.072" y="0.386475" width="96.2891" height="102.825" filterUnits="userSpaceOnUse" color-interpolation-filters="sRGB">
<feFlood flood-opacity="0" result="BackgroundImageFix"/>
<feColorMatrix in="SourceAlpha" type="matrix" values="0 0 0 0 0 0 0 0 0 0 0 0 0 0 0 0 0 0 127 0" result="hardAlpha"/>
<feOffset dy="4"/>
<feGaussianBlur stdDeviation="16"/>
<feComposite in2="hardAlpha" operator="out"/>
<feColorMatrix type="matrix" values="0 0 0 0 0.988235 0 0 0 0 0.541176 0 0 0 0 0.298039 0 0 0 0.32 0"/>
<feBlend mode="normal" in2="BackgroundImageFix" result="effect1_dropShadow_293_343"/>
<feColorMatrix in="SourceAlpha" type="matrix" values="0 0 0 0 0 0 0 0 0 0 0 0 0 0 0 0 0 0 127 0" result="hardAlpha"/>
<feOffset dy="1"/>
<feComposite in2="hardAlpha" operator="out"/>
<feColorMatrix type="matrix" values="0 0 0 0 0.809896 0 0 0 0 0.239739 0 0 0 0 0.277749 0 0 0 1 0"/>
<feBlend mode="normal" in2="effect1_dropShadow_293_343" result="effect2_dropShadow_293_343"/>
<feBlend mode="normal" in="SourceGraphic" in2="effect2_dropShadow_293_343" result="shape"/>
</filter>
<filter id="filter2_dd_293_343" x="0" y="246.094" width="274.793" height="274.793" filterUnits="userSpaceOnUse" color-interpolation-filters="sRGB">
<feFlood flood-opacity="0" result="BackgroundImageFix"/>
<feColorMatrix in="SourceAlpha" type="matrix" values="0 0 0 0 0 0 0 0 0 0 0 0 0 0 0 0 0 0 127 0" result="hardAlpha"/>
<feOffset dy="4"/>
<feGaussianBlur stdDeviation="2"/>
<feComposite in2="hardAlpha" operator="out"/>
<feColorMatrix type="matrix" values="0 0 0 0 0.579264 0 0 0 0 0.204059 0 0 0 0 0 0 0 0 0.32 0"/>
<feBlend mode="normal" in2="BackgroundImageFix" result="effect1_dropShadow_293_343"/>
<feColorMatrix in="SourceAlpha" type="matrix" values="0 0 0 0 0 0 0 0 0 0 0 0 0 0 0 0 0 0 127 0" result="hardAlpha"/>
<feOffset dy="4"/>
<feComposite in2="hardAlpha" operator="out"/>
<feColorMatrix type="matrix" values="0 0 0 0 1 0 0 0 0 0.331797 0 0 0 0 0 0 0 0 1 0"/>
<feBlend mode="normal" in2="effect1_dropShadow_293_343" result="effect2_dropShadow_293_343"/>
<feBlend mode="normal" in="SourceGraphic" in2="effect2_dropShadow_293_343" result="shape"/>
</filter>
<filter id="filter3_dd_293_343" x="53.7598" y="286.943" width="167.275" height="193.093" filterUnits="userSpaceOnUse" color-interpolation-filters="sRGB">
<feFlood flood-opacity="0" result="BackgroundImageFix"/>
<feColorMatrix in="SourceAlpha" type="matrix" values="0 0 0 0 0 0 0 0 0 0 0 0 0 0 0 0 0 0 127 0" result="hardAlpha"/>
<feOffset dy="4"/>
<feGaussianBlur stdDeviation="16"/>
<feComposite in2="hardAlpha" operator="out"/>
<feColorMatrix type="matrix" values="0 0 0 0 0.988235 0 0 0 0 0.541176 0 0 0 0 0.298039 0 0 0 0.32 0"/>
<feBlend mode="normal" in2="BackgroundImageFix" result="effect1_dropShadow_293_343"/>
<feColorMatrix in="SourceAlpha" type="matrix" values="0 0 0 0 0 0 0 0 0 0 0 0 0 0 0 0 0 0 127 0" result="hardAlpha"/>
<feOffset dy="1"/>
<feComposite in2="hardAlpha" operator="out"/>
<feColorMatrix type="matrix" values="0 0 0 0 0.809896 0 0 0 0 0.239739 0 0 0 0 0.277749 0 0 0 1 0"/>
<feBlend mode="normal" in2="effect1_dropShadow_293_343" result="effect2_dropShadow_293_343"/>
<feBlend mode="normal" in="SourceGraphic" in2="effect2_dropShadow_293_343" result="shape"/>
</filter>
<filter id="filter4_dd_293_343" x="118.729" y="149.666" width="205.99" height="205.99" filterUnits="userSpaceOnUse" color-interpolation-filters="sRGB">
<feFlood flood-opacity="0" result="BackgroundImageFix"/>
<feColorMatrix in="SourceAlpha" type="matrix" values="0 0 0 0 0 0 0 0 0 0 0 0 0 0 0 0 0 0 127 0" result="hardAlpha"/>
<feOffset dy="4"/>
<feGaussianBlur stdDeviation="2"/>
<feComposite in2="hardAlpha" operator="out"/>
<feColorMatrix type="matrix" values="0 0 0 0 0.579264 0 0 0 0 0.204059 0 0 0 0 0 0 0 0 0.32 0"/>
<feBlend mode="normal" in2="BackgroundImageFix" result="effect1_dropShadow_293_343"/>
<feColorMatrix in="SourceAlpha" type="matrix" values="0 0 0 0 0 0 0 0 0 0 0 0 0 0 0 0 0 0 127 0" result="hardAlpha"/>
<feOffset dy="4"/>
<feComposite in2="hardAlpha" operator="out"/>
<feColorMatrix type="matrix" values="0 0 0 0 1 0 0 0 0 0.331797 0 0 0 0 0 0 0 0 1 0"/>
<feBlend mode="normal" in2="effect1_dropShadow_293_343" result="effect2_dropShadow_293_343"/>
<feBlend mode="normal" in="SourceGraphic" in2="effect2_dropShadow_293_343" result="shape"/>
</filter>
<filter id="filter5_dd_293_343" x="146.016" y="173.031" width="153.219" height="160.564" filterUnits="userSpaceOnUse" color-interpolation-filters="sRGB">
<feFlood flood-opacity="0" result="BackgroundImageFix"/>
<feColorMatrix in="SourceAlpha" type="matrix" values="0 0 0 0 0 0 0 0 0 0 0 0 0 0 0 0 0 0 127 0" result="hardAlpha"/>
<feOffset dy="4"/>
<feGaussianBlur stdDeviation="16"/>
<feComposite in2="hardAlpha" operator="out"/>
<feColorMatrix type="matrix" values="0 0 0 0 0.988235 0 0 0 0 0.541176 0 0 0 0 0.298039 0 0 0 0.32 0"/>
<feBlend mode="normal" in2="BackgroundImageFix" result="effect1_dropShadow_293_343"/>
<feColorMatrix in="SourceAlpha" type="matrix" values="0 0 0 0 0 0 0 0 0 0 0 0 0 0 0 0 0 0 127 0" result="hardAlpha"/>
<feOffset dy="1"/>
<feComposite in2="hardAlpha" operator="out"/>
<feColorMatrix type="matrix" values="0 0 0 0 0.809896 0 0 0 0 0.239739 0 0 0 0 0.277749 0 0 0 1 0"/>
<feBlend mode="normal" in2="effect1_dropShadow_293_343" result="effect2_dropShadow_293_343"/>
<feBlend mode="normal" in="SourceGraphic" in2="effect2_dropShadow_293_343" result="shape"/>
</filter>
<filter id="filter6_dd_293_343" x="147.68" y="256.073" width="303.219" height="303.219" filterUnits="userSpaceOnUse" color-interpolation-filters="sRGB">
<feFlood flood-opacity="0" result="BackgroundImageFix"/>
<feColorMatrix in="SourceAlpha" type="matrix" values="0 0 0 0 0 0 0 0 0 0 0 0 0 0 0 0 0 0 127 0" result="hardAlpha"/>
<feOffset dy="4"/>
<feGaussianBlur stdDeviation="2"/>
<feComposite in2="hardAlpha" operator="out"/>
<feColorMatrix type="matrix" values="0 0 0 0 0.579264 0 0 0 0 0.204059 0 0 0 0 0 0 0 0 0.32 0"/>
<feBlend mode="normal" in2="BackgroundImageFix" result="effect1_dropShadow_293_343"/>
<feColorMatrix in="SourceAlpha" type="matrix" values="0 0 0 0 0 0 0 0 0 0 0 0 0 0 0 0 0 0 127 0" result="hardAlpha"/>
<feOffset dy="4"/>
<feComposite in2="hardAlpha" operator="out"/>
<feColorMatrix type="matrix" values="0 0 0 0 1 0 0 0 0 0.331797 0 0 0 0 0 0 0 0 1 0"/>
<feBlend mode="normal" in2="effect1_dropShadow_293_343" result="effect2_dropShadow_293_343"/>
<feBlend mode="normal" in="SourceGraphic" in2="effect2_dropShadow_293_343" result="shape"/>
</filter>
<filter id="filter7_dd_293_343" x="202.117" y="304.664" width="197.033" height="207.984" filterUnits="userSpaceOnUse" color-interpolation-filters="sRGB">
<feFlood flood-opacity="0" result="BackgroundImageFix"/>
<feColorMatrix in="SourceAlpha" type="matrix" values="0 0 0 0 0 0 0 0 0 0 0 0 0 0 0 0 0 0 127 0" result="hardAlpha"/>
<feOffset dy="4"/>
<feGaussianBlur stdDeviation="16"/>
<feComposite in2="hardAlpha" operator="out"/>
<feColorMatrix type="matrix" values="0 0 0 0 0.988235 0 0 0 0 0.541176 0 0 0 0 0.298039 0 0 0 0.32 0"/>
<feBlend mode="normal" in2="BackgroundImageFix" result="effect1_dropShadow_293_343"/>
<feColorMatrix in="SourceAlpha" type="matrix" values="0 0 0 0 0 0 0 0 0 0 0 0 0 0 0 0 0 0 127 0" result="hardAlpha"/>
<feOffset dy="1"/>
<feComposite in2="hardAlpha" operator="out"/>
<feColorMatrix type="matrix" values="0 0 0 0 0.809896 0 0 0 0 0.239739 0 0 0 0 0.277749 0 0 0 1 0"/>
<feBlend mode="normal" in2="effect1_dropShadow_293_343" result="effect2_dropShadow_293_343"/>
<feBlend mode="normal" in="SourceGraphic" in2="effect2_dropShadow_293_343" result="shape"/>
</filter>
<linearGradient id="paint0_linear_293_343" x1="227.809" y1="-22.7357" x2="309.726" y2="-7.57575" gradientUnits="userSpaceOnUse">
<stop stop-color="#FAFF1A"/>
<stop offset="1" stop-color="#FC1C7A"/>
</linearGradient>
<linearGradient id="paint1_linear_293_343" x1="3.59331" y1="162.457" x2="282.076" y2="168.155" gradientUnits="userSpaceOnUse">
<stop stop-color="#FAFF1A"/>
<stop offset="1" stop-color="#FC1C7A"/>
</linearGradient>
<linearGradient id="paint2_linear_293_343" x1="63.4054" y1="145.127" x2="252.212" y2="61.1025" gradientUnits="userSpaceOnUse">
<stop stop-color="#FAFF1A"/>
<stop offset="1" stop-color="#FC1C7A"/>
</linearGradient>
<linearGradient id="paint3_linear_293_343" x1="63.2248" y1="249.306" x2="344.75" y2="124.018" gradientUnits="userSpaceOnUse">
<stop stop-color="#FAFF1A"/>
<stop offset="1" stop-color="#FC1C7A"/>
</linearGradient>
</defs>
</svg>
