<svg xmlns="http://www.w3.org/2000/svg" width="103" height="53" viewBox="0 0 103 53" fill="none">
  <g filter="url(#filter0_d_285_595)">
    <path d="M11.1778 13.4452C12.3821 10.3869 15.3345 8.37646 18.6214 8.37646L85.3637 8.3764C88.8287 8.3764 91.8998 10.607 92.9715 13.9021L96.4611 24.6314C97.9025 29.0633 95.2656 33.7842 90.736 34.881L51.3221 44.4246C50.0956 44.7216 48.8161 44.7242 47.5883 44.4322L12.1101 35.9938C7.37461 34.8675 4.73403 29.8087 6.51752 25.2797L11.1778 13.4452Z" fill="url(#paint0_linear_285_595)"/>
    <path d="M11.643 13.6284C12.7721 10.7613 15.54 8.87646 18.6214 8.87646L85.3637 8.8764C88.6121 8.8764 91.4913 10.9676 92.496 14.0567L95.9856 24.786C97.3369 28.9409 94.8648 33.3668 90.6183 34.3951L51.2045 43.9386C50.0546 44.2171 48.8551 44.2195 47.704 43.9457L12.2258 35.5074C7.78627 34.4515 5.31073 29.7089 6.98275 25.4629L11.643 13.6284Z" stroke="#F570FF"/>
    <path d="M11.643 13.6284C12.7721 10.7613 15.54 8.87646 18.6214 8.87646L85.3637 8.8764C88.6121 8.8764 91.4913 10.9676 92.496 14.0567L95.9856 24.786C97.3369 28.9409 94.8648 33.3668 90.6183 34.3951L51.2045 43.9386C50.0546 44.2171 48.8551 44.2195 47.704 43.9457L12.2258 35.5074C7.78627 34.4515 5.31073 29.7089 6.98275 25.4629L11.643 13.6284Z" stroke="#111111"/>
  </g>
  <g filter="url(#filter1_d_285_595)">
    <mask id="path-3-outside-1_285_595" maskUnits="userSpaceOnUse" x="17.1016" y="16.0447" width="68" height="14" fill="black">
      <rect fill="white" x="17.1016" y="16.0447" width="68" height="14"/>
      <path d="M23.1563 28.8141C22.0363 28.8191 21.1023 28.6686 20.3543 28.3626C19.6169 28.0459 19.0604 27.6377 18.6848 27.1381C18.3198 26.6277 18.1254 26.0899 18.1016 25.5247C18.1011 25.4287 18.1328 25.3485 18.1965 25.2842C18.2602 25.22 18.3401 25.1876 18.4361 25.1872L20.98 25.1758C21.1294 25.1751 21.2468 25.2013 21.3324 25.2542C21.4179 25.2965 21.5089 25.3601 21.6052 25.445C21.7018 25.5619 21.8143 25.6734 21.9427 25.7795C22.0712 25.8749 22.2369 25.9542 22.4398 26.0173C22.6427 26.0697 22.8775 26.0953 23.1442 26.0941C23.6348 26.0919 24.0132 26.0262 24.2793 25.897C24.5453 25.7572 24.6778 25.5699 24.6768 25.3353C24.676 25.1539 24.6006 25.0049 24.4508 24.8883C24.3116 24.7715 24.0711 24.666 23.7294 24.5715C23.3876 24.477 22.9232 24.3778 22.336 24.2737C21.5141 24.1387 20.8038 23.9392 20.2053 23.6752C19.6067 23.4006 19.1464 23.0346 18.8244 22.5774C18.513 22.1095 18.3557 21.5342 18.3527 20.8515C18.3496 20.1582 18.5388 19.544 18.9204 19.0089C19.3127 18.4739 19.8548 18.0554 20.5468 17.7537C21.2495 17.4518 22.0648 17.2989 22.9928 17.2947C23.7608 17.2913 24.4386 17.3896 25.0261 17.5896C25.6244 17.7896 26.1269 18.054 26.5337 18.3829C26.9405 18.7011 27.2513 19.0463 27.4663 19.4187C27.6813 19.7911 27.7949 20.1479 27.8071 20.4892C27.8076 20.5852 27.7706 20.6707 27.6963 20.7457C27.6326 20.81 27.558 20.8423 27.4727 20.8427L24.8007 20.8547C24.6727 20.8552 24.5606 20.8344 24.4645 20.7922C24.3789 20.7499 24.2986 20.6809 24.2235 20.5852C24.1695 20.4361 24.0356 20.3034 23.8217 20.187C23.6079 20.0706 23.3356 20.0132 23.005 20.0147C22.6423 20.0163 22.3653 20.0815 22.1738 20.2104C21.9824 20.3286 21.8871 20.505 21.8882 20.7397C21.8889 20.8997 21.9482 21.0381 22.0661 21.1549C22.1839 21.2717 22.3924 21.3774 22.6915 21.4721C22.9905 21.5561 23.4069 21.6502 23.9408 21.7545C24.9547 21.8993 25.7717 22.109 26.3916 22.3835C27.0222 22.6581 27.4824 23.0187 27.7724 23.4654C28.0625 23.9121 28.209 24.4714 28.212 25.1434C28.2154 25.9008 27.9996 26.5524 27.5647 27.0983C27.1298 27.6443 26.529 28.0683 25.7624 28.3704C25.0063 28.6618 24.1377 28.8097 23.1563 28.8141Z"/>
      <path d="M31.5852 28.6164C31.4678 28.6169 31.3663 28.58 31.2807 28.5057C31.2056 28.4207 31.1678 28.3196 31.1673 28.2022L31.1324 20.3943L28.3804 20.4066C28.2631 20.4072 28.1616 20.3703 28.0759 20.296C28.0008 20.211 27.9631 20.1098 27.9625 19.9925L27.9529 17.8485C27.9524 17.7312 27.9893 17.635 28.0637 17.56C28.1486 17.4743 28.2497 17.4312 28.3671 17.4307L37.359 17.3904C37.4763 17.3899 37.5725 17.4321 37.6476 17.5171C37.7332 17.5914 37.7763 17.6872 37.7768 17.8046L37.7864 19.9485C37.787 20.0659 37.7448 20.1674 37.6598 20.2531C37.5855 20.3281 37.4896 20.3659 37.3723 20.3664L34.6203 20.3787L34.6553 28.1866C34.6558 28.304 34.6136 28.4055 34.5286 28.4912C34.4543 28.5662 34.3585 28.604 34.2411 28.6045L31.5852 28.6164Z"/>
      <path d="M36.6256 28.5938C36.5296 28.5942 36.4441 28.5626 36.3692 28.499C36.3048 28.4246 36.2725 28.3394 36.272 28.2434C36.2718 28.2007 36.2823 28.1634 36.3035 28.1313L39.9057 17.875C39.9372 17.7576 40.006 17.6452 40.1122 17.5381C40.229 17.4309 40.3835 17.3769 40.5755 17.376L43.5034 17.3629C43.7061 17.362 43.861 17.4147 43.9681 17.5209C44.0753 17.627 44.1451 17.7387 44.1776 17.8559L47.8874 28.0794C47.8982 28.1114 47.9037 28.1487 47.9039 28.1913C47.9044 28.2873 47.8674 28.3728 47.7931 28.4478C47.7294 28.5121 47.6495 28.5445 47.5535 28.5449L45.0895 28.5559C44.9082 28.5568 44.7747 28.5147 44.689 28.4297C44.6032 28.3448 44.5442 28.2651 44.5119 28.1905L44.0099 26.8488L40.1539 26.866L39.6639 28.2122C39.6323 28.287 39.574 28.3673 39.489 28.453C39.4147 28.5387 39.2816 28.5819 39.0896 28.5828L36.6256 28.5938ZM40.8778 24.1587L43.2618 24.1481L42.0457 20.5535L40.8778 24.1587Z"/>
      <path d="M48.5831 28.5403C48.4764 28.5408 48.3803 28.5039 48.2946 28.4296C48.2089 28.3447 48.1658 28.2435 48.1653 28.1262L48.1189 17.7583C48.1183 17.6409 48.1606 17.5448 48.2456 17.4697C48.3305 17.384 48.4263 17.3409 48.533 17.3404L51.077 17.329C51.1943 17.3285 51.2905 17.3708 51.3655 17.4558C51.4512 17.53 51.4943 17.6258 51.4948 17.7432L51.5099 21.1031L53.8785 17.6525C53.9314 17.5776 54.0058 17.5026 54.1014 17.4275C54.1971 17.3524 54.3303 17.3145 54.5009 17.3137L57.4289 17.3006C57.5249 17.3002 57.6051 17.3372 57.6694 17.4115C57.7444 17.4752 57.7821 17.555 57.7825 17.651C57.7828 17.715 57.7617 17.7738 57.7193 17.8273L54.3809 22.6743L58.0527 27.9699C58.0955 28.0124 58.1171 28.071 58.1174 28.1456C58.1179 28.2416 58.0809 28.3271 58.0066 28.4021C57.9429 28.4664 57.863 28.4988 57.767 28.4992L54.7431 28.5127C54.5404 28.5137 54.3855 28.4663 54.2784 28.3708C54.182 28.2753 54.123 28.2062 54.1015 28.1636L51.5249 24.4631L51.5412 28.1111C51.5418 28.2284 51.4995 28.3299 51.4146 28.4156C51.3403 28.4906 51.2444 28.5284 51.1271 28.5289L48.5831 28.5403Z"/>
      <path d="M58.8143 28.4945C58.7076 28.495 58.6114 28.4581 58.5258 28.3838C58.4401 28.2989 58.3969 28.1977 58.3964 28.0804L58.35 17.7125C58.3495 17.5952 58.3917 17.499 58.4767 17.4239C58.5617 17.3382 58.6575 17.2951 58.7641 17.2946L61.4841 17.2825C61.6015 17.2819 61.6976 17.3242 61.7727 17.4092C61.8584 17.4835 61.9015 17.5793 61.902 17.6966L61.9484 28.0645C61.9489 28.1818 61.9067 28.2834 61.8217 28.3691C61.7474 28.4441 61.6516 28.4818 61.5342 28.4824L58.8143 28.4945Z"/>
      <path d="M63.5455 28.4734C63.4388 28.4738 63.3426 28.4369 63.257 28.3627C63.1713 28.2777 63.1281 28.1766 63.1276 28.0592L63.0812 17.6913C63.0807 17.574 63.1229 17.4778 63.2079 17.4028C63.2929 17.317 63.3887 17.274 63.4953 17.2735L65.6233 17.264C65.8153 17.2631 65.9542 17.3105 66.04 17.4061C66.1257 17.491 66.1846 17.5548 66.2168 17.5973L69.5365 22.8785L69.5132 17.6626C69.5126 17.5452 69.5549 17.449 69.6399 17.374C69.7248 17.2883 69.8206 17.2452 69.9273 17.2447L72.3433 17.2339C72.4606 17.2334 72.5568 17.2756 72.6318 17.3606C72.7175 17.4349 72.7606 17.5307 72.7611 17.648L72.8075 28.0159C72.808 28.1332 72.7658 28.2348 72.6809 28.3205C72.6065 28.3955 72.5107 28.4332 72.3934 28.4338L70.2814 28.4432C70.0787 28.4441 69.9345 28.4021 69.8488 28.3172C69.7631 28.2215 69.7041 28.1525 69.6719 28.1099L66.3536 23.1327L66.3756 28.0447C66.3761 28.162 66.3339 28.2635 66.2489 28.3493C66.1746 28.4243 66.0788 28.462 65.9614 28.4626L63.5455 28.4734Z"/>
      <path d="M78.8975 28.5647C77.8415 28.5694 76.9342 28.4135 76.1754 28.0968C75.4166 27.7696 74.8224 27.2816 74.3928 26.6328C73.9633 25.9841 73.7303 25.1798 73.694 24.2199C73.6814 23.772 73.6739 23.292 73.6716 22.78C73.6693 22.2573 73.6724 21.7666 73.681 21.3079C73.7089 20.3798 73.9347 19.6001 74.3585 18.9689C74.7931 18.3376 75.3936 17.8602 76.1602 17.5368C76.9267 17.2134 77.822 17.0494 78.846 17.0448C79.6673 17.0411 80.3984 17.1338 81.0392 17.323C81.6801 17.5121 82.2253 17.771 82.6747 18.0997C83.1349 18.4283 83.4832 18.8001 83.7197 19.215C83.9669 19.6192 84.0968 20.04 84.1094 20.4773C84.1098 20.5733 84.0729 20.6588 83.9985 20.7338C83.9348 20.7981 83.855 20.8304 83.759 20.8308L80.815 20.844C80.7083 20.8445 80.6229 20.8289 80.5588 20.7972C80.4946 20.7548 80.4357 20.7017 80.3821 20.6379C80.3283 20.5315 80.2424 20.4092 80.1244 20.2711C80.0171 20.1329 79.862 20.0163 79.6589 19.9212C79.4557 19.8154 79.1888 19.7633 78.8582 19.7648C78.3568 19.767 77.9681 19.8967 77.6919 20.154C77.4157 20.4112 77.2682 20.8172 77.2493 21.372C77.2213 22.2681 77.2254 23.1854 77.2616 24.1239C77.2857 24.7318 77.4423 25.1738 77.7316 25.4499C78.0314 25.7152 78.432 25.8467 78.9334 25.8445C79.264 25.843 79.5571 25.7884 79.8126 25.6805C80.0788 25.5727 80.2861 25.4064 80.4344 25.1818C80.5827 24.9464 80.656 24.6474 80.6544 24.2848L80.6537 24.1248L79.5177 24.1298C79.4004 24.1304 79.2988 24.0882 79.2131 24.0032C79.1381 23.9182 79.1003 23.8224 79.0998 23.7157L79.0932 22.2277C79.0927 22.1104 79.1296 22.0142 79.2039 21.9392C79.2888 21.8535 79.39 21.8104 79.5073 21.8099L83.7153 21.791C83.8326 21.7905 83.9341 21.8327 84.0198 21.9177C84.1055 21.992 84.1486 22.0878 84.1491 22.2051L84.1579 24.1571C84.1621 25.0957 83.9416 25.8914 83.4965 26.5441C83.0515 27.1967 82.435 27.6955 81.6472 28.0404C80.8594 28.3852 79.9429 28.56 78.8975 28.5647Z"/>
    </mask>
    <path d="M23.1563 28.8141C22.0363 28.8191 21.1023 28.6686 20.3543 28.3626C19.6169 28.0459 19.0604 27.6377 18.6848 27.1381C18.3198 26.6277 18.1254 26.0899 18.1016 25.5247C18.1011 25.4287 18.1328 25.3485 18.1965 25.2842C18.2602 25.22 18.3401 25.1876 18.4361 25.1872L20.98 25.1758C21.1294 25.1751 21.2468 25.2013 21.3324 25.2542C21.4179 25.2965 21.5089 25.3601 21.6052 25.445C21.7018 25.5619 21.8143 25.6734 21.9427 25.7795C22.0712 25.8749 22.2369 25.9542 22.4398 26.0173C22.6427 26.0697 22.8775 26.0953 23.1442 26.0941C23.6348 26.0919 24.0132 26.0262 24.2793 25.897C24.5453 25.7572 24.6778 25.5699 24.6768 25.3353C24.676 25.1539 24.6006 25.0049 24.4508 24.8883C24.3116 24.7715 24.0711 24.666 23.7294 24.5715C23.3876 24.477 22.9232 24.3778 22.336 24.2737C21.5141 24.1387 20.8038 23.9392 20.2053 23.6752C19.6067 23.4006 19.1464 23.0346 18.8244 22.5774C18.513 22.1095 18.3557 21.5342 18.3527 20.8515C18.3496 20.1582 18.5388 19.544 18.9204 19.0089C19.3127 18.4739 19.8548 18.0554 20.5468 17.7537C21.2495 17.4518 22.0648 17.2989 22.9928 17.2947C23.7608 17.2913 24.4386 17.3896 25.0261 17.5896C25.6244 17.7896 26.1269 18.054 26.5337 18.3829C26.9405 18.7011 27.2513 19.0463 27.4663 19.4187C27.6813 19.7911 27.7949 20.1479 27.8071 20.4892C27.8076 20.5852 27.7706 20.6707 27.6963 20.7457C27.6326 20.81 27.558 20.8423 27.4727 20.8427L24.8007 20.8547C24.6727 20.8552 24.5606 20.8344 24.4645 20.7922C24.3789 20.7499 24.2986 20.6809 24.2235 20.5852C24.1695 20.4361 24.0356 20.3034 23.8217 20.187C23.6079 20.0706 23.3356 20.0132 23.005 20.0147C22.6423 20.0163 22.3653 20.0815 22.1738 20.2104C21.9824 20.3286 21.8871 20.505 21.8882 20.7397C21.8889 20.8997 21.9482 21.0381 22.0661 21.1549C22.1839 21.2717 22.3924 21.3774 22.6915 21.4721C22.9905 21.5561 23.4069 21.6502 23.9408 21.7545C24.9547 21.8993 25.7717 22.109 26.3916 22.3835C27.0222 22.6581 27.4824 23.0187 27.7724 23.4654C28.0625 23.9121 28.209 24.4714 28.212 25.1434C28.2154 25.9008 27.9996 26.5524 27.5647 27.0983C27.1298 27.6443 26.529 28.0683 25.7624 28.3704C25.0063 28.6618 24.1377 28.8097 23.1563 28.8141Z" fill="#111111"/>
    <path d="M31.5852 28.6164C31.4678 28.6169 31.3663 28.58 31.2807 28.5057C31.2056 28.4207 31.1678 28.3196 31.1673 28.2022L31.1324 20.3943L28.3804 20.4066C28.2631 20.4072 28.1616 20.3703 28.0759 20.296C28.0008 20.211 27.9631 20.1098 27.9625 19.9925L27.9529 17.8485C27.9524 17.7312 27.9893 17.635 28.0637 17.56C28.1486 17.4743 28.2497 17.4312 28.3671 17.4307L37.359 17.3904C37.4763 17.3899 37.5725 17.4321 37.6476 17.5171C37.7332 17.5914 37.7763 17.6872 37.7768 17.8046L37.7864 19.9485C37.787 20.0659 37.7448 20.1674 37.6598 20.2531C37.5855 20.3281 37.4896 20.3659 37.3723 20.3664L34.6203 20.3787L34.6553 28.1866C34.6558 28.304 34.6136 28.4055 34.5286 28.4912C34.4543 28.5662 34.3585 28.604 34.2411 28.6045L31.5852 28.6164Z" fill="#111111"/>
    <path d="M36.6256 28.5938C36.5296 28.5942 36.4441 28.5626 36.3692 28.499C36.3048 28.4246 36.2725 28.3394 36.272 28.2434C36.2718 28.2007 36.2823 28.1634 36.3035 28.1313L39.9057 17.875C39.9372 17.7576 40.006 17.6452 40.1122 17.5381C40.229 17.4309 40.3835 17.3769 40.5755 17.376L43.5034 17.3629C43.7061 17.362 43.861 17.4147 43.9681 17.5209C44.0753 17.627 44.1451 17.7387 44.1776 17.8559L47.8874 28.0794C47.8982 28.1114 47.9037 28.1487 47.9039 28.1913C47.9044 28.2873 47.8674 28.3728 47.7931 28.4478C47.7294 28.5121 47.6495 28.5445 47.5535 28.5449L45.0895 28.5559C44.9082 28.5568 44.7747 28.5147 44.689 28.4297C44.6032 28.3448 44.5442 28.2651 44.5119 28.1905L44.0099 26.8488L40.1539 26.866L39.6639 28.2122C39.6323 28.287 39.574 28.3673 39.489 28.453C39.4147 28.5387 39.2816 28.5819 39.0896 28.5828L36.6256 28.5938ZM40.8778 24.1587L43.2618 24.1481L42.0457 20.5535L40.8778 24.1587Z" fill="#111111"/>
    <path d="M48.5831 28.5403C48.4764 28.5408 48.3803 28.5039 48.2946 28.4296C48.2089 28.3447 48.1658 28.2435 48.1653 28.1262L48.1189 17.7583C48.1183 17.6409 48.1606 17.5448 48.2456 17.4697C48.3305 17.384 48.4263 17.3409 48.533 17.3404L51.077 17.329C51.1943 17.3285 51.2905 17.3708 51.3655 17.4558C51.4512 17.53 51.4943 17.6258 51.4948 17.7432L51.5099 21.1031L53.8785 17.6525C53.9314 17.5776 54.0058 17.5026 54.1014 17.4275C54.1971 17.3524 54.3303 17.3145 54.5009 17.3137L57.4289 17.3006C57.5249 17.3002 57.6051 17.3372 57.6694 17.4115C57.7444 17.4752 57.7821 17.555 57.7825 17.651C57.7828 17.715 57.7617 17.7738 57.7193 17.8273L54.3809 22.6743L58.0527 27.9699C58.0955 28.0124 58.1171 28.071 58.1174 28.1456C58.1179 28.2416 58.0809 28.3271 58.0066 28.4021C57.9429 28.4664 57.863 28.4988 57.767 28.4992L54.7431 28.5127C54.5404 28.5137 54.3855 28.4663 54.2784 28.3708C54.182 28.2753 54.123 28.2062 54.1015 28.1636L51.5249 24.4631L51.5412 28.1111C51.5418 28.2284 51.4995 28.3299 51.4146 28.4156C51.3403 28.4906 51.2444 28.5284 51.1271 28.5289L48.5831 28.5403Z" fill="#111111"/>
    <path d="M58.8143 28.4945C58.7076 28.495 58.6114 28.4581 58.5258 28.3838C58.4401 28.2989 58.3969 28.1977 58.3964 28.0804L58.35 17.7125C58.3495 17.5952 58.3917 17.499 58.4767 17.4239C58.5617 17.3382 58.6575 17.2951 58.7641 17.2946L61.4841 17.2825C61.6015 17.2819 61.6976 17.3242 61.7727 17.4092C61.8584 17.4835 61.9015 17.5793 61.902 17.6966L61.9484 28.0645C61.9489 28.1818 61.9067 28.2834 61.8217 28.3691C61.7474 28.4441 61.6516 28.4818 61.5342 28.4824L58.8143 28.4945Z" fill="#111111"/>
    <path d="M63.5455 28.4734C63.4388 28.4738 63.3426 28.4369 63.257 28.3627C63.1713 28.2777 63.1281 28.1766 63.1276 28.0592L63.0812 17.6913C63.0807 17.574 63.1229 17.4778 63.2079 17.4028C63.2929 17.317 63.3887 17.274 63.4953 17.2735L65.6233 17.264C65.8153 17.2631 65.9542 17.3105 66.04 17.4061C66.1257 17.491 66.1846 17.5548 66.2168 17.5973L69.5365 22.8785L69.5132 17.6626C69.5126 17.5452 69.5549 17.449 69.6399 17.374C69.7248 17.2883 69.8206 17.2452 69.9273 17.2447L72.3433 17.2339C72.4606 17.2334 72.5568 17.2756 72.6318 17.3606C72.7175 17.4349 72.7606 17.5307 72.7611 17.648L72.8075 28.0159C72.808 28.1332 72.7658 28.2348 72.6809 28.3205C72.6065 28.3955 72.5107 28.4332 72.3934 28.4338L70.2814 28.4432C70.0787 28.4441 69.9345 28.4021 69.8488 28.3172C69.7631 28.2215 69.7041 28.1525 69.6719 28.1099L66.3536 23.1327L66.3756 28.0447C66.3761 28.162 66.3339 28.2635 66.2489 28.3493C66.1746 28.4243 66.0788 28.462 65.9614 28.4626L63.5455 28.4734Z" fill="#111111"/>
    <path d="M78.8975 28.5647C77.8415 28.5694 76.9342 28.4135 76.1754 28.0968C75.4166 27.7696 74.8224 27.2816 74.3928 26.6328C73.9633 25.9841 73.7303 25.1798 73.694 24.2199C73.6814 23.772 73.6739 23.292 73.6716 22.78C73.6693 22.2573 73.6724 21.7666 73.681 21.3079C73.7089 20.3798 73.9347 19.6001 74.3585 18.9689C74.7931 18.3376 75.3936 17.8602 76.1602 17.5368C76.9267 17.2134 77.822 17.0494 78.846 17.0448C79.6673 17.0411 80.3984 17.1338 81.0392 17.323C81.6801 17.5121 82.2253 17.771 82.6747 18.0997C83.1349 18.4283 83.4832 18.8001 83.7197 19.215C83.9669 19.6192 84.0968 20.04 84.1094 20.4773C84.1098 20.5733 84.0729 20.6588 83.9985 20.7338C83.9348 20.7981 83.855 20.8304 83.759 20.8308L80.815 20.844C80.7083 20.8445 80.6229 20.8289 80.5588 20.7972C80.4946 20.7548 80.4357 20.7017 80.3821 20.6379C80.3283 20.5315 80.2424 20.4092 80.1244 20.2711C80.0171 20.1329 79.862 20.0163 79.6589 19.9212C79.4557 19.8154 79.1888 19.7633 78.8582 19.7648C78.3568 19.767 77.9681 19.8967 77.6919 20.154C77.4157 20.4112 77.2682 20.8172 77.2493 21.372C77.2213 22.2681 77.2254 23.1854 77.2616 24.1239C77.2857 24.7318 77.4423 25.1738 77.7316 25.4499C78.0314 25.7152 78.432 25.8467 78.9334 25.8445C79.264 25.843 79.5571 25.7884 79.8126 25.6805C80.0788 25.5727 80.2861 25.4064 80.4344 25.1818C80.5827 24.9464 80.656 24.6474 80.6544 24.2848L80.6537 24.1248L79.5177 24.1298C79.4004 24.1304 79.2988 24.0882 79.2131 24.0032C79.1381 23.9182 79.1003 23.8224 79.0998 23.7157L79.0932 22.2277C79.0927 22.1104 79.1296 22.0142 79.2039 21.9392C79.2888 21.8535 79.39 21.8104 79.5073 21.8099L83.7153 21.791C83.8326 21.7905 83.9341 21.8327 84.0198 21.9177C84.1055 21.992 84.1486 22.0878 84.1491 22.2051L84.1579 24.1571C84.1621 25.0957 83.9416 25.8914 83.4965 26.5441C83.0515 27.1967 82.435 27.6955 81.6472 28.0404C80.8594 28.3852 79.9429 28.56 78.8975 28.5647Z" fill="#111111"/>
    <path d="M23.1563 28.8141C22.0363 28.8191 21.1023 28.6686 20.3543 28.3626C19.6169 28.0459 19.0604 27.6377 18.6848 27.1381C18.3198 26.6277 18.1254 26.0899 18.1016 25.5247C18.1011 25.4287 18.1328 25.3485 18.1965 25.2842C18.2602 25.22 18.3401 25.1876 18.4361 25.1872L20.98 25.1758C21.1294 25.1751 21.2468 25.2013 21.3324 25.2542C21.4179 25.2965 21.5089 25.3601 21.6052 25.445C21.7018 25.5619 21.8143 25.6734 21.9427 25.7795C22.0712 25.8749 22.2369 25.9542 22.4398 26.0173C22.6427 26.0697 22.8775 26.0953 23.1442 26.0941C23.6348 26.0919 24.0132 26.0262 24.2793 25.897C24.5453 25.7572 24.6778 25.5699 24.6768 25.3353C24.676 25.1539 24.6006 25.0049 24.4508 24.8883C24.3116 24.7715 24.0711 24.666 23.7294 24.5715C23.3876 24.477 22.9232 24.3778 22.336 24.2737C21.5141 24.1387 20.8038 23.9392 20.2053 23.6752C19.6067 23.4006 19.1464 23.0346 18.8244 22.5774C18.513 22.1095 18.3557 21.5342 18.3527 20.8515C18.3496 20.1582 18.5388 19.544 18.9204 19.0089C19.3127 18.4739 19.8548 18.0554 20.5468 17.7537C21.2495 17.4518 22.0648 17.2989 22.9928 17.2947C23.7608 17.2913 24.4386 17.3896 25.0261 17.5896C25.6244 17.7896 26.1269 18.054 26.5337 18.3829C26.9405 18.7011 27.2513 19.0463 27.4663 19.4187C27.6813 19.7911 27.7949 20.1479 27.8071 20.4892C27.8076 20.5852 27.7706 20.6707 27.6963 20.7457C27.6326 20.81 27.558 20.8423 27.4727 20.8427L24.8007 20.8547C24.6727 20.8552 24.5606 20.8344 24.4645 20.7922C24.3789 20.7499 24.2986 20.6809 24.2235 20.5852C24.1695 20.4361 24.0356 20.3034 23.8217 20.187C23.6079 20.0706 23.3356 20.0132 23.005 20.0147C22.6423 20.0163 22.3653 20.0815 22.1738 20.2104C21.9824 20.3286 21.8871 20.505 21.8882 20.7397C21.8889 20.8997 21.9482 21.0381 22.0661 21.1549C22.1839 21.2717 22.3924 21.3774 22.6915 21.4721C22.9905 21.5561 23.4069 21.6502 23.9408 21.7545C24.9547 21.8993 25.7717 22.109 26.3916 22.3835C27.0222 22.6581 27.4824 23.0187 27.7724 23.4654C28.0625 23.9121 28.209 24.4714 28.212 25.1434C28.2154 25.9008 27.9996 26.5524 27.5647 27.0983C27.1298 27.6443 26.529 28.0683 25.7624 28.3704C25.0063 28.6618 24.1377 28.8097 23.1563 28.8141Z" stroke="white" stroke-width="0.8" mask="url(#path-3-outside-1_285_595)"/>
    <path d="M31.5852 28.6164C31.4678 28.6169 31.3663 28.58 31.2807 28.5057C31.2056 28.4207 31.1678 28.3196 31.1673 28.2022L31.1324 20.3943L28.3804 20.4066C28.2631 20.4072 28.1616 20.3703 28.0759 20.296C28.0008 20.211 27.9631 20.1098 27.9625 19.9925L27.9529 17.8485C27.9524 17.7312 27.9893 17.635 28.0637 17.56C28.1486 17.4743 28.2497 17.4312 28.3671 17.4307L37.359 17.3904C37.4763 17.3899 37.5725 17.4321 37.6476 17.5171C37.7332 17.5914 37.7763 17.6872 37.7768 17.8046L37.7864 19.9485C37.787 20.0659 37.7448 20.1674 37.6598 20.2531C37.5855 20.3281 37.4896 20.3659 37.3723 20.3664L34.6203 20.3787L34.6553 28.1866C34.6558 28.304 34.6136 28.4055 34.5286 28.4912C34.4543 28.5662 34.3585 28.604 34.2411 28.6045L31.5852 28.6164Z" stroke="white" stroke-width="0.8" mask="url(#path-3-outside-1_285_595)"/>
    <path d="M36.6256 28.5938C36.5296 28.5942 36.4441 28.5626 36.3692 28.499C36.3048 28.4246 36.2725 28.3394 36.272 28.2434C36.2718 28.2007 36.2823 28.1634 36.3035 28.1313L39.9057 17.875C39.9372 17.7576 40.006 17.6452 40.1122 17.5381C40.229 17.4309 40.3835 17.3769 40.5755 17.376L43.5034 17.3629C43.7061 17.362 43.861 17.4147 43.9681 17.5209C44.0753 17.627 44.1451 17.7387 44.1776 17.8559L47.8874 28.0794C47.8982 28.1114 47.9037 28.1487 47.9039 28.1913C47.9044 28.2873 47.8674 28.3728 47.7931 28.4478C47.7294 28.5121 47.6495 28.5445 47.5535 28.5449L45.0895 28.5559C44.9082 28.5568 44.7747 28.5147 44.689 28.4297C44.6032 28.3448 44.5442 28.2651 44.5119 28.1905L44.0099 26.8488L40.1539 26.866L39.6639 28.2122C39.6323 28.287 39.574 28.3673 39.489 28.453C39.4147 28.5387 39.2816 28.5819 39.0896 28.5828L36.6256 28.5938ZM40.8778 24.1587L43.2618 24.1481L42.0457 20.5535L40.8778 24.1587Z" stroke="white" stroke-width="0.8" mask="url(#path-3-outside-1_285_595)"/>
    <path d="M48.5831 28.5403C48.4764 28.5408 48.3803 28.5039 48.2946 28.4296C48.2089 28.3447 48.1658 28.2435 48.1653 28.1262L48.1189 17.7583C48.1183 17.6409 48.1606 17.5448 48.2456 17.4697C48.3305 17.384 48.4263 17.3409 48.533 17.3404L51.077 17.329C51.1943 17.3285 51.2905 17.3708 51.3655 17.4558C51.4512 17.53 51.4943 17.6258 51.4948 17.7432L51.5099 21.1031L53.8785 17.6525C53.9314 17.5776 54.0058 17.5026 54.1014 17.4275C54.1971 17.3524 54.3303 17.3145 54.5009 17.3137L57.4289 17.3006C57.5249 17.3002 57.6051 17.3372 57.6694 17.4115C57.7444 17.4752 57.7821 17.555 57.7825 17.651C57.7828 17.715 57.7617 17.7738 57.7193 17.8273L54.3809 22.6743L58.0527 27.9699C58.0955 28.0124 58.1171 28.071 58.1174 28.1456C58.1179 28.2416 58.0809 28.3271 58.0066 28.4021C57.9429 28.4664 57.863 28.4988 57.767 28.4992L54.7431 28.5127C54.5404 28.5137 54.3855 28.4663 54.2784 28.3708C54.182 28.2753 54.123 28.2062 54.1015 28.1636L51.5249 24.4631L51.5412 28.1111C51.5418 28.2284 51.4995 28.3299 51.4146 28.4156C51.3403 28.4906 51.2444 28.5284 51.1271 28.5289L48.5831 28.5403Z" stroke="white" stroke-width="0.8" mask="url(#path-3-outside-1_285_595)"/>
    <path d="M58.8143 28.4945C58.7076 28.495 58.6114 28.4581 58.5258 28.3838C58.4401 28.2989 58.3969 28.1977 58.3964 28.0804L58.35 17.7125C58.3495 17.5952 58.3917 17.499 58.4767 17.4239C58.5617 17.3382 58.6575 17.2951 58.7641 17.2946L61.4841 17.2825C61.6015 17.2819 61.6976 17.3242 61.7727 17.4092C61.8584 17.4835 61.9015 17.5793 61.902 17.6966L61.9484 28.0645C61.9489 28.1818 61.9067 28.2834 61.8217 28.3691C61.7474 28.4441 61.6516 28.4818 61.5342 28.4824L58.8143 28.4945Z" stroke="white" stroke-width="0.8" mask="url(#path-3-outside-1_285_595)"/>
    <path d="M63.5455 28.4734C63.4388 28.4738 63.3426 28.4369 63.257 28.3627C63.1713 28.2777 63.1281 28.1766 63.1276 28.0592L63.0812 17.6913C63.0807 17.574 63.1229 17.4778 63.2079 17.4028C63.2929 17.317 63.3887 17.274 63.4953 17.2735L65.6233 17.264C65.8153 17.2631 65.9542 17.3105 66.04 17.4061C66.1257 17.491 66.1846 17.5548 66.2168 17.5973L69.5365 22.8785L69.5132 17.6626C69.5126 17.5452 69.5549 17.449 69.6399 17.374C69.7248 17.2883 69.8206 17.2452 69.9273 17.2447L72.3433 17.2339C72.4606 17.2334 72.5568 17.2756 72.6318 17.3606C72.7175 17.4349 72.7606 17.5307 72.7611 17.648L72.8075 28.0159C72.808 28.1332 72.7658 28.2348 72.6809 28.3205C72.6065 28.3955 72.5107 28.4332 72.3934 28.4338L70.2814 28.4432C70.0787 28.4441 69.9345 28.4021 69.8488 28.3172C69.7631 28.2215 69.7041 28.1525 69.6719 28.1099L66.3536 23.1327L66.3756 28.0447C66.3761 28.162 66.3339 28.2635 66.2489 28.3493C66.1746 28.4243 66.0788 28.462 65.9614 28.4626L63.5455 28.4734Z" stroke="white" stroke-width="0.8" mask="url(#path-3-outside-1_285_595)"/>
    <path d="M78.8975 28.5647C77.8415 28.5694 76.9342 28.4135 76.1754 28.0968C75.4166 27.7696 74.8224 27.2816 74.3928 26.6328C73.9633 25.9841 73.7303 25.1798 73.694 24.2199C73.6814 23.772 73.6739 23.292 73.6716 22.78C73.6693 22.2573 73.6724 21.7666 73.681 21.3079C73.7089 20.3798 73.9347 19.6001 74.3585 18.9689C74.7931 18.3376 75.3936 17.8602 76.1602 17.5368C76.9267 17.2134 77.822 17.0494 78.846 17.0448C79.6673 17.0411 80.3984 17.1338 81.0392 17.323C81.6801 17.5121 82.2253 17.771 82.6747 18.0997C83.1349 18.4283 83.4832 18.8001 83.7197 19.215C83.9669 19.6192 84.0968 20.04 84.1094 20.4773C84.1098 20.5733 84.0729 20.6588 83.9985 20.7338C83.9348 20.7981 83.855 20.8304 83.759 20.8308L80.815 20.844C80.7083 20.8445 80.6229 20.8289 80.5588 20.7972C80.4946 20.7548 80.4357 20.7017 80.3821 20.6379C80.3283 20.5315 80.2424 20.4092 80.1244 20.2711C80.0171 20.1329 79.862 20.0163 79.6589 19.9212C79.4557 19.8154 79.1888 19.7633 78.8582 19.7648C78.3568 19.767 77.9681 19.8967 77.6919 20.154C77.4157 20.4112 77.2682 20.8172 77.2493 21.372C77.2213 22.2681 77.2254 23.1854 77.2616 24.1239C77.2857 24.7318 77.4423 25.1738 77.7316 25.4499C78.0314 25.7152 78.432 25.8467 78.9334 25.8445C79.264 25.843 79.5571 25.7884 79.8126 25.6805C80.0788 25.5727 80.2861 25.4064 80.4344 25.1818C80.5827 24.9464 80.656 24.6474 80.6544 24.2848L80.6537 24.1248L79.5177 24.1298C79.4004 24.1304 79.2988 24.0882 79.2131 24.0032C79.1381 23.9182 79.1003 23.8224 79.0998 23.7157L79.0932 22.2277C79.0927 22.1104 79.1296 22.0142 79.2039 21.9392C79.2888 21.8535 79.39 21.8104 79.5073 21.8099L83.7153 21.791C83.8326 21.7905 83.9341 21.8327 84.0198 21.9177C84.1055 21.992 84.1486 22.0878 84.1491 22.2051L84.1579 24.1571C84.1621 25.0957 83.9416 25.8914 83.4965 26.5441C83.0515 27.1967 82.435 27.6955 81.6472 28.0404C80.8594 28.3852 79.9429 28.56 78.8975 28.5647Z" stroke="white" stroke-width="0.8" mask="url(#path-3-outside-1_285_595)"/>
  </g>
  <defs>
    <filter id="filter0_d_285_595" x="5.95703" y="8.37646" width="90.8984" height="39.2727" filterUnits="userSpaceOnUse" color-interpolation-filters="sRGB">
      <feFlood flood-opacity="0" result="BackgroundImageFix"/>
      <feColorMatrix in="SourceAlpha" type="matrix" values="0 0 0 0 0 0 0 0 0 0 0 0 0 0 0 0 0 0 127 0" result="hardAlpha"/>
      <feOffset dy="3"/>
      <feComposite in2="hardAlpha" operator="out"/>
      <feColorMatrix type="matrix" values="0 0 0 0 0.322324 0 0 0 0 0.462012 0 0 0 0 0.121052 0 0 0 0.64 0"/>
      <feBlend mode="normal" in2="BackgroundImageFix" result="effect1_dropShadow_285_595"/>
      <feBlend mode="normal" in="SourceGraphic" in2="effect1_dropShadow_285_595" result="shape"/>
    </filter>
    <filter id="filter1_d_285_595" x="17.7012" y="16.6448" width="66.8574" height="14.5693" filterUnits="userSpaceOnUse" color-interpolation-filters="sRGB">
      <feFlood flood-opacity="0" result="BackgroundImageFix"/>
      <feColorMatrix in="SourceAlpha" type="matrix" values="0 0 0 0 0 0 0 0 0 0 0 0 0 0 0 0 0 0 127 0" result="hardAlpha"/>
      <feOffset dy="2"/>
      <feComposite in2="hardAlpha" operator="out"/>
      <feColorMatrix type="matrix" values="0 0 0 0 0.984314 0 0 0 0 0.945098 0 0 0 0 0.129412 0 0 0 0.32 0"/>
      <feBlend mode="normal" in2="BackgroundImageFix" result="effect1_dropShadow_285_595"/>
      <feBlend mode="normal" in="SourceGraphic" in2="effect1_dropShadow_285_595" result="shape"/>
    </filter>
    <linearGradient id="paint0_linear_285_595" x1="2.61795" y1="-1.6008" x2="102.41" y2="4.60126" gradientUnits="userSpaceOnUse">
      <stop stop-color="#A5FD1B"/>
      <stop offset="1" stop-color="#FCE61C"/>
    </linearGradient>
  </defs>
</svg>