<svg width="178" height="115" viewBox="0 0 178 115" fill="none" xmlns="http://www.w3.org/2000/svg">
<g filter="url(#filter0_d_305_380)">
<path d="M50.1778 35.4452C51.3821 32.3869 54.3345 30.3765 57.6214 30.3765L124.364 30.3764C127.829 30.3764 130.9 32.607 131.971 35.9021L135.461 46.6314C136.903 51.0633 134.266 55.7842 129.736 56.881L90.3221 66.4246C89.0956 66.7216 87.8161 66.7242 86.5883 66.4322L51.1101 57.9938C46.3746 56.8675 43.734 51.8087 45.5175 47.2797L50.1778 35.4452Z" fill="url(#paint0_linear_305_380)"/>
<path d="M50.643 35.6284C51.7721 32.7613 54.54 30.8765 57.6214 30.8765L124.364 30.8764C127.612 30.8764 130.491 32.9676 131.496 36.0567L134.986 46.786C136.337 50.9409 133.865 55.3668 129.618 56.3951L90.2045 65.9386C89.0546 66.2171 87.8551 66.2195 86.704 65.9457L51.2258 57.5074C46.7863 56.4515 44.3107 51.7089 45.9827 47.4629L50.643 35.6284Z" stroke="#F570FF"/>
<path d="M50.643 35.6284C51.7721 32.7613 54.54 30.8765 57.6214 30.8765L124.364 30.8764C127.612 30.8764 130.491 32.9676 131.496 36.0567L134.986 46.786C136.337 50.9409 133.865 55.3668 129.618 56.3951L90.2045 65.9386C89.0546 66.2171 87.8551 66.2195 86.704 65.9457L51.2258 57.5074C46.7863 56.4515 44.3107 51.7089 45.9827 47.4629L50.643 35.6284Z" stroke="#111111"/>
</g>
<g filter="url(#filter1_d_305_380)">
<mask id="path-3-outside-1_305_380" maskUnits="userSpaceOnUse" x="56.1016" y="38.0447" width="68" height="14" fill="black">
<rect fill="white" x="56.1016" y="38.0447" width="68" height="14"/>
<path d="M62.1563 50.8141C61.0363 50.8191 60.1023 50.6686 59.3543 50.3626C58.6169 50.0459 58.0604 49.6377 57.6848 49.1381C57.3198 48.6277 57.1254 48.0899 57.1016 47.5247C57.1011 47.4287 57.1328 47.3485 57.1965 47.2842C57.2602 47.22 57.3401 47.1876 57.4361 47.1872L59.98 47.1758C60.1294 47.1751 60.2468 47.2013 60.3324 47.2542C60.4179 47.2965 60.5089 47.3601 60.6052 47.445C60.7018 47.5619 60.8143 47.6734 60.9427 47.7795C61.0712 47.8749 61.2369 47.9542 61.4398 48.0173C61.6427 48.0697 61.8775 48.0953 62.1442 48.0941C62.6348 48.0919 63.0132 48.0262 63.2793 47.897C63.5453 47.7572 63.6778 47.5699 63.6768 47.3353C63.676 47.1539 63.6006 47.0049 63.4508 46.8883C63.3116 46.7715 63.0711 46.666 62.7294 46.5715C62.3876 46.477 61.9232 46.3778 61.336 46.2737C60.5141 46.1387 59.8038 45.9392 59.2053 45.6752C58.6067 45.4006 58.1464 45.0346 57.8244 44.5774C57.513 44.1095 57.3557 43.5342 57.3527 42.8515C57.3496 42.1582 57.5388 41.544 57.9204 41.0089C58.3127 40.4739 58.8548 40.0554 59.5468 39.7537C60.2495 39.4518 61.0648 39.2989 61.9928 39.2947C62.7608 39.2913 63.4386 39.3896 64.0261 39.5896C64.6244 39.7896 65.1269 40.054 65.5337 40.3829C65.9405 40.7011 66.2513 41.0463 66.4663 41.4187C66.6813 41.7911 66.7949 42.1479 66.8071 42.4892C66.8076 42.5852 66.7706 42.6707 66.6963 42.7457C66.6326 42.81 66.558 42.8423 66.4727 42.8427L63.8007 42.8547C63.6727 42.8552 63.5606 42.8344 63.4645 42.7922C63.3789 42.7499 63.2986 42.6809 63.2235 42.5852C63.1695 42.4361 63.0356 42.3034 62.8217 42.187C62.6079 42.0706 62.3356 42.0132 62.005 42.0147C61.6423 42.0163 61.3653 42.0815 61.1738 42.2104C60.9824 42.3286 60.8871 42.505 60.8882 42.7397C60.8889 42.8997 60.9482 43.0381 61.0661 43.1549C61.1839 43.2717 61.3924 43.3774 61.6915 43.4721C61.9905 43.5561 62.4069 43.6502 62.9408 43.7545C63.9547 43.8993 64.7717 44.109 65.3916 44.3835C66.0222 44.6581 66.4824 45.0187 66.7724 45.4654C67.0625 45.9121 67.209 46.4714 67.212 47.1434C67.2154 47.9008 66.9996 48.5524 66.5647 49.0983C66.1298 49.6443 65.529 50.0683 64.7624 50.3704C64.0063 50.6618 63.1377 50.8097 62.1563 50.8141Z"/>
<path d="M70.5852 50.6164C70.4678 50.6169 70.3663 50.58 70.2807 50.5057C70.2056 50.4207 70.1678 50.3196 70.1673 50.2022L70.1324 42.3943L67.3804 42.4066C67.2631 42.4072 67.1616 42.3703 67.0759 42.296C67.0008 42.211 66.9631 42.1098 66.9625 41.9925L66.9529 39.8485C66.9524 39.7312 66.9893 39.635 67.0637 39.56C67.1486 39.4743 67.2497 39.4312 67.3671 39.4307L76.359 39.3904C76.4763 39.3899 76.5725 39.4321 76.6476 39.5171C76.7332 39.5914 76.7763 39.6872 76.7768 39.8046L76.7864 41.9485C76.787 42.0659 76.7448 42.1674 76.6598 42.2531C76.5855 42.3281 76.4896 42.3659 76.3723 42.3664L73.6203 42.3787L73.6553 50.1866C73.6558 50.304 73.6136 50.4055 73.5286 50.4912C73.4543 50.5662 73.3585 50.604 73.2411 50.6045L70.5852 50.6164Z"/>
<path d="M75.6256 50.5938C75.5296 50.5942 75.4441 50.5626 75.3692 50.499C75.3048 50.4246 75.2725 50.3394 75.272 50.2434C75.2718 50.2007 75.2823 50.1634 75.3035 50.1313L78.9057 39.875C78.9372 39.7576 79.006 39.6452 79.1122 39.5381C79.229 39.4309 79.3835 39.3769 79.5755 39.376L82.5034 39.3629C82.7061 39.362 82.861 39.4147 82.9681 39.5209C83.0753 39.627 83.1451 39.7387 83.1776 39.8559L86.8874 50.0794C86.8982 50.1114 86.9037 50.1487 86.9039 50.1913C86.9044 50.2873 86.8674 50.3728 86.7931 50.4478C86.7294 50.5121 86.6495 50.5445 86.5535 50.5449L84.0895 50.5559C83.9082 50.5568 83.7747 50.5147 83.689 50.4297C83.6032 50.3448 83.5442 50.2651 83.5119 50.1905L83.0099 48.8488L79.1539 48.866L78.6639 50.2122C78.6323 50.287 78.574 50.3673 78.489 50.453C78.4147 50.5387 78.2816 50.5819 78.0896 50.5828L75.6256 50.5938ZM79.8778 46.1587L82.2618 46.1481L81.0457 42.5535L79.8778 46.1587Z"/>
<path d="M87.5831 50.5403C87.4764 50.5408 87.3803 50.5039 87.2946 50.4296C87.2089 50.3447 87.1658 50.2435 87.1653 50.1262L87.1189 39.7583C87.1183 39.6409 87.1606 39.5448 87.2456 39.4697C87.3305 39.384 87.4263 39.3409 87.533 39.3404L90.077 39.329C90.1943 39.3285 90.2905 39.3708 90.3655 39.4558C90.4512 39.53 90.4943 39.6258 90.4948 39.7432L90.5099 43.1031L92.8785 39.6525C92.9314 39.5776 93.0058 39.5026 93.1014 39.4275C93.1971 39.3524 93.3303 39.3145 93.5009 39.3137L96.4289 39.3006C96.5249 39.3002 96.6051 39.3372 96.6694 39.4115C96.7444 39.4752 96.7821 39.555 96.7825 39.651C96.7828 39.715 96.7617 39.7738 96.7193 39.8273L93.3809 44.6743L97.0527 49.9699C97.0955 50.0124 97.1171 50.071 97.1174 50.1456C97.1179 50.2416 97.0809 50.3271 97.0066 50.4021C96.9429 50.4664 96.863 50.4988 96.767 50.4992L93.7431 50.5127C93.5404 50.5137 93.3855 50.4663 93.2784 50.3708C93.182 50.2753 93.123 50.2062 93.1015 50.1636L90.5249 46.4631L90.5412 50.1111C90.5418 50.2284 90.4995 50.3299 90.4146 50.4156C90.3403 50.4906 90.2444 50.5284 90.1271 50.5289L87.5831 50.5403Z"/>
<path d="M97.8143 50.4945C97.7076 50.495 97.6114 50.4581 97.5258 50.3838C97.4401 50.2989 97.3969 50.1977 97.3964 50.0804L97.35 39.7125C97.3495 39.5952 97.3917 39.499 97.4767 39.4239C97.5617 39.3382 97.6575 39.2951 97.7641 39.2946L100.484 39.2825C100.601 39.2819 100.698 39.3242 100.773 39.4092C100.858 39.4835 100.901 39.5793 100.902 39.6966L100.948 50.0645C100.949 50.1818 100.907 50.2834 100.822 50.3691C100.747 50.4441 100.652 50.4818 100.534 50.4824L97.8143 50.4945Z"/>
<path d="M102.545 50.4734C102.439 50.4738 102.343 50.4369 102.257 50.3627C102.171 50.2777 102.128 50.1766 102.128 50.0592L102.081 39.6913C102.081 39.574 102.123 39.4778 102.208 39.4028C102.293 39.317 102.389 39.274 102.495 39.2735L104.623 39.264C104.815 39.2631 104.954 39.3105 105.04 39.4061C105.126 39.491 105.185 39.5548 105.217 39.5973L108.536 44.8785L108.513 39.6626C108.513 39.5452 108.555 39.449 108.64 39.374C108.725 39.2883 108.821 39.2452 108.927 39.2447L111.343 39.2339C111.461 39.2334 111.557 39.2756 111.632 39.3606C111.717 39.4349 111.761 39.5307 111.761 39.648L111.808 50.0159C111.808 50.1332 111.766 50.2348 111.681 50.3205C111.607 50.3955 111.511 50.4332 111.393 50.4338L109.281 50.4432C109.079 50.4441 108.935 50.4021 108.849 50.3172C108.763 50.2215 108.704 50.1525 108.672 50.1099L105.354 45.1327L105.376 50.0447C105.376 50.162 105.334 50.2635 105.249 50.3493C105.175 50.4243 105.079 50.462 104.961 50.4626L102.545 50.4734Z"/>
<path d="M117.898 50.5647C116.842 50.5694 115.934 50.4135 115.175 50.0968C114.417 49.7696 113.822 49.2816 113.393 48.6328C112.963 47.9841 112.73 47.1798 112.694 46.2199C112.681 45.772 112.674 45.292 112.672 44.78C112.669 44.2573 112.672 43.7666 112.681 43.3079C112.709 42.3798 112.935 41.6001 113.359 40.9689C113.793 40.3376 114.394 39.8602 115.16 39.5368C115.927 39.2134 116.822 39.0494 117.846 39.0448C118.667 39.0411 119.398 39.1338 120.039 39.323C120.68 39.5121 121.225 39.771 121.675 40.0997C122.135 40.4283 122.483 40.8001 122.72 41.215C122.967 41.6192 123.097 42.04 123.109 42.4773C123.11 42.5733 123.073 42.6588 122.999 42.7338C122.935 42.7981 122.855 42.8304 122.759 42.8308L119.815 42.844C119.708 42.8445 119.623 42.8289 119.559 42.7972C119.495 42.7548 119.436 42.7017 119.382 42.6379C119.328 42.5315 119.242 42.4092 119.124 42.2711C119.017 42.1329 118.862 42.0163 118.659 41.9212C118.456 41.8154 118.189 41.7633 117.858 41.7648C117.357 41.767 116.968 41.8967 116.692 42.154C116.416 42.4112 116.268 42.8172 116.249 43.372C116.221 44.2681 116.225 45.1854 116.262 46.1239C116.286 46.7318 116.442 47.1738 116.732 47.4499C117.031 47.7152 117.432 47.8467 117.933 47.8445C118.264 47.843 118.557 47.7884 118.813 47.6805C119.079 47.5727 119.286 47.4064 119.434 47.1818C119.583 46.9464 119.656 46.6474 119.654 46.2848L119.654 46.1248L118.518 46.1298C118.4 46.1304 118.299 46.0882 118.213 46.0032C118.138 45.9182 118.1 45.8224 118.1 45.7157L118.093 44.2277C118.093 44.1104 118.13 44.0142 118.204 43.9392C118.289 43.8535 118.39 43.8104 118.507 43.8099L122.715 43.791C122.833 43.7905 122.934 43.8327 123.02 43.9177C123.106 43.992 123.149 44.0878 123.149 44.2051L123.158 46.1571C123.162 47.0957 122.942 47.8914 122.497 48.5441C122.051 49.1967 121.435 49.6955 120.647 50.0404C119.859 50.3852 118.943 50.56 117.898 50.5647Z"/>
</mask>
<path d="M62.1563 50.8141C61.0363 50.8191 60.1023 50.6686 59.3543 50.3626C58.6169 50.0459 58.0604 49.6377 57.6848 49.1381C57.3198 48.6277 57.1254 48.0899 57.1016 47.5247C57.1011 47.4287 57.1328 47.3485 57.1965 47.2842C57.2602 47.22 57.3401 47.1876 57.4361 47.1872L59.98 47.1758C60.1294 47.1751 60.2468 47.2013 60.3324 47.2542C60.4179 47.2965 60.5089 47.3601 60.6052 47.445C60.7018 47.5619 60.8143 47.6734 60.9427 47.7795C61.0712 47.8749 61.2369 47.9542 61.4398 48.0173C61.6427 48.0697 61.8775 48.0953 62.1442 48.0941C62.6348 48.0919 63.0132 48.0262 63.2793 47.897C63.5453 47.7572 63.6778 47.5699 63.6768 47.3353C63.676 47.1539 63.6006 47.0049 63.4508 46.8883C63.3116 46.7715 63.0711 46.666 62.7294 46.5715C62.3876 46.477 61.9232 46.3778 61.336 46.2737C60.5141 46.1387 59.8038 45.9392 59.2053 45.6752C58.6067 45.4006 58.1464 45.0346 57.8244 44.5774C57.513 44.1095 57.3557 43.5342 57.3527 42.8515C57.3496 42.1582 57.5388 41.544 57.9204 41.0089C58.3127 40.4739 58.8548 40.0554 59.5468 39.7537C60.2495 39.4518 61.0648 39.2989 61.9928 39.2947C62.7608 39.2913 63.4386 39.3896 64.0261 39.5896C64.6244 39.7896 65.1269 40.054 65.5337 40.3829C65.9405 40.7011 66.2513 41.0463 66.4663 41.4187C66.6813 41.7911 66.7949 42.1479 66.8071 42.4892C66.8076 42.5852 66.7706 42.6707 66.6963 42.7457C66.6326 42.81 66.558 42.8423 66.4727 42.8427L63.8007 42.8547C63.6727 42.8552 63.5606 42.8344 63.4645 42.7922C63.3789 42.7499 63.2986 42.6809 63.2235 42.5852C63.1695 42.4361 63.0356 42.3034 62.8217 42.187C62.6079 42.0706 62.3356 42.0132 62.005 42.0147C61.6423 42.0163 61.3653 42.0815 61.1738 42.2104C60.9824 42.3286 60.8871 42.505 60.8882 42.7397C60.8889 42.8997 60.9482 43.0381 61.0661 43.1549C61.1839 43.2717 61.3924 43.3774 61.6915 43.4721C61.9905 43.5561 62.4069 43.6502 62.9408 43.7545C63.9547 43.8993 64.7717 44.109 65.3916 44.3835C66.0222 44.6581 66.4824 45.0187 66.7724 45.4654C67.0625 45.9121 67.209 46.4714 67.212 47.1434C67.2154 47.9008 66.9996 48.5524 66.5647 49.0983C66.1298 49.6443 65.529 50.0683 64.7624 50.3704C64.0063 50.6618 63.1377 50.8097 62.1563 50.8141Z" fill="#111111"/>
<path d="M70.5852 50.6164C70.4678 50.6169 70.3663 50.58 70.2807 50.5057C70.2056 50.4207 70.1678 50.3196 70.1673 50.2022L70.1324 42.3943L67.3804 42.4066C67.2631 42.4072 67.1616 42.3703 67.0759 42.296C67.0008 42.211 66.9631 42.1098 66.9625 41.9925L66.9529 39.8485C66.9524 39.7312 66.9893 39.635 67.0637 39.56C67.1486 39.4743 67.2497 39.4312 67.3671 39.4307L76.359 39.3904C76.4763 39.3899 76.5725 39.4321 76.6476 39.5171C76.7332 39.5914 76.7763 39.6872 76.7768 39.8046L76.7864 41.9485C76.787 42.0659 76.7448 42.1674 76.6598 42.2531C76.5855 42.3281 76.4896 42.3659 76.3723 42.3664L73.6203 42.3787L73.6553 50.1866C73.6558 50.304 73.6136 50.4055 73.5286 50.4912C73.4543 50.5662 73.3585 50.604 73.2411 50.6045L70.5852 50.6164Z" fill="#111111"/>
<path d="M75.6256 50.5938C75.5296 50.5942 75.4441 50.5626 75.3692 50.499C75.3048 50.4246 75.2725 50.3394 75.272 50.2434C75.2718 50.2007 75.2823 50.1634 75.3035 50.1313L78.9057 39.875C78.9372 39.7576 79.006 39.6452 79.1122 39.5381C79.229 39.4309 79.3835 39.3769 79.5755 39.376L82.5034 39.3629C82.7061 39.362 82.861 39.4147 82.9681 39.5209C83.0753 39.627 83.1451 39.7387 83.1776 39.8559L86.8874 50.0794C86.8982 50.1114 86.9037 50.1487 86.9039 50.1913C86.9044 50.2873 86.8674 50.3728 86.7931 50.4478C86.7294 50.5121 86.6495 50.5445 86.5535 50.5449L84.0895 50.5559C83.9082 50.5568 83.7747 50.5147 83.689 50.4297C83.6032 50.3448 83.5442 50.2651 83.5119 50.1905L83.0099 48.8488L79.1539 48.866L78.6639 50.2122C78.6323 50.287 78.574 50.3673 78.489 50.453C78.4147 50.5387 78.2816 50.5819 78.0896 50.5828L75.6256 50.5938ZM79.8778 46.1587L82.2618 46.1481L81.0457 42.5535L79.8778 46.1587Z" fill="#111111"/>
<path d="M87.5831 50.5403C87.4764 50.5408 87.3803 50.5039 87.2946 50.4296C87.2089 50.3447 87.1658 50.2435 87.1653 50.1262L87.1189 39.7583C87.1183 39.6409 87.1606 39.5448 87.2456 39.4697C87.3305 39.384 87.4263 39.3409 87.533 39.3404L90.077 39.329C90.1943 39.3285 90.2905 39.3708 90.3655 39.4558C90.4512 39.53 90.4943 39.6258 90.4948 39.7432L90.5099 43.1031L92.8785 39.6525C92.9314 39.5776 93.0058 39.5026 93.1014 39.4275C93.1971 39.3524 93.3303 39.3145 93.5009 39.3137L96.4289 39.3006C96.5249 39.3002 96.6051 39.3372 96.6694 39.4115C96.7444 39.4752 96.7821 39.555 96.7825 39.651C96.7828 39.715 96.7617 39.7738 96.7193 39.8273L93.3809 44.6743L97.0527 49.9699C97.0955 50.0124 97.1171 50.071 97.1174 50.1456C97.1179 50.2416 97.0809 50.3271 97.0066 50.4021C96.9429 50.4664 96.863 50.4988 96.767 50.4992L93.7431 50.5127C93.5404 50.5137 93.3855 50.4663 93.2784 50.3708C93.182 50.2753 93.123 50.2062 93.1015 50.1636L90.5249 46.4631L90.5412 50.1111C90.5418 50.2284 90.4995 50.3299 90.4146 50.4156C90.3403 50.4906 90.2444 50.5284 90.1271 50.5289L87.5831 50.5403Z" fill="#111111"/>
<path d="M97.8143 50.4945C97.7076 50.495 97.6114 50.4581 97.5258 50.3838C97.4401 50.2989 97.3969 50.1977 97.3964 50.0804L97.35 39.7125C97.3495 39.5952 97.3917 39.499 97.4767 39.4239C97.5617 39.3382 97.6575 39.2951 97.7641 39.2946L100.484 39.2825C100.601 39.2819 100.698 39.3242 100.773 39.4092C100.858 39.4835 100.901 39.5793 100.902 39.6966L100.948 50.0645C100.949 50.1818 100.907 50.2834 100.822 50.3691C100.747 50.4441 100.652 50.4818 100.534 50.4824L97.8143 50.4945Z" fill="#111111"/>
<path d="M102.545 50.4734C102.439 50.4738 102.343 50.4369 102.257 50.3627C102.171 50.2777 102.128 50.1766 102.128 50.0592L102.081 39.6913C102.081 39.574 102.123 39.4778 102.208 39.4028C102.293 39.317 102.389 39.274 102.495 39.2735L104.623 39.264C104.815 39.2631 104.954 39.3105 105.04 39.4061C105.126 39.491 105.185 39.5548 105.217 39.5973L108.536 44.8785L108.513 39.6626C108.513 39.5452 108.555 39.449 108.64 39.374C108.725 39.2883 108.821 39.2452 108.927 39.2447L111.343 39.2339C111.461 39.2334 111.557 39.2756 111.632 39.3606C111.717 39.4349 111.761 39.5307 111.761 39.648L111.808 50.0159C111.808 50.1332 111.766 50.2348 111.681 50.3205C111.607 50.3955 111.511 50.4332 111.393 50.4338L109.281 50.4432C109.079 50.4441 108.935 50.4021 108.849 50.3172C108.763 50.2215 108.704 50.1525 108.672 50.1099L105.354 45.1327L105.376 50.0447C105.376 50.162 105.334 50.2635 105.249 50.3493C105.175 50.4243 105.079 50.462 104.961 50.4626L102.545 50.4734Z" fill="#111111"/>
<path d="M117.898 50.5647C116.842 50.5694 115.934 50.4135 115.175 50.0968C114.417 49.7696 113.822 49.2816 113.393 48.6328C112.963 47.9841 112.73 47.1798 112.694 46.2199C112.681 45.772 112.674 45.292 112.672 44.78C112.669 44.2573 112.672 43.7666 112.681 43.3079C112.709 42.3798 112.935 41.6001 113.359 40.9689C113.793 40.3376 114.394 39.8602 115.16 39.5368C115.927 39.2134 116.822 39.0494 117.846 39.0448C118.667 39.0411 119.398 39.1338 120.039 39.323C120.68 39.5121 121.225 39.771 121.675 40.0997C122.135 40.4283 122.483 40.8001 122.72 41.215C122.967 41.6192 123.097 42.04 123.109 42.4773C123.11 42.5733 123.073 42.6588 122.999 42.7338C122.935 42.7981 122.855 42.8304 122.759 42.8308L119.815 42.844C119.708 42.8445 119.623 42.8289 119.559 42.7972C119.495 42.7548 119.436 42.7017 119.382 42.6379C119.328 42.5315 119.242 42.4092 119.124 42.2711C119.017 42.1329 118.862 42.0163 118.659 41.9212C118.456 41.8154 118.189 41.7633 117.858 41.7648C117.357 41.767 116.968 41.8967 116.692 42.154C116.416 42.4112 116.268 42.8172 116.249 43.372C116.221 44.2681 116.225 45.1854 116.262 46.1239C116.286 46.7318 116.442 47.1738 116.732 47.4499C117.031 47.7152 117.432 47.8467 117.933 47.8445C118.264 47.843 118.557 47.7884 118.813 47.6805C119.079 47.5727 119.286 47.4064 119.434 47.1818C119.583 46.9464 119.656 46.6474 119.654 46.2848L119.654 46.1248L118.518 46.1298C118.4 46.1304 118.299 46.0882 118.213 46.0032C118.138 45.9182 118.1 45.8224 118.1 45.7157L118.093 44.2277C118.093 44.1104 118.13 44.0142 118.204 43.9392C118.289 43.8535 118.39 43.8104 118.507 43.8099L122.715 43.791C122.833 43.7905 122.934 43.8327 123.02 43.9177C123.106 43.992 123.149 44.0878 123.149 44.2051L123.158 46.1571C123.162 47.0957 122.942 47.8914 122.497 48.5441C122.051 49.1967 121.435 49.6955 120.647 50.0404C119.859 50.3852 118.943 50.56 117.898 50.5647Z" fill="#111111"/>
<path d="M62.1563 50.8141C61.0363 50.8191 60.1023 50.6686 59.3543 50.3626C58.6169 50.0459 58.0604 49.6377 57.6848 49.1381C57.3198 48.6277 57.1254 48.0899 57.1016 47.5247C57.1011 47.4287 57.1328 47.3485 57.1965 47.2842C57.2602 47.22 57.3401 47.1876 57.4361 47.1872L59.98 47.1758C60.1294 47.1751 60.2468 47.2013 60.3324 47.2542C60.4179 47.2965 60.5089 47.3601 60.6052 47.445C60.7018 47.5619 60.8143 47.6734 60.9427 47.7795C61.0712 47.8749 61.2369 47.9542 61.4398 48.0173C61.6427 48.0697 61.8775 48.0953 62.1442 48.0941C62.6348 48.0919 63.0132 48.0262 63.2793 47.897C63.5453 47.7572 63.6778 47.5699 63.6768 47.3353C63.676 47.1539 63.6006 47.0049 63.4508 46.8883C63.3116 46.7715 63.0711 46.666 62.7294 46.5715C62.3876 46.477 61.9232 46.3778 61.336 46.2737C60.5141 46.1387 59.8038 45.9392 59.2053 45.6752C58.6067 45.4006 58.1464 45.0346 57.8244 44.5774C57.513 44.1095 57.3557 43.5342 57.3527 42.8515C57.3496 42.1582 57.5388 41.544 57.9204 41.0089C58.3127 40.4739 58.8548 40.0554 59.5468 39.7537C60.2495 39.4518 61.0648 39.2989 61.9928 39.2947C62.7608 39.2913 63.4386 39.3896 64.0261 39.5896C64.6244 39.7896 65.1269 40.054 65.5337 40.3829C65.9405 40.7011 66.2513 41.0463 66.4663 41.4187C66.6813 41.7911 66.7949 42.1479 66.8071 42.4892C66.8076 42.5852 66.7706 42.6707 66.6963 42.7457C66.6326 42.81 66.558 42.8423 66.4727 42.8427L63.8007 42.8547C63.6727 42.8552 63.5606 42.8344 63.4645 42.7922C63.3789 42.7499 63.2986 42.6809 63.2235 42.5852C63.1695 42.4361 63.0356 42.3034 62.8217 42.187C62.6079 42.0706 62.3356 42.0132 62.005 42.0147C61.6423 42.0163 61.3653 42.0815 61.1738 42.2104C60.9824 42.3286 60.8871 42.505 60.8882 42.7397C60.8889 42.8997 60.9482 43.0381 61.0661 43.1549C61.1839 43.2717 61.3924 43.3774 61.6915 43.4721C61.9905 43.5561 62.4069 43.6502 62.9408 43.7545C63.9547 43.8993 64.7717 44.109 65.3916 44.3835C66.0222 44.6581 66.4824 45.0187 66.7724 45.4654C67.0625 45.9121 67.209 46.4714 67.212 47.1434C67.2154 47.9008 66.9996 48.5524 66.5647 49.0983C66.1298 49.6443 65.529 50.0683 64.7624 50.3704C64.0063 50.6618 63.1377 50.8097 62.1563 50.8141Z" stroke="white" stroke-width="0.8" mask="url(#path-3-outside-1_305_380)"/>
<path d="M70.5852 50.6164C70.4678 50.6169 70.3663 50.58 70.2807 50.5057C70.2056 50.4207 70.1678 50.3196 70.1673 50.2022L70.1324 42.3943L67.3804 42.4066C67.2631 42.4072 67.1616 42.3703 67.0759 42.296C67.0008 42.211 66.9631 42.1098 66.9625 41.9925L66.9529 39.8485C66.9524 39.7312 66.9893 39.635 67.0637 39.56C67.1486 39.4743 67.2497 39.4312 67.3671 39.4307L76.359 39.3904C76.4763 39.3899 76.5725 39.4321 76.6476 39.5171C76.7332 39.5914 76.7763 39.6872 76.7768 39.8046L76.7864 41.9485C76.787 42.0659 76.7448 42.1674 76.6598 42.2531C76.5855 42.3281 76.4896 42.3659 76.3723 42.3664L73.6203 42.3787L73.6553 50.1866C73.6558 50.304 73.6136 50.4055 73.5286 50.4912C73.4543 50.5662 73.3585 50.604 73.2411 50.6045L70.5852 50.6164Z" stroke="white" stroke-width="0.8" mask="url(#path-3-outside-1_305_380)"/>
<path d="M75.6256 50.5938C75.5296 50.5942 75.4441 50.5626 75.3692 50.499C75.3048 50.4246 75.2725 50.3394 75.272 50.2434C75.2718 50.2007 75.2823 50.1634 75.3035 50.1313L78.9057 39.875C78.9372 39.7576 79.006 39.6452 79.1122 39.5381C79.229 39.4309 79.3835 39.3769 79.5755 39.376L82.5034 39.3629C82.7061 39.362 82.861 39.4147 82.9681 39.5209C83.0753 39.627 83.1451 39.7387 83.1776 39.8559L86.8874 50.0794C86.8982 50.1114 86.9037 50.1487 86.9039 50.1913C86.9044 50.2873 86.8674 50.3728 86.7931 50.4478C86.7294 50.5121 86.6495 50.5445 86.5535 50.5449L84.0895 50.5559C83.9082 50.5568 83.7747 50.5147 83.689 50.4297C83.6032 50.3448 83.5442 50.2651 83.5119 50.1905L83.0099 48.8488L79.1539 48.866L78.6639 50.2122C78.6323 50.287 78.574 50.3673 78.489 50.453C78.4147 50.5387 78.2816 50.5819 78.0896 50.5828L75.6256 50.5938ZM79.8778 46.1587L82.2618 46.1481L81.0457 42.5535L79.8778 46.1587Z" stroke="white" stroke-width="0.8" mask="url(#path-3-outside-1_305_380)"/>
<path d="M87.5831 50.5403C87.4764 50.5408 87.3803 50.5039 87.2946 50.4296C87.2089 50.3447 87.1658 50.2435 87.1653 50.1262L87.1189 39.7583C87.1183 39.6409 87.1606 39.5448 87.2456 39.4697C87.3305 39.384 87.4263 39.3409 87.533 39.3404L90.077 39.329C90.1943 39.3285 90.2905 39.3708 90.3655 39.4558C90.4512 39.53 90.4943 39.6258 90.4948 39.7432L90.5099 43.1031L92.8785 39.6525C92.9314 39.5776 93.0058 39.5026 93.1014 39.4275C93.1971 39.3524 93.3303 39.3145 93.5009 39.3137L96.4289 39.3006C96.5249 39.3002 96.6051 39.3372 96.6694 39.4115C96.7444 39.4752 96.7821 39.555 96.7825 39.651C96.7828 39.715 96.7617 39.7738 96.7193 39.8273L93.3809 44.6743L97.0527 49.9699C97.0955 50.0124 97.1171 50.071 97.1174 50.1456C97.1179 50.2416 97.0809 50.3271 97.0066 50.4021C96.9429 50.4664 96.863 50.4988 96.767 50.4992L93.7431 50.5127C93.5404 50.5137 93.3855 50.4663 93.2784 50.3708C93.182 50.2753 93.123 50.2062 93.1015 50.1636L90.5249 46.4631L90.5412 50.1111C90.5418 50.2284 90.4995 50.3299 90.4146 50.4156C90.3403 50.4906 90.2444 50.5284 90.1271 50.5289L87.5831 50.5403Z" stroke="white" stroke-width="0.8" mask="url(#path-3-outside-1_305_380)"/>
<path d="M97.8143 50.4945C97.7076 50.495 97.6114 50.4581 97.5258 50.3838C97.4401 50.2989 97.3969 50.1977 97.3964 50.0804L97.35 39.7125C97.3495 39.5952 97.3917 39.499 97.4767 39.4239C97.5617 39.3382 97.6575 39.2951 97.7641 39.2946L100.484 39.2825C100.601 39.2819 100.698 39.3242 100.773 39.4092C100.858 39.4835 100.901 39.5793 100.902 39.6966L100.948 50.0645C100.949 50.1818 100.907 50.2834 100.822 50.3691C100.747 50.4441 100.652 50.4818 100.534 50.4824L97.8143 50.4945Z" stroke="white" stroke-width="0.8" mask="url(#path-3-outside-1_305_380)"/>
<path d="M102.545 50.4734C102.439 50.4738 102.343 50.4369 102.257 50.3627C102.171 50.2777 102.128 50.1766 102.128 50.0592L102.081 39.6913C102.081 39.574 102.123 39.4778 102.208 39.4028C102.293 39.317 102.389 39.274 102.495 39.2735L104.623 39.264C104.815 39.2631 104.954 39.3105 105.04 39.4061C105.126 39.491 105.185 39.5548 105.217 39.5973L108.536 44.8785L108.513 39.6626C108.513 39.5452 108.555 39.449 108.64 39.374C108.725 39.2883 108.821 39.2452 108.927 39.2447L111.343 39.2339C111.461 39.2334 111.557 39.2756 111.632 39.3606C111.717 39.4349 111.761 39.5307 111.761 39.648L111.808 50.0159C111.808 50.1332 111.766 50.2348 111.681 50.3205C111.607 50.3955 111.511 50.4332 111.393 50.4338L109.281 50.4432C109.079 50.4441 108.935 50.4021 108.849 50.3172C108.763 50.2215 108.704 50.1525 108.672 50.1099L105.354 45.1327L105.376 50.0447C105.376 50.162 105.334 50.2635 105.249 50.3493C105.175 50.4243 105.079 50.462 104.961 50.4626L102.545 50.4734Z" stroke="white" stroke-width="0.8" mask="url(#path-3-outside-1_305_380)"/>
<path d="M117.898 50.5647C116.842 50.5694 115.934 50.4135 115.175 50.0968C114.417 49.7696 113.822 49.2816 113.393 48.6328C112.963 47.9841 112.73 47.1798 112.694 46.2199C112.681 45.772 112.674 45.292 112.672 44.78C112.669 44.2573 112.672 43.7666 112.681 43.3079C112.709 42.3798 112.935 41.6001 113.359 40.9689C113.793 40.3376 114.394 39.8602 115.16 39.5368C115.927 39.2134 116.822 39.0494 117.846 39.0448C118.667 39.0411 119.398 39.1338 120.039 39.323C120.68 39.5121 121.225 39.771 121.675 40.0997C122.135 40.4283 122.483 40.8001 122.72 41.215C122.967 41.6192 123.097 42.04 123.109 42.4773C123.11 42.5733 123.073 42.6588 122.999 42.7338C122.935 42.7981 122.855 42.8304 122.759 42.8308L119.815 42.844C119.708 42.8445 119.623 42.8289 119.559 42.7972C119.495 42.7548 119.436 42.7017 119.382 42.6379C119.328 42.5315 119.242 42.4092 119.124 42.2711C119.017 42.1329 118.862 42.0163 118.659 41.9212C118.456 41.8154 118.189 41.7633 117.858 41.7648C117.357 41.767 116.968 41.8967 116.692 42.154C116.416 42.4112 116.268 42.8172 116.249 43.372C116.221 44.2681 116.225 45.1854 116.262 46.1239C116.286 46.7318 116.442 47.1738 116.732 47.4499C117.031 47.7152 117.432 47.8467 117.933 47.8445C118.264 47.843 118.557 47.7884 118.813 47.6805C119.079 47.5727 119.286 47.4064 119.434 47.1818C119.583 46.9464 119.656 46.6474 119.654 46.2848L119.654 46.1248L118.518 46.1298C118.4 46.1304 118.299 46.0882 118.213 46.0032C118.138 45.9182 118.1 45.8224 118.1 45.7157L118.093 44.2277C118.093 44.1104 118.13 44.0142 118.204 43.9392C118.289 43.8535 118.39 43.8104 118.507 43.8099L122.715 43.791C122.833 43.7905 122.934 43.8327 123.02 43.9177C123.106 43.992 123.149 44.0878 123.149 44.2051L123.158 46.1571C123.162 47.0957 122.942 47.8914 122.497 48.5441C122.051 49.1967 121.435 49.6955 120.647 50.0404C119.859 50.3852 118.943 50.56 117.898 50.5647Z" stroke="white" stroke-width="0.8" mask="url(#path-3-outside-1_305_380)"/>
</g>
<g filter="url(#filter2_dd_305_380)">
<path d="M38 28L42 32L38 36L34 32L38 28Z" fill="url(#paint1_linear_305_380)"/>
<path d="M34.4243 32L38 28.4243L41.5757 32L38 35.5757L34.4243 32Z" stroke="#FF7FBE" stroke-width="0.6"/>
</g>
<g filter="url(#filter3_dd_305_380)">
<path d="M140 67L146 73L140 79L134 73L140 67Z" fill="url(#paint2_linear_305_380)"/>
<path d="M134.424 73L140 67.4243L145.576 73L140 78.5757L134.424 73Z" stroke="#FF7FBE" stroke-width="0.6"/>
</g>
<g filter="url(#filter4_dd_305_380)">
<path d="M119 71L121 73L119 75L117 73L119 71Z" fill="url(#paint3_linear_305_380)"/>
<path d="M117.141 73L119 71.1414L120.859 73L119 74.8586L117.141 73Z" stroke="#FF7FBE" stroke-width="0.2"/>
</g>
<g filter="url(#filter5_dd_305_380)">
<path d="M142 38L144 40L142 42L140 40L142 38Z" fill="url(#paint4_linear_305_380)"/>
<path d="M140.141 40L142 38.1414L143.859 40L142 41.8586L140.141 40Z" stroke="#FF7FBE" stroke-width="0.2"/>
</g>
<g filter="url(#filter6_dd_305_380)">
<path d="M34 51L36 53L34 55L32 53L34 51Z" fill="url(#paint5_linear_305_380)"/>
<path d="M32.1414 53L34 51.1414L35.8586 53L34 54.8586L32.1414 53Z" stroke="#FF7FBE" stroke-width="0.2"/>
</g>
<defs>
<filter id="filter0_d_305_380" x="44.957" y="30.3765" width="90.8984" height="39.2727" filterUnits="userSpaceOnUse" color-interpolation-filters="sRGB">
<feFlood flood-opacity="0" result="BackgroundImageFix"/>
<feColorMatrix in="SourceAlpha" type="matrix" values="0 0 0 0 0 0 0 0 0 0 0 0 0 0 0 0 0 0 127 0" result="hardAlpha"/>
<feOffset dy="3"/>
<feComposite in2="hardAlpha" operator="out"/>
<feColorMatrix type="matrix" values="0 0 0 0 0.322324 0 0 0 0 0.462012 0 0 0 0 0.121052 0 0 0 0.64 0"/>
<feBlend mode="normal" in2="BackgroundImageFix" result="effect1_dropShadow_305_380"/>
<feBlend mode="normal" in="SourceGraphic" in2="effect1_dropShadow_305_380" result="shape"/>
</filter>
<filter id="filter1_d_305_380" x="56.7012" y="38.6448" width="66.8574" height="14.5693" filterUnits="userSpaceOnUse" color-interpolation-filters="sRGB">
<feFlood flood-opacity="0" result="BackgroundImageFix"/>
<feColorMatrix in="SourceAlpha" type="matrix" values="0 0 0 0 0 0 0 0 0 0 0 0 0 0 0 0 0 0 127 0" result="hardAlpha"/>
<feOffset dy="2"/>
<feComposite in2="hardAlpha" operator="out"/>
<feColorMatrix type="matrix" values="0 0 0 0 0.984314 0 0 0 0 0.945098 0 0 0 0 0.129412 0 0 0 0.32 0"/>
<feBlend mode="normal" in2="BackgroundImageFix" result="effect1_dropShadow_305_380"/>
<feBlend mode="normal" in="SourceGraphic" in2="effect1_dropShadow_305_380" result="shape"/>
</filter>
<filter id="filter2_dd_305_380" x="2" y="0" width="72" height="72" filterUnits="userSpaceOnUse" color-interpolation-filters="sRGB">
<feFlood flood-opacity="0" result="BackgroundImageFix"/>
<feColorMatrix in="SourceAlpha" type="matrix" values="0 0 0 0 0 0 0 0 0 0 0 0 0 0 0 0 0 0 127 0" result="hardAlpha"/>
<feOffset dy="4"/>
<feGaussianBlur stdDeviation="16"/>
<feComposite in2="hardAlpha" operator="out"/>
<feColorMatrix type="matrix" values="0 0 0 0 0 0 0 0 0 0 0 0 0 0 0 0 0 0 1 0"/>
<feBlend mode="normal" in2="BackgroundImageFix" result="effect1_dropShadow_305_380"/>
<feColorMatrix in="SourceAlpha" type="matrix" values="0 0 0 0 0 0 0 0 0 0 0 0 0 0 0 0 0 0 127 0" result="hardAlpha"/>
<feOffset dy="4"/>
<feGaussianBlur stdDeviation="8"/>
<feComposite in2="hardAlpha" operator="out"/>
<feColorMatrix type="matrix" values="0 0 0 0 1 0 0 0 0 0.241292 0 0 0 0 0.874939 0 0 0 1 0"/>
<feBlend mode="normal" in2="effect1_dropShadow_305_380" result="effect2_dropShadow_305_380"/>
<feBlend mode="normal" in="SourceGraphic" in2="effect2_dropShadow_305_380" result="shape"/>
</filter>
<filter id="filter3_dd_305_380" x="102" y="39" width="76" height="76" filterUnits="userSpaceOnUse" color-interpolation-filters="sRGB">
<feFlood flood-opacity="0" result="BackgroundImageFix"/>
<feColorMatrix in="SourceAlpha" type="matrix" values="0 0 0 0 0 0 0 0 0 0 0 0 0 0 0 0 0 0 127 0" result="hardAlpha"/>
<feOffset dy="4"/>
<feGaussianBlur stdDeviation="16"/>
<feComposite in2="hardAlpha" operator="out"/>
<feColorMatrix type="matrix" values="0 0 0 0 0 0 0 0 0 0 0 0 0 0 0 0 0 0 1 0"/>
<feBlend mode="normal" in2="BackgroundImageFix" result="effect1_dropShadow_305_380"/>
<feColorMatrix in="SourceAlpha" type="matrix" values="0 0 0 0 0 0 0 0 0 0 0 0 0 0 0 0 0 0 127 0" result="hardAlpha"/>
<feOffset dy="4"/>
<feGaussianBlur stdDeviation="8"/>
<feComposite in2="hardAlpha" operator="out"/>
<feColorMatrix type="matrix" values="0 0 0 0 1 0 0 0 0 0.241292 0 0 0 0 0.874939 0 0 0 1 0"/>
<feBlend mode="normal" in2="effect1_dropShadow_305_380" result="effect2_dropShadow_305_380"/>
<feBlend mode="normal" in="SourceGraphic" in2="effect2_dropShadow_305_380" result="shape"/>
</filter>
<filter id="filter4_dd_305_380" x="85" y="43" width="68" height="68" filterUnits="userSpaceOnUse" color-interpolation-filters="sRGB">
<feFlood flood-opacity="0" result="BackgroundImageFix"/>
<feColorMatrix in="SourceAlpha" type="matrix" values="0 0 0 0 0 0 0 0 0 0 0 0 0 0 0 0 0 0 127 0" result="hardAlpha"/>
<feOffset dy="4"/>
<feGaussianBlur stdDeviation="16"/>
<feComposite in2="hardAlpha" operator="out"/>
<feColorMatrix type="matrix" values="0 0 0 0 0 0 0 0 0 0 0 0 0 0 0 0 0 0 1 0"/>
<feBlend mode="normal" in2="BackgroundImageFix" result="effect1_dropShadow_305_380"/>
<feColorMatrix in="SourceAlpha" type="matrix" values="0 0 0 0 0 0 0 0 0 0 0 0 0 0 0 0 0 0 127 0" result="hardAlpha"/>
<feOffset dy="4"/>
<feGaussianBlur stdDeviation="8"/>
<feComposite in2="hardAlpha" operator="out"/>
<feColorMatrix type="matrix" values="0 0 0 0 1 0 0 0 0 0.241292 0 0 0 0 0.874939 0 0 0 1 0"/>
<feBlend mode="normal" in2="effect1_dropShadow_305_380" result="effect2_dropShadow_305_380"/>
<feBlend mode="normal" in="SourceGraphic" in2="effect2_dropShadow_305_380" result="shape"/>
</filter>
<filter id="filter5_dd_305_380" x="108" y="10" width="68" height="68" filterUnits="userSpaceOnUse" color-interpolation-filters="sRGB">
<feFlood flood-opacity="0" result="BackgroundImageFix"/>
<feColorMatrix in="SourceAlpha" type="matrix" values="0 0 0 0 0 0 0 0 0 0 0 0 0 0 0 0 0 0 127 0" result="hardAlpha"/>
<feOffset dy="4"/>
<feGaussianBlur stdDeviation="16"/>
<feComposite in2="hardAlpha" operator="out"/>
<feColorMatrix type="matrix" values="0 0 0 0 0 0 0 0 0 0 0 0 0 0 0 0 0 0 1 0"/>
<feBlend mode="normal" in2="BackgroundImageFix" result="effect1_dropShadow_305_380"/>
<feColorMatrix in="SourceAlpha" type="matrix" values="0 0 0 0 0 0 0 0 0 0 0 0 0 0 0 0 0 0 127 0" result="hardAlpha"/>
<feOffset dy="4"/>
<feGaussianBlur stdDeviation="8"/>
<feComposite in2="hardAlpha" operator="out"/>
<feColorMatrix type="matrix" values="0 0 0 0 1 0 0 0 0 0.241292 0 0 0 0 0.874939 0 0 0 1 0"/>
<feBlend mode="normal" in2="effect1_dropShadow_305_380" result="effect2_dropShadow_305_380"/>
<feBlend mode="normal" in="SourceGraphic" in2="effect2_dropShadow_305_380" result="shape"/>
</filter>
<filter id="filter6_dd_305_380" x="0" y="23" width="68" height="68" filterUnits="userSpaceOnUse" color-interpolation-filters="sRGB">
<feFlood flood-opacity="0" result="BackgroundImageFix"/>
<feColorMatrix in="SourceAlpha" type="matrix" values="0 0 0 0 0 0 0 0 0 0 0 0 0 0 0 0 0 0 127 0" result="hardAlpha"/>
<feOffset dy="4"/>
<feGaussianBlur stdDeviation="16"/>
<feComposite in2="hardAlpha" operator="out"/>
<feColorMatrix type="matrix" values="0 0 0 0 0 0 0 0 0 0 0 0 0 0 0 0 0 0 1 0"/>
<feBlend mode="normal" in2="BackgroundImageFix" result="effect1_dropShadow_305_380"/>
<feColorMatrix in="SourceAlpha" type="matrix" values="0 0 0 0 0 0 0 0 0 0 0 0 0 0 0 0 0 0 127 0" result="hardAlpha"/>
<feOffset dy="4"/>
<feGaussianBlur stdDeviation="8"/>
<feComposite in2="hardAlpha" operator="out"/>
<feColorMatrix type="matrix" values="0 0 0 0 1 0 0 0 0 0.241292 0 0 0 0 0.874939 0 0 0 1 0"/>
<feBlend mode="normal" in2="effect1_dropShadow_305_380" result="effect2_dropShadow_305_380"/>
<feBlend mode="normal" in="SourceGraphic" in2="effect2_dropShadow_305_380" result="shape"/>
</filter>
<linearGradient id="paint0_linear_305_380" x1="41.6179" y1="20.3992" x2="141.41" y2="26.6013" gradientUnits="userSpaceOnUse">
<stop stop-color="#A5FD1B"/>
<stop offset="1" stop-color="#FCE61C"/>
</linearGradient>
<linearGradient id="paint1_linear_305_380" x1="37.7825" y1="37.0566" x2="39.7994" y2="29.2818" gradientUnits="userSpaceOnUse">
<stop stop-color="#A81AFF"/>
<stop offset="1" stop-color="#FC1C6D"/>
</linearGradient>
<linearGradient id="paint2_linear_305_380" x1="139.674" y1="80.5849" x2="142.699" y2="68.9227" gradientUnits="userSpaceOnUse">
<stop stop-color="#A81AFF"/>
<stop offset="1" stop-color="#FC1C6D"/>
</linearGradient>
<linearGradient id="paint3_linear_305_380" x1="118.891" y1="75.5283" x2="119.9" y2="71.6409" gradientUnits="userSpaceOnUse">
<stop stop-color="#A81AFF"/>
<stop offset="1" stop-color="#FC1C6D"/>
</linearGradient>
<linearGradient id="paint4_linear_305_380" x1="141.891" y1="42.5283" x2="142.9" y2="38.6409" gradientUnits="userSpaceOnUse">
<stop stop-color="#A81AFF"/>
<stop offset="1" stop-color="#FC1C6D"/>
</linearGradient>
<linearGradient id="paint5_linear_305_380" x1="33.8912" y1="55.5283" x2="34.8997" y2="51.6409" gradientUnits="userSpaceOnUse">
<stop stop-color="#A81AFF"/>
<stop offset="1" stop-color="#FC1C6D"/>
</linearGradient>
</defs>
</svg>
